<svg width="48" height="48" viewBox="0 0 48 48" fill="none" xmlns="http://www.w3.org/2000/svg">
<path d="M25.3601 25.1423L24.7695 25.6536L25.4811 25.9758C28.3171 27.26 30.7232 29.3338 32.4118 31.9493C34.1003 34.5648 34.9999 37.6112 35.0029 40.7244C35.0027 41.1455 34.8354 41.5493 34.5376 41.8471C34.2398 42.145 33.8357 42.3123 33.4145 42.3123C32.9932 42.3123 32.5892 42.145 32.2913 41.8471C31.9934 41.5492 31.8261 41.1452 31.8261 40.7239C31.8261 37.2681 30.4532 33.9537 28.0095 31.51C25.5659 29.0664 22.2515 27.6935 18.7956 27.6935C15.3397 27.6935 12.0254 29.0664 9.58172 31.51C7.13804 33.9537 5.76519 37.2681 5.76519 40.7239C5.76519 41.1452 5.59784 41.5492 5.29996 41.8471C5.00207 42.145 4.59806 42.3123 4.17678 42.3123C3.75551 42.3123 3.3515 42.145 3.05361 41.8471C2.75578 41.5493 2.58844 41.1454 2.58838 40.7242C2.59141 37.6111 3.49095 34.5647 5.17947 31.9493C6.86803 29.3338 9.27415 27.26 12.1101 25.9758L12.8218 25.6536L12.2311 25.1423C11.171 24.2247 10.3207 23.0897 9.73796 21.8145C9.15519 20.5393 8.85358 19.1536 8.8536 17.7515C8.8536 15.1147 9.90106 12.5859 11.7655 10.7214C13.63 8.85691 16.1588 7.80945 18.7956 7.80945C21.4324 7.80945 23.9612 8.85691 25.8257 10.7214C27.6902 12.5859 28.7377 15.1147 28.7377 17.7515C28.7377 19.1536 28.4361 20.5393 27.8533 21.8145C27.2705 23.0897 26.4202 24.2247 25.3601 25.1423ZM38.7628 24.353L38.37 24.7954L38.8717 25.109C41.5171 26.7623 43.6959 29.0646 45.2009 31.7972C46.706 34.5297 47.4873 37.6017 47.4707 40.7213V40.7239C47.4707 41.1452 47.3033 41.5492 47.0054 41.8471C46.7075 42.145 46.3035 42.3123 45.8822 42.3123C45.461 42.3123 45.057 42.145 44.7591 41.8471C44.4616 41.5497 44.2943 41.1464 44.2938 40.7258C44.3162 37.8452 43.5151 35.0181 41.9849 32.5774C40.4566 30.1397 38.2645 28.1888 35.6661 26.9537L35.4265 26.8246L34.6316 26.2947L34.6291 26.2931C34.4038 26.1448 34.2199 25.9416 34.0949 25.7026C33.9699 25.4638 33.9078 25.1972 33.9143 24.9278C33.9214 24.656 33.9982 24.3906 34.1372 24.157C34.2763 23.9234 34.473 23.7294 34.7085 23.5936L34.7087 23.5935C35.7344 23.0012 36.5868 22.1501 37.1804 21.1251C37.774 20.1001 38.0881 18.9373 38.0913 17.7528V17.7515C38.0913 15.9572 37.3785 14.2365 36.1098 12.9677C34.8411 11.699 33.1203 10.9863 31.3261 10.9863C30.9048 10.9863 30.5008 10.8189 30.2029 10.521C29.905 10.2231 29.7377 9.81913 29.7377 9.39785C29.7377 8.97658 29.905 8.57257 30.2029 8.27468C30.5008 7.9768 30.9048 7.80945 31.3261 7.80945L31.3262 7.80945C33.2426 7.80894 35.1184 8.36232 36.7276 9.403C38.3369 10.4437 39.6111 11.9273 40.3968 13.6752C41.1826 15.4232 41.4464 17.361 41.1565 19.2554C40.8666 21.1498 40.0353 22.92 38.7628 24.353ZM15.0371 23.3765C16.1496 24.1199 17.4576 24.5167 18.7956 24.5167C20.5899 24.5167 22.3106 23.8039 23.5794 22.5352C24.8481 21.2665 25.5608 19.5457 25.5608 17.7515C25.5608 16.4134 25.1641 15.1055 24.4207 13.9929C23.6773 12.8804 22.6207 12.0133 21.3846 11.5012C20.1484 10.9892 18.7881 10.8552 17.4758 11.1163C16.1635 11.3773 14.958 12.0216 14.0119 12.9677C13.0658 13.9139 12.4214 15.1193 12.1604 16.4316C11.8994 17.744 12.0333 19.1042 12.5454 20.3404C13.0574 21.5766 13.9245 22.6332 15.0371 23.3765Z" fill="white" stroke="white"/>
</svg>
