<svg width="48" height="48" viewBox="0 0 48 48" fill="none" xmlns="http://www.w3.org/2000/svg">
<path d="M17.7205 18.3689L17.7165 18.372L17.7127 18.3754L17.7205 18.3689ZM35.4167 18.0569C35.293 17.9447 35.1557 17.8466 35.0078 17.7645C34.7983 17.6485 34.5658 17.5742 34.3246 17.5461C34.0834 17.518 33.8387 17.5368 33.6055 17.6013C33.3723 17.6657 33.1557 17.7745 32.969 17.9209C32.7823 18.0672 32.6294 18.2481 32.5199 18.4522C31.9076 19.5874 31.063 20.5977 30.0346 21.4251C30.1919 20.5915 30.2712 19.7464 30.2716 18.8998C30.2749 16.324 29.5527 13.7934 28.1785 11.5657C26.8044 9.33796 24.8273 7.49262 22.4487 6.21756C22.1867 6.0778 21.8912 6.00297 21.59 6.00009C21.2888 5.9972 20.9918 6.06636 20.7268 6.20107C20.4618 6.33578 20.2375 6.53162 20.075 6.77023C19.9125 7.00883 19.817 7.28237 19.7977 7.56518C19.6982 9.15117 19.2575 10.7016 18.5024 12.1227C17.7472 13.5437 16.6933 14.8057 15.4045 15.8321L14.9948 16.1458C13.6471 16.999 12.4541 18.0508 11.4618 19.2608C9.91924 21.0892 8.85068 23.2306 8.34083 25.5152C7.83099 27.7998 7.89389 30.1647 8.52454 32.4225C9.1552 34.6802 10.3363 36.7687 11.9741 38.5222C13.6119 40.2757 15.6614 41.6461 17.9601 42.5247C18.23 42.6284 18.5229 42.6681 18.8129 42.6402C19.103 42.6123 19.3813 42.5176 19.6233 42.3646C19.8652 42.2116 20.0635 42.0049 20.2005 41.7628C20.3375 41.5206 20.4091 41.2505 20.4089 40.9761C20.4076 40.7987 20.3778 40.6224 20.3204 40.4534C19.9226 39.0467 19.8081 37.5825 19.9827 36.1362C21.6649 39.1214 24.3651 41.4877 27.6493 42.8546C28.0502 43.0233 28.5034 43.0461 28.9211 42.9183C31.5158 42.1303 33.8533 40.7312 35.7115 38.8538C37.5697 36.9764 38.8868 34.6832 39.5377 32.192C40.1886 29.7008 40.1516 27.0943 39.4303 24.6203C38.7091 22.1464 37.3274 19.887 35.4167 18.0569ZM28.4748 39.5191C26.9252 38.7801 25.5582 37.7426 24.4627 36.4739C23.3672 35.2052 22.5677 33.7339 22.1163 32.1554C21.9785 31.6239 21.8718 31.0857 21.7969 30.5432C21.7461 30.1977 21.5819 29.8757 21.3271 29.6224C21.0723 29.3691 20.7397 29.197 20.3759 29.1302C20.2638 29.1094 20.1498 29.099 20.0356 29.0992C19.7231 29.0991 19.4162 29.1765 19.1456 29.3236C18.8751 29.4707 18.6506 29.6824 18.4948 29.9372C17.0197 32.331 16.2779 35.0623 16.3516 37.8285C15.0542 36.8794 13.97 35.6975 13.1617 34.3513C12.3533 33.0051 11.8371 31.5213 11.6427 29.986C11.4484 28.4506 11.5798 26.8943 12.0295 25.4071C12.4791 23.9199 13.238 22.5315 14.2622 21.3223C15.0398 20.3719 15.9779 19.548 17.039 18.8835C17.085 18.8556 17.1291 18.8251 17.171 18.792C17.171 18.792 17.6984 18.3814 17.7165 18.372C20.2492 16.3564 22.0507 13.6476 22.8698 10.623C24.8068 12.3078 26.0984 14.5472 26.544 16.9934C26.9896 19.4397 26.5643 21.9559 25.3342 24.1514C25.1716 24.4444 25.105 24.7761 25.1426 25.1047C25.1802 25.4333 25.3203 25.744 25.5454 25.9977C25.7705 26.2514 26.0704 26.4367 26.4072 26.5303C26.7441 26.6238 27.1029 26.6214 27.4383 26.5233C30.1615 25.7201 32.5578 24.1513 34.3046 22.028C35.3545 23.487 36.0409 25.1502 36.3126 26.8935C36.5844 28.6369 36.4345 30.4155 35.8741 32.0967C35.3137 33.778 34.3573 35.3186 33.0762 36.6037C31.795 37.8889 30.2222 38.8854 28.4748 39.5191L28.4748 39.5191Z" fill="white"/>
</svg>
