<svg width="48" height="48" viewBox="0 0 48 48" fill="none" xmlns="http://www.w3.org/2000/svg">
<path fill-rule="evenodd" clip-rule="evenodd" d="M14.5091 14.0566C14.6023 13.6557 14.828 13.2982 15.1495 13.0422C15.4711 12.7863 15.8695 12.647 16.28 12.6471H31.72C32.1305 12.647 32.5289 12.7863 32.8505 13.0422C33.172 13.2982 33.3977 13.6557 33.4909 14.0566L34.4364 18.1176H13.5636L14.5091 14.0566ZM5.81818 21.7647H7.63636C6.49455 23.2892 5.81818 25.182 5.81818 27.2353V29.0588C5.81818 31.4404 7.33636 33.4681 9.45455 34.2194V38.1765C9.45455 38.6601 9.6461 39.1239 9.98708 39.4659C10.3281 39.8079 10.7905 40 11.2727 40H13.0909C13.5731 40 14.0356 39.8079 14.3766 39.4659C14.7175 39.1239 14.9091 38.6601 14.9091 38.1765V34.5294H33.0909V38.1765C33.0909 38.6601 33.2825 39.1239 33.6234 39.4659C33.9644 39.8079 34.4269 40 34.9091 40H36.7273C37.2095 40 37.6719 39.8079 38.0129 39.4659C38.3539 39.1239 38.5455 38.6601 38.5455 38.1765V34.2194C39.6092 33.8419 40.5301 33.1429 41.1814 32.2187C41.8326 31.2945 42.1821 30.1905 42.1818 29.0588V27.2353C42.1847 25.262 41.5464 23.3416 40.3636 21.7647H42.1818C42.664 21.7647 43.1265 21.5726 43.4675 21.2306C43.8084 20.8886 44 20.4248 44 19.9412C44 19.4575 43.8084 18.9937 43.4675 18.6517C43.1265 18.3098 42.664 18.1176 42.1818 18.1176H40.3636C39.9118 18.1178 39.4761 18.2867 39.1417 18.5915C38.8072 18.8963 38.5979 19.315 38.5545 19.7661L38.4982 19.5272L37.0327 13.2269C36.7528 12.0244 36.0755 10.9522 35.1109 10.1848C34.1463 9.41734 32.9512 8.99977 31.72 9H16.28C15.0488 8.99977 13.8537 9.41734 12.8891 10.1848C11.9245 10.9522 11.2472 12.0244 10.9673 13.2269L9.50182 19.5272L9.44727 19.7661C9.40386 19.3147 9.19429 18.8957 8.85945 18.5909C8.52462 18.2861 8.08855 18.1174 7.63636 18.1176H5.81818C5.33597 18.1176 4.87351 18.3098 4.53253 18.6517C4.19156 18.9937 4 19.4575 4 19.9412C4 20.4248 4.19156 20.8886 4.53253 21.2306C4.87351 21.5726 5.33597 21.7647 5.81818 21.7647ZM14.9091 21.7647C13.4625 21.7647 12.0751 22.3411 11.0521 23.367C10.0292 24.3929 9.45455 25.7844 9.45455 27.2353V29.0588C9.45455 29.5425 9.6461 30.0063 9.98708 30.3483C10.3281 30.6902 10.7905 30.8824 11.2727 30.8824H36.7273C37.2095 30.8824 37.6719 30.6902 38.0129 30.3483C38.3539 30.0063 38.5455 29.5425 38.5455 29.0588V27.2353C38.5455 25.7844 37.9708 24.3929 36.9479 23.367C35.9249 22.3411 34.5375 21.7647 33.0909 21.7647H14.9091ZM13.0909 26.3235C13.0909 25.5981 13.3782 24.9024 13.8897 24.3894C14.4012 23.8764 15.0949 23.5882 15.8182 23.5882C16.5415 23.5882 17.2352 23.8764 17.7467 24.3894C18.2581 24.9024 18.5455 25.5981 18.5455 26.3235C18.5455 27.049 18.2581 27.7447 17.7467 28.2577C17.2352 28.7706 16.5415 29.0588 15.8182 29.0588C15.0949 29.0588 14.4012 28.7706 13.8897 28.2577C13.3782 27.7447 13.0909 27.049 13.0909 26.3235ZM32.1818 23.5882C31.4585 23.5882 30.7648 23.8764 30.2533 24.3894C29.7419 24.9024 29.4545 25.5981 29.4545 26.3235C29.4545 27.049 29.7419 27.7447 30.2533 28.2577C30.7648 28.7706 31.4585 29.0588 32.1818 29.0588C32.9051 29.0588 33.5988 28.7706 34.1103 28.2577C34.6218 27.7447 34.9091 27.049 34.9091 26.3235C34.9091 25.5981 34.6218 24.9024 34.1103 24.3894C33.5988 23.8764 32.9051 23.5882 32.1818 23.5882Z" fill="white"/>
</svg>
