<svg width="48" height="48" viewBox="0 0 48 48" fill="none" xmlns="http://www.w3.org/2000/svg">
<path d="M42.1818 23.4934H11.2727V13.7074C11.2663 13.077 11.4392 12.4568 11.7724 11.9141C12.1057 11.3714 12.5868 10.9268 13.1636 10.6284C13.8015 10.2956 14.5283 10.1546 15.2503 10.2236C14.8828 11.2951 14.8306 12.4437 15.0994 13.542C15.3683 14.6403 15.9476 15.6455 16.7734 16.4463L18.7017 18.3029C18.8705 18.4655 19.0709 18.5945 19.2915 18.6825C19.512 18.7705 19.7485 18.8158 19.9872 18.8158C20.226 18.8158 20.4624 18.7705 20.683 18.6825C20.9035 18.5945 21.1039 18.4655 21.2727 18.3029L27.7003 12.1141C27.8692 11.9515 28.0031 11.7586 28.0945 11.5462C28.1859 11.3338 28.233 11.1062 28.233 10.8763C28.233 10.6464 28.1859 10.4188 28.0945 10.2064C28.0031 9.99399 27.8692 9.80103 27.7003 9.63851L25.772 7.78185C24.6988 6.75311 23.2792 6.12737 21.7691 6.01742C20.259 5.90747 18.7579 6.32055 17.5362 7.18219C16.4346 6.76797 15.2447 6.61913 14.0698 6.74862C12.895 6.87811 11.7707 7.28201 10.7949 7.9252C9.81913 8.56838 9.02129 9.43137 8.47081 10.4391C7.92033 11.4468 7.63388 12.5688 7.63636 13.7074V23.4934H5.81818C5.33597 23.4934 4.87351 23.6778 4.53253 24.0061C4.19156 24.3344 4 24.7797 4 25.244C4 25.7083 4.19156 26.1536 4.53253 26.4819C4.87351 26.8102 5.33597 26.9947 5.81818 26.9947H7.63636V32.2467C7.63983 33.3293 7.99122 34.3843 8.64231 35.2668C9.2934 36.1494 10.2123 36.8163 11.2727 37.176V39.2493C11.2727 39.7136 11.4643 40.1589 11.8053 40.4872C12.1462 40.8156 12.6087 41 13.0909 41C13.5731 41 14.0356 40.8156 14.3766 40.4872C14.7175 40.1589 14.9091 39.7136 14.9091 39.2493V37.4987H33.0909V39.2493C33.0909 39.7136 33.2825 40.1589 33.6234 40.4872C33.9644 40.8156 34.4269 41 34.9091 41C35.3913 41 35.8538 40.8156 36.1947 40.4872C36.5357 40.1589 36.7273 39.7136 36.7273 39.2493V37.1761C37.7878 36.8164 38.7066 36.1495 39.3577 35.2669C40.0088 34.3843 40.3602 33.3293 40.3636 32.2467V26.9947H42.1818C42.664 26.9947 43.1265 26.8102 43.4675 26.4819C43.8084 26.1536 44 25.7083 44 25.244C44 24.7797 43.8084 24.3344 43.4675 24.0061C43.1265 23.6778 42.664 23.4934 42.1818 23.4934ZM19.3445 10.2574C19.8563 9.76582 20.5498 9.48978 21.2727 9.48978C21.9957 9.48978 22.6891 9.76582 23.201 10.2574L23.8437 10.8763L19.9873 14.5896L19.3445 13.9707C18.8337 13.478 18.5468 12.8103 18.5468 12.1141C18.5468 11.4179 18.8337 10.7501 19.3445 10.2574ZM36.7273 32.2467C36.727 32.7109 36.5353 33.156 36.1944 33.4842C35.8535 33.8125 35.3912 33.997 34.9091 33.9973H13.0909C12.6088 33.997 12.1465 33.8125 11.8056 33.4842C11.4647 33.156 11.2731 32.7109 11.2727 32.2467V26.9947H36.7273V32.2467Z" fill="white"/>
</svg>
