<svg width="48" height="48" viewBox="0 0 48 48" fill="none" xmlns="http://www.w3.org/2000/svg">
<path d="M36.1667 11.8064H29.1861L33.6583 7.3418C33.8396 7.16002 33.9834 6.94422 34.0816 6.70671C34.1797 6.46921 34.2302 6.21465 34.2302 5.95758C34.2302 5.70051 34.1797 5.44595 34.0816 5.20845C33.9834 4.97094 33.8396 4.75514 33.6583 4.57336C33.477 4.39158 33.2618 4.24739 33.0249 4.14901C32.7881 4.05063 32.5342 4 32.2778 4C31.76 4 31.2634 4.20624 30.8972 4.57336L24.5 10.9096L22.225 7.01036C22.0973 6.78762 21.9271 6.59227 21.7242 6.43548C21.5212 6.27868 21.2894 6.1635 21.0421 6.09651C20.7947 6.02953 20.5366 6.01205 20.2825 6.04508C20.0284 6.07811 19.7833 6.161 19.5611 6.28901C19.339 6.41702 19.1441 6.58765 18.9877 6.79116C18.8314 6.99467 18.7165 7.22707 18.6497 7.47509C18.5829 7.72311 18.5654 7.9819 18.5984 8.23667C18.6313 8.49145 18.714 8.73722 18.8417 8.95996L20.6111 11.8064H12.8333C11.2862 11.8064 9.80251 12.4226 8.70854 13.5195C7.61458 14.6163 7 16.104 7 17.6552V33.252C7 34.8032 7.61458 36.2909 8.70854 37.3877C9.80251 38.4846 11.2862 39.1008 12.8333 39.1008V41.0504C12.8333 41.5675 13.0382 42.0634 13.4028 42.429C13.7675 42.7946 14.2621 43 14.7778 43C15.2935 43 15.7881 42.7946 16.1527 42.429C16.5174 42.0634 16.7222 41.5675 16.7222 41.0504V39.1008H32.2778V41.0504C32.2778 41.5675 32.4826 42.0634 32.8473 42.429C33.2119 42.7946 33.7065 43 34.2222 43C34.7379 43 35.2325 42.7946 35.5972 42.429C35.9618 42.0634 36.1667 41.5675 36.1667 41.0504V39.1008C37.7138 39.1008 39.1975 38.4846 40.2915 37.3877C41.3854 36.2909 42 34.8032 42 33.252V17.6552C42 16.104 41.3854 14.6163 40.2915 13.5195C39.1975 12.4226 37.7138 11.8064 36.1667 11.8064ZM38.1111 33.252C38.1111 33.7691 37.9063 34.2649 37.5416 34.6306C37.1769 34.9962 36.6824 35.2016 36.1667 35.2016H12.8333C12.3176 35.2016 11.8231 34.9962 11.4584 34.6306C11.0937 34.2649 10.8889 33.7691 10.8889 33.252V17.6552C10.8889 17.1381 11.0937 16.6422 11.4584 16.2766C11.8231 15.911 12.3176 15.7056 12.8333 15.7056H36.1667C36.6824 15.7056 37.1769 15.911 37.5416 16.2766C37.9063 16.6422 38.1111 17.1381 38.1111 17.6552V33.252Z" fill="white"/>
</svg>
