<svg width="48" height="48" viewBox="0 0 48 48" fill="none" xmlns="http://www.w3.org/2000/svg">
<path d="M12.5183 15.663L13.7717 17.2215L12.5183 15.663ZM19.5315 17.2896L17.7575 18.2132C18.1608 18.9879 19.0203 19.4113 19.8803 19.2589C20.7403 19.1066 21.402 18.4138 21.5148 17.5477L19.5315 17.2896ZM22.922 9.69089L22.312 7.78617L22.922 9.69089ZM38.7443 9.69069L37.5466 11.2925L38.7443 9.69069ZM34.2236 20.546L32.8382 19.1036C32.2495 19.669 32.0635 20.5355 32.3682 21.2927C32.673 22.0499 33.4074 22.546 34.2236 22.546V20.546ZM39.8744 21.6315L41.81 21.1277L39.8744 21.6315ZM30.8331 29.2302L29.7546 27.5459C29.0893 27.972 28.7371 28.7497 28.8558 29.5308C28.9746 30.3119 29.542 30.9498 30.3038 31.1589L30.8331 29.2302ZM35.772 34.7568L34.1061 33.6502L35.772 34.7568ZM24.0521 39V41H24.2112L24.3683 40.9749L24.0521 39ZM12.1475 30.595C11.2754 29.0426 10.7998 26.3281 11.0803 23.522C11.3635 20.69 12.3526 18.3627 13.7717 17.2215L11.2649 14.1044C8.63441 16.2198 7.43 19.8257 7.1002 23.124C6.7678 26.4481 7.25968 30.0612 8.66014 32.5541L12.1475 30.595ZM13.7717 17.2215C14.5368 16.6062 15.3016 16.6015 16.0891 16.9159C17.0025 17.2805 17.6309 17.9701 17.7575 18.2132L21.3054 16.366C20.6784 15.1617 19.2512 13.8712 17.5719 13.2009C15.7667 12.4804 13.4016 12.3861 11.2649 14.1044L13.7717 17.2215ZM21.5148 17.5477C21.6902 16.1998 22.0294 14.6193 22.516 13.3517C22.7598 12.7164 23.0124 12.2349 23.2479 11.9143C23.4949 11.578 23.6098 11.5707 23.5319 11.5956L22.312 7.78617C21.2752 8.11818 20.5339 8.85239 20.0242 9.54616C19.5031 10.2556 19.0985 11.0926 18.7816 11.9183C18.1465 13.5729 17.7495 15.4846 17.5482 17.0315L21.5148 17.5477ZM23.5319 11.5956C24.237 11.3698 25.1927 11.6597 26.0572 12.49C26.4645 12.8813 26.6971 13.2578 26.7804 13.4711C26.9303 13.8551 26.5341 13.2178 27.1873 12.5904L29.9582 15.4752C31.1765 14.305 30.7804 12.7179 30.5065 12.0164C30.1659 11.1441 29.5509 10.2995 28.8281 9.60519C27.4322 8.26451 24.9974 6.92621 22.312 7.78617L23.5319 11.5956ZM27.1873 12.5904C27.1668 12.6101 27.1881 12.5881 27.2356 12.5498C27.2529 12.5359 27.3276 12.4755 27.4375 12.4095C27.4888 12.3787 27.6086 12.3094 27.7745 12.2489C27.8681 12.2148 28.3432 12.0377 28.9444 12.1895C29.3037 12.2802 29.6899 12.4861 29.9922 12.8501C30.2806 13.1973 30.3907 13.5655 30.4303 13.8262C30.4996 14.283 30.3883 14.6356 30.3621 14.7194C30.2898 14.9498 30.1906 15.1099 30.1807 15.1266C30.1504 15.1773 30.1261 15.212 30.1181 15.2234C30.1127 15.2311 30.1086 15.2367 30.1063 15.2399C30.1038 15.2431 30.1025 15.2449 30.1024 15.2451C30.1023 15.2451 30.1053 15.2413 30.112 15.233C30.1185 15.2248 30.1275 15.2139 30.1391 15.2C30.1625 15.172 30.1937 15.1357 30.2329 15.0912C30.3115 15.0022 30.4156 14.8886 30.543 14.7553C31.0599 14.2149 31.8918 13.4247 32.8631 12.7005C33.8552 11.9608 34.8729 11.3806 35.7707 11.13C36.6315 10.8898 37.1571 11.0012 37.5466 11.2925L39.9419 8.08892C38.2421 6.81796 36.3102 6.82664 34.6955 7.27727C33.1178 7.71757 31.6419 8.62167 30.4722 9.49375C29.2817 10.3813 28.2837 11.3304 27.6523 11.9906C27.3465 12.3103 27.0862 12.6045 26.9256 12.8144C26.89 12.8609 26.8164 12.9585 26.746 13.0765C26.726 13.1099 26.6204 13.283 26.5453 13.5225C26.5176 13.6108 26.4058 13.967 26.4755 14.4263C26.5153 14.6883 26.6259 15.0575 26.9149 15.4055C27.2178 15.7703 27.6049 15.9768 27.9653 16.0678C28.5688 16.2201 29.047 16.0426 29.1447 16.0069C29.3147 15.9449 29.4394 15.8731 29.4968 15.8387C29.6185 15.7656 29.7089 15.6939 29.7458 15.6642C29.8323 15.5944 29.9082 15.5233 29.9582 15.4752L27.1873 12.5904ZM37.5466 11.2925C37.3933 11.1778 37.5212 11.084 37.494 11.5389C37.4652 12.0196 37.262 12.751 36.8169 13.6857C35.9371 15.5335 34.3803 17.6223 32.8382 19.1036L35.6091 21.9884C37.4574 20.213 39.3173 17.7388 40.4284 15.4054C40.9788 14.2495 41.4145 12.9858 41.4868 11.7778C41.5606 10.5441 41.2516 9.06819 39.9419 8.08892L37.5466 11.2925ZM34.2236 22.546C35.2357 22.546 36.4236 22.5227 37.4252 22.6305C37.9312 22.6849 38.2407 22.7598 38.3878 22.8182C38.6046 22.9042 38.1079 22.7844 37.9389 22.1353L41.81 21.1277C41.4859 19.8828 40.4408 19.3295 39.8633 19.1003C39.2161 18.8434 38.4855 18.7214 37.853 18.6534C36.5776 18.5162 35.0951 18.546 34.2236 18.546V22.546ZM37.9389 22.1353C38.0704 22.6402 37.9777 22.9154 37.7844 23.1876C37.5175 23.5636 36.9873 23.9974 36.0867 24.4917C35.1998 24.9785 34.176 25.4097 33.0392 25.9028C31.9627 26.3698 30.758 26.9035 29.7546 27.5459L31.9116 30.9145C32.6035 30.4715 33.5179 30.0553 34.631 29.5724C35.684 29.1157 36.9205 28.597 38.0113 27.9983C39.0885 27.4071 40.2535 26.6196 41.0462 25.503C41.9125 24.2826 42.2436 22.7938 41.81 21.1277L37.9389 22.1353ZM30.3038 31.1589C31.614 31.5185 33.0376 32.0248 33.87 32.6608C34.2685 32.9652 34.3246 33.1451 34.3267 33.1532C34.3272 33.1553 34.3274 33.1564 34.3275 33.1596C34.3275 33.1631 34.3275 33.1785 34.3209 33.2091C34.3073 33.2711 34.2613 33.4166 34.1061 33.6502L37.4379 35.8635C38.1988 34.7182 38.5326 33.4412 38.1993 32.1519C37.8856 30.9385 37.0693 30.0713 36.2984 29.4823C34.7921 28.3315 32.6893 27.6657 31.3624 27.3015L30.3038 31.1589ZM34.1061 33.6502C33.9389 33.9019 33.2367 34.5099 31.354 35.2073C29.575 35.8664 27.0558 36.4937 23.736 37.0251L24.3683 40.9749C27.8294 40.4208 30.6287 39.7417 32.7436 38.9582C34.7548 38.2131 36.522 37.2423 37.4379 35.8635L34.1061 33.6502ZM24.0521 37C19.0592 37 14.0352 33.9552 12.1475 30.595L8.66014 32.5541C11.3175 37.2844 17.7434 41 24.0521 41V37Z" fill="white"/>
<path d="M28 21C23.4762 23.7143 12.619 34.9333 9 40" stroke="white" stroke-width="4" stroke-linecap="round"/>
</svg>
