<svg width="18" height="18" viewBox="0 0 18 18" fill="none" xmlns="http://www.w3.org/2000/svg">
<path d="M0.4 9.2C-0.0418278 9.53137 -0.131371 10.1582 0.2 10.6C0.531371 11.0418 1.15817 11.1314 1.6 10.8L0.4 9.2ZM9 4L9.6 3.2C9.24444 2.93333 8.75556 2.93333 8.4 3.2L9 4ZM16.4 10.8C16.8418 11.1314 17.4686 11.0418 17.8 10.6C18.1314 10.1582 18.0418 9.53137 17.6 9.2L16.4 10.8ZM1.6 10.8L9.6 4.8L8.4 3.2L0.4 9.2L1.6 10.8ZM8.4 4.8L16.4 10.8L17.6 9.2L9.6 3.2L8.4 4.8Z" fill="white"/>
<path d="M3 3C3 1 7 2 7 1" stroke="white" stroke-width="2" stroke-linecap="round"/>
<path d="M15.5 9C15.5 8.44772 15.0523 8 14.5 8C13.9477 8 13.5 8.44772 13.5 9H15.5ZM14.5 17V18C15.0523 18 15.5 17.5523 15.5 17H14.5ZM3.5 17H2.5C2.5 17.5523 2.94772 18 3.5 18V17ZM4.5 6C4.5 5.44772 4.05228 5 3.5 5C2.94772 5 2.5 5.44772 2.5 6H4.5ZM13.5 9V17H15.5V9H13.5ZM14.5 16H3.5V18H14.5V16ZM4.5 17V6H2.5V17H4.5Z" fill="white"/>
</svg>
