<svg width="17" height="17" viewBox="0 0 17 17" fill="none" xmlns="http://www.w3.org/2000/svg">
<g clip-path="url(#clip0_336_37469)">
<path d="M4.25001 8.62329V10.3764H12.75V8.62329C12.75 7.65633 13.5124 6.87017 14.45 6.87017H15.3C15.3 5.41836 14.1578 4.24048 12.75 4.24048H4.25001C2.8422 4.24048 1.70001 5.41836 1.70001 6.87017H2.55001C3.48766 6.87017 4.25001 7.65633 4.25001 8.62329ZM15.3 7.74673H14.45C13.9799 7.74673 13.6 8.13844 13.6 8.62329V11.253H3.40001V8.62329C3.40001 8.13844 3.02016 7.74673 2.55001 7.74673H1.70001C0.762351 7.74673 7.62939e-06 8.5329 7.62939e-06 9.49985C7.62939e-06 10.1463 0.34532 10.7051 0.850008 11.0092V14.3209C0.850008 14.562 1.04126 14.7592 1.27501 14.7592H2.97501C3.20876 14.7592 3.40001 14.562 3.40001 14.3209V13.8827H13.6V14.3209C13.6 14.562 13.7913 14.7592 14.025 14.7592H15.725C15.9588 14.7592 16.15 14.562 16.15 14.3209V11.0092C16.6547 10.7051 17 10.1463 17 9.49985C17 8.5329 16.2377 7.74673 15.3 7.74673Z" fill="#606A70"/>
</g>
<defs>
<clipPath id="clip0_336_37469">
<rect width="17" height="17" fill="white"/>
</clipPath>
</defs>
</svg>
