<svg width="69" height="18" viewBox="0 0 69 18" fill="none" xmlns="http://www.w3.org/2000/svg">
<path d="M18.8565 18C17.81 18 17.2254 17.6506 16.8012 17.3956C16.4523 17.1878 16.2355 17.0556 15.7169 17.0556C15.1889 17.0556 14.9815 17.1783 14.6327 17.3956C14.199 17.6506 13.6238 18 12.5773 18C11.5308 18 10.9462 17.6506 10.5219 17.3956C10.1731 17.1878 9.95625 17.0556 9.4377 17.0556C8.90971 17.0556 8.70229 17.1783 8.35345 17.3956C7.91975 17.6506 7.33519 18 6.28866 18C5.24212 18 4.65756 17.6506 4.23329 17.3956C3.88445 17.1783 3.6676 17.0556 3.14904 17.0556C2.63049 17.0556 2.41364 17.1783 2.06479 17.3956C1.63109 17.6506 1.04654 18 0 18V16.1111C0.527983 16.1111 0.735405 15.9884 1.08425 15.7711C1.51795 15.5161 2.1025 15.1667 3.14904 15.1667C4.19558 15.1667 4.78013 15.5161 5.2044 15.7711C5.55325 15.9884 5.76067 16.1111 6.28866 16.1111C6.81664 16.1111 7.02406 15.9884 7.37291 15.7711C7.80661 15.5161 8.39116 15.1667 9.4377 15.1667C10.4842 15.1667 11.0688 15.5161 11.4931 15.7711C11.8419 15.9789 12.0588 16.1111 12.5773 16.1111C13.0959 16.1111 13.3127 15.9884 13.6616 15.7711C14.0858 15.5161 14.6704 15.1667 15.7169 15.1667C16.7635 15.1667 17.348 15.5161 17.7723 15.7711C18.1211 15.9884 18.3286 16.1111 18.8565 16.1111V18ZM18.8565 13.75C17.81 13.75 17.2254 13.4006 16.8012 13.1456C16.4523 12.9378 16.2355 12.8056 15.7169 12.8056C15.1889 12.8056 14.9815 12.9284 14.6327 13.1456C14.2084 13.4006 13.6238 13.75 12.5773 13.75C11.5308 13.75 10.9462 13.4006 10.5219 13.1456C10.1731 12.9378 9.95625 12.8056 9.4377 12.8056C8.90971 12.8056 8.70229 12.9284 8.35345 13.1456C7.92917 13.4006 7.34462 13.75 6.29808 13.75C5.25155 13.75 4.66699 13.4006 4.24272 13.1456C3.89387 12.9378 3.67702 12.8056 3.15847 12.8056C2.63992 12.8056 2.42306 12.9284 2.07422 13.1456C1.63109 13.4006 1.04654 13.75 0 13.75V11.8612C0.527983 11.8612 0.735405 11.7384 1.08425 11.5212C1.50852 11.2662 2.09308 10.9167 3.13961 10.9167C4.18615 10.9167 4.7707 11.2662 5.19498 11.5212C5.54382 11.7289 5.76067 11.8612 6.27923 11.8612C6.80721 11.8612 7.01463 11.7384 7.36348 11.5212C7.78775 11.2662 8.3723 10.9167 9.41884 10.9167C10.4654 10.9167 11.0499 11.2662 11.4742 11.5212C11.823 11.7289 12.0399 11.8612 12.5585 11.8612C13.077 11.8612 13.2939 11.7384 13.6427 11.5212C14.067 11.2662 14.6515 10.9167 15.6981 10.9167C16.7446 10.9167 17.3292 11.2662 17.7534 11.5212C18.1023 11.7289 18.3191 11.8612 18.8377 11.8612V13.75H18.8565ZM6.28866 9.50008C6.81664 9.50008 7.02406 9.3773 7.37291 9.16008C7.80661 8.90508 8.39116 8.55564 9.4377 8.55564C10.4842 8.55564 11.0688 8.90508 11.4931 9.16008C11.8419 9.36786 12.0588 9.50008 12.5773 9.50008C13.0959 9.50008 13.3127 9.3773 13.6616 9.16008C13.7747 9.09397 13.9067 9.01841 14.0481 8.94286L7.99517 2.88902C6.53379 1.42515 5.18555 0.990706 2.82848 1.00015V3.36124C4.54443 3.3518 5.55325 3.72957 6.59979 4.77789L7.54261 5.72233L4.47843 8.79175C4.7707 8.90508 5.00641 9.04675 5.2044 9.16008C5.55325 9.3773 5.76067 9.50008 6.28866 9.50008Z" fill="#606A70"/>
<path d="M13.6712 5.7223C14.973 5.7223 16.0283 4.66521 16.0283 3.36121C16.0283 2.05722 14.973 1.00012 13.6712 1.00012C12.3694 1.00012 11.3141 2.05722 11.3141 3.36121C11.3141 4.66521 12.3694 5.7223 13.6712 5.7223Z" fill="#606A70"/>
<path d="M35.1986 6.18653C39.488 6.18653 42.9652 5.02548 42.9652 3.59326C42.9652 2.16104 39.488 1 35.1986 1C30.9093 1 27.4321 2.16104 27.4321 3.59326C27.4321 5.02548 30.9093 6.18653 35.1986 6.18653Z" stroke="#606A70" stroke-width="1.98214" stroke-miterlimit="10"/>
<path fill-rule="evenodd" clip-rule="evenodd" d="M36.4774 8.17359V17.9567C37.4118 17.8928 38.2939 17.7603 39.0973 17.572V7.91377C38.2853 8.04151 37.4044 8.13059 36.4774 8.17359ZM41.0795 7.48768L41.0795 16.9278C42.6013 16.2623 43.5402 15.3473 43.5402 14.3586V6.34243C43.0186 6.78724 42.1659 7.17946 41.0795 7.48768ZM34.4952 8.19415C33.3564 8.16542 32.2777 8.06757 31.2991 7.91356L31.2991 17.5861C32.2659 17.8065 33.3465 17.9467 34.4952 17.9875V8.19415ZM29.317 7.48731C28.2304 7.17894 27.3779 6.78655 26.8565 6.34155V14.3586C26.8565 15.3838 27.7953 16.2986 29.317 16.9548L29.317 7.48731ZM35.1984 18L35.1583 17.9999H35.2376L35.1984 18Z" fill="#606A70"/>
<path d="M64.6577 1.04106C64.6167 1.41063 64.5757 1.73913 64.3707 2.06764C64.1248 2.47827 64.1248 2.92996 64.3707 3.34059C64.6577 3.8744 64.6987 4.40822 64.5347 4.9831C64.4937 5.10629 64.4117 5.22948 64.3707 5.35267C64.2887 5.55798 64.2067 5.7633 64.0838 6.00968C63.7968 6.00968 63.4689 6.00968 63.1409 6.00968C63.1409 5.72224 63.1819 5.4348 63.3049 5.18842C63.3459 5.06523 63.4279 4.9831 63.4689 4.85992C63.6328 4.53141 63.6328 4.16185 63.4689 3.83334C63.3049 3.5459 63.1819 3.25846 63.1409 2.92996C63.0999 2.47827 63.1409 2.06764 63.3869 1.69807C63.5099 1.49276 63.6328 1.28744 63.5918 1C63.9608 1.04106 64.3297 1.04106 64.6577 1.04106Z" fill="#606A70"/>
<path d="M56.7051 1.04089C56.7051 1.45152 56.5821 1.82109 56.3772 2.14959C56.1722 2.51916 56.1722 2.84766 56.3772 3.21723C56.8281 3.95636 56.8281 4.73656 56.3772 5.47569C56.3362 5.55782 56.2952 5.63994 56.2542 5.72207C56.2132 5.80419 56.2132 5.88632 56.2132 6.00951C55.8852 6.00951 55.5573 6.00951 55.2294 6.00951C55.2294 5.72207 55.2704 5.47569 55.3933 5.22931C55.4343 5.14719 55.4753 5.024 55.5163 4.94187C55.7213 4.5723 55.7213 4.20274 55.5163 3.83317C55.1884 3.25829 55.1474 2.68341 55.3113 2.06747C55.3523 1.90321 55.4753 1.73896 55.5573 1.53365C55.5983 1.3694 55.6393 1.20515 55.6803 1.04089C56.0082 1.04089 56.3362 1.04089 56.7051 1.04089Z" fill="#606A70"/>
<path d="M60.6405 1.04089C60.6405 1.41046 60.5585 1.73896 60.3945 2.06747C60.1076 2.51916 60.1486 2.92979 60.3945 3.38148C60.7635 4.03849 60.7635 4.73656 60.3945 5.39356C60.3125 5.59888 60.2306 5.80419 60.1486 6.05057C59.8616 6.05057 59.5337 6.05057 59.2057 6.05057C59.1647 5.72207 59.2467 5.39356 59.4107 5.10612C59.4927 4.94187 59.5747 4.81868 59.6157 4.65443C59.6976 4.36699 59.6566 4.07955 59.4927 3.83317C59.1647 3.29935 59.1237 2.76554 59.2467 2.14959C59.2877 1.94428 59.4107 1.78003 59.4927 1.61577C59.5747 1.45152 59.6157 1.24621 59.6566 1.08196C59.9846 1.04089 60.3125 1.04089 60.6405 1.04089Z" fill="#606A70"/>
<path d="M68.3063 11.0193C68.0194 11.0193 67.6914 11.0193 67.4045 11.0193C67.4045 13.3599 67.4045 15.6594 67.4045 18C62.4033 18 57.4432 18 52.483 18C52.483 15.7004 52.483 13.3599 52.483 11.0603C52.1551 11.0603 51.8682 11.0603 51.5402 11.0603C51.6222 10.4855 51.7042 9.91058 51.8272 9.37676C51.9911 8.59656 52.647 8.10381 53.4259 8.06274C53.5079 8.06274 53.5489 8.06274 53.6308 8.06274C57.8121 8.06274 62.0344 8.06274 66.2157 8.06274C66.8306 8.06274 67.3635 8.26806 67.7324 8.76081C67.8964 9.00719 68.0194 9.29463 68.0604 9.58207C68.1424 10.0338 68.2243 10.4855 68.3063 11.0193ZM52.729 9.9927C57.5252 9.9927 62.3214 9.9927 67.1175 9.9927C67.1175 9.91058 67.1175 9.82845 67.0765 9.74632C66.9945 9.21251 66.7486 9.00719 66.1747 9.00719C61.9934 9.00719 57.8121 9.00719 53.6308 9.00719C53.5899 9.00719 53.5079 9.00719 53.4669 9.00719C53.1389 9.00719 52.852 9.25357 52.77 9.58207C52.77 9.70526 52.77 9.86951 52.729 9.9927ZM62.4033 14.8381C60.7636 14.8381 59.1239 14.8381 57.4432 14.8381C57.4432 15.5362 57.4432 16.2753 57.4432 16.9734C59.0829 16.9734 60.7226 16.9734 62.4033 16.9734C62.4033 16.2753 62.4033 15.5773 62.4033 14.8381ZM54.4507 16.9734C54.4507 15.0024 54.4507 12.9903 54.4507 11.0193C54.1228 11.0193 53.7948 11.0193 53.4669 11.0193C53.4669 12.9903 53.4669 15.0024 53.4669 16.9734C53.7948 16.9734 54.1228 16.9734 54.4507 16.9734ZM65.4368 11.0193C65.4368 13.0314 65.4368 15.0024 65.4368 16.9734C65.7648 16.9734 66.0927 16.9734 66.3797 16.9734C66.3797 15.0024 66.3797 12.9903 66.3797 11.0193C66.0517 11.0193 65.7238 11.0193 65.4368 11.0193ZM55.4755 11.0193C55.4755 13.0314 55.4755 15.0024 55.4755 16.9734C55.8035 16.9734 56.1314 16.9734 56.4184 16.9734C56.4184 15.0024 56.4184 12.9903 56.4184 11.0193C56.0904 11.0193 55.8035 11.0193 55.4755 11.0193ZM63.4282 11.0193C63.4282 13.0314 63.4282 15.0024 63.4282 16.9734C63.7561 16.9734 64.084 16.9734 64.371 16.9734C64.371 15.0024 64.371 12.9903 64.371 11.0193C64.084 11.0193 63.7561 11.0193 63.4282 11.0193ZM59.4518 11.0193C59.4518 11.9637 59.4518 12.8671 59.4518 13.8116C59.7798 13.8116 60.1077 13.8116 60.4357 13.8116C60.4357 12.8671 60.4357 11.9637 60.4357 11.0193C60.0667 11.0193 59.7798 11.0193 59.4518 11.0193ZM58.427 13.8116C58.427 12.8671 58.427 11.9637 58.427 11.0193C58.0991 11.0193 57.7711 11.0193 57.4432 11.0193C57.4432 11.9637 57.4432 12.8671 57.4432 13.8116C57.7711 13.8116 58.0991 13.8116 58.427 13.8116ZM61.4195 11.0193C61.4195 11.9637 61.4195 12.8671 61.4195 13.8116C61.7475 13.8116 62.0754 13.8116 62.4033 13.8116C62.4033 12.8671 62.4033 11.9637 62.4033 11.0193C62.0754 11.0193 61.7475 11.0193 61.4195 11.0193Z" fill="#606A70"/>
</svg>
