<svg width="263" height="109" viewBox="0 0 263 109" fill="none" xmlns="http://www.w3.org/2000/svg">
<path fill-rule="evenodd" clip-rule="evenodd" d="M42.7637 27.0513L41.318 51.2397H41.3517L36.376 27.5216L38.5613 51.6429H38.5949L30.1228 28.9326L35.9053 52.4827H35.939L24.1722 31.2842L33.4175 53.6922L18.6251 34.4758L31.1314 55.2711L13.6158 38.44L29.0806 57.1525H29.1143L9.2453 43.1097L27.3661 59.3361V59.3025L5.64804 48.3841L25.9877 61.7214L2.85765 54.1289L24.9791 64.3082L0.974969 60.2432L24.3739 67.0294V66.9958L0.0336304 66.5591L24.1722 69.7842V69.7506L0.0336304 72.9421L24.3739 72.539V72.5054L0.974969 79.258L25.0127 75.2266H24.9791L2.85765 85.3387L26.0213 77.8134L11.5314 87.2536H13.3132L27.3997 80.1987L19.6 87.1529H22.3568L29.1479 82.3824H29.1143L25.1472 87.1529H28.1729L31.165 84.2637L29.4168 87.1529H32.4426L33.4511 85.8427V85.8091L32.9132 87.1529H35.9053L35.9726 87.0521V87.0185L35.939 87.1529H49.622L49.5884 87.0185L49.6556 87.1529H52.6477L52.0762 85.8091L53.1184 87.1529H56.1441L54.3623 84.2301L57.388 87.1529H60.3801L56.4131 82.3152V82.3488L63.2041 87.1529H65.9273L58.1276 80.1651L71.9788 87.1529H73.8278L59.506 77.7462V77.7798L82.6361 85.3387L60.5146 75.1594V75.193L84.5187 79.258L61.1198 72.4718V72.5054L85.4937 72.9421L61.3215 69.717L85.4937 66.5591L61.1198 66.9622L84.5187 60.2432L60.5146 64.241V64.2746L82.6361 54.1289L59.4724 61.6878H59.506L79.8457 48.3841L58.094 59.2689V59.3025L76.2484 43.1097L56.3794 57.1189L71.9115 38.44L54.3287 55.2375L66.9023 34.4758L52.0426 53.6586L61.3551 31.2842L49.5211 52.4491L55.3709 28.9326L46.8652 51.6429L49.1513 27.5216L44.1084 51.2397L42.7637 27.0513Z" fill="#E7EAEB" stroke="#E7EAEB" stroke-width="0.0762"/>
<path fill-rule="evenodd" clip-rule="evenodd" d="M25.0792 35.6176C22.4905 34.6433 20.4734 32.2245 20.4734 28.9657C20.4734 26.9836 21.2802 25.1359 22.6923 23.8257C21.7845 18.82 24.6086 13.68 29.4833 11.8659L30.1221 11.6307C31.7022 7.59928 35.6357 4.84448 40.0734 4.84448C43.0319 4.84448 45.8223 6.05391 47.8394 8.1704C48.579 7.90163 49.3523 7.76725 50.1591 7.76725C53.0168 7.76725 55.5046 9.34622 56.6477 12.0002C56.883 12.5042 57.0175 13.0417 57.1183 13.5792C60.7828 14.5535 63.5732 17.3419 64.6154 21.0037C65.6912 24.8336 64.5818 28.8986 61.6905 31.6198L61.5897 31.7205C62.1612 33.0308 62.4638 34.4753 62.4638 35.9535C62.4638 41.8327 57.6898 46.6368 51.7729 46.6368C48.0748 46.6368 44.7128 44.7218 42.7965 41.7319C36.9132 47.1743 26.4576 44.2515 25.0456 35.6176H25.0792Z" fill="#93A2AB"/>
<path fill-rule="evenodd" clip-rule="evenodd" d="M26.7264 35.08C27.8695 43.4788 38.8629 45.6288 43.2334 38.6075C44.3765 42.2693 47.772 44.9233 51.8063 44.9233C56.7484 44.9233 60.7827 40.8919 60.7827 35.9535C60.7827 32.0564 58.2612 28.6297 54.5967 27.4203C56.9501 27.6219 59.0345 28.7305 60.5473 30.3767C65.6911 25.5054 63.3714 16.6699 56.3113 15.1245C56.0424 16.4347 55.3027 17.5769 54.2942 18.3496L54.5295 18.0473C57.0173 14.7214 54.8657 9.48054 50.1926 9.48054C47.9065 9.48054 45.923 10.9251 45.1497 13.008C45.2506 11.6306 45.8557 10.4212 46.7971 9.51413C45.1497 7.6664 42.7628 6.52417 40.1069 6.52417C35.8372 6.52417 32.2736 9.51413 31.3659 13.4784C30.8952 15.5948 31.3322 18.0809 32.3408 19.9958L32.4753 20.231C30.8279 18.484 29.8866 15.998 30.0883 13.4448C25.7178 15.0573 23.23 19.9286 24.6084 24.4639C23.1291 25.4382 22.1878 27.0844 22.1878 28.9657C22.1878 33.7026 27.5669 35.8863 30.9624 33.1315C29.9538 34.3409 28.4074 35.08 26.7264 35.0464V35.08Z" fill="#FEFEFE"/>
<path fill-rule="evenodd" clip-rule="evenodd" d="M55.9419 16.2328C59.1694 17.4423 61.4891 20.533 61.4891 24.1949C61.4891 26.2106 60.7831 28.0583 59.6064 29.5029C59.9426 29.7717 60.2452 30.074 60.5141 30.41C65.6579 25.5387 63.3382 16.7032 56.2781 15.1578C56.2109 15.5273 56.0764 15.8969 55.9419 16.2664V16.2328ZM49.4534 10.1521C52.6472 10.1521 55.2359 12.7389 55.2359 15.9305C55.2359 16.2328 55.2023 16.5352 55.1687 16.8375C56.4462 13.6124 54.2946 9.48022 50.1594 9.48022C48.7138 9.48022 47.369 10.0513 46.3941 11.0256C47.2682 10.4881 48.344 10.1521 49.4534 10.1521Z" fill="#E7EAEB"/>
<path fill-rule="evenodd" clip-rule="evenodd" d="M31.1639 38.5744C30.0881 37.4994 29.2812 36.1556 28.9114 34.6438C28.239 34.9126 27.4994 35.0805 26.7261 35.0469C27.0287 37.2642 28.0373 39.0783 29.4157 40.355C29.9536 39.7167 30.5587 39.1119 31.1639 38.5744Z" fill="#E5E8EA"/>
<path fill-rule="evenodd" clip-rule="evenodd" d="M30.7943 26.0094C29.1134 26.2446 27.5333 26.2446 25.5497 25.3039C22.6585 29.3017 24.5412 34.8449 30.9288 33.1987C27.4996 35.8863 22.1878 33.7027 22.1878 28.9993C22.1878 26.3453 23.1628 25.2703 24.3394 23.1874C23.7679 19.0552 26.1885 14.9566 30.1219 13.4784C30.0547 14.5535 30.1556 15.6285 30.4581 16.6364C25.6842 18.1817 24.642 24.4976 30.8279 26.043L30.7943 26.0094ZM39.2664 7.83445C41.8551 7.83445 44.2084 9.01027 45.7549 10.858C46.0238 10.3541 46.36 9.91734 46.7971 9.5142C42.0568 4.23977 33.4839 6.32267 31.5339 12.8737C32.8451 9.91734 35.8372 7.83445 39.3 7.83445H39.2664Z" fill="#E7EAEB"/>
<path fill-rule="evenodd" clip-rule="evenodd" d="M60.7822 35.9536C60.7822 32.2582 58.4961 28.9323 55.1006 27.6221C56.9832 29.1674 58.1935 31.5527 58.1935 34.1731C58.1935 36.4576 57.2858 38.5405 55.8066 40.0522C56.5462 40.8585 57.185 41.732 57.7565 42.6727C59.6055 41.0265 60.7822 38.6413 60.7822 35.9536Z" fill="#E7EAEB"/>
<path fill-rule="evenodd" clip-rule="evenodd" d="M44.1737 30.3098C45.7538 30.3098 47.0313 31.5864 47.0313 33.1654C47.0313 34.7444 45.7538 36.021 44.1737 36.021C42.5936 36.021 41.316 34.7444 41.316 33.1654C41.316 31.5864 42.5936 30.3098 44.1737 30.3098Z" fill="white"/>
<path fill-rule="evenodd" clip-rule="evenodd" d="M39.3334 15.5273C40.7118 15.5273 41.9893 16.0985 42.897 17.0391C41.6195 17.6438 40.6446 18.7861 40.2747 20.1635C40.9807 18.9876 42.191 18.1478 43.5694 17.879C46.3934 17.3415 48.9485 19.2564 49.4192 21.8768H34.8284L34.2233 28.9318C33.2147 28.5622 32.307 27.8567 31.6682 26.8153C29.3149 22.9183 33.1138 18.0134 37.5852 19.5923C36.8456 18.954 35.9042 18.5173 34.8957 18.3829C35.7025 16.7032 37.4171 15.5609 39.367 15.5609L39.3334 15.5273ZM49.9907 21.8432C50.0579 21.0705 49.9235 20.2642 49.5873 19.5252C52.8147 18.047 56.6137 20.3986 56.6137 24.0605C56.6137 26.0762 55.5379 27.5544 54.1259 28.3607L53.5543 21.8768H49.9907V21.8432Z" fill="#E7EAEB"/>
<path fill-rule="evenodd" clip-rule="evenodd" d="M35.8712 19.291C33.1817 19.291 30.9628 21.4747 30.9628 24.1959C30.9628 26.8835 33.1481 29.1008 35.8712 29.1008C38.5608 29.1008 40.7796 26.9171 40.7796 24.1959C40.7796 21.5083 38.5944 19.291 35.8712 19.291Z" fill="#E7EAEB"/>
<path fill-rule="evenodd" clip-rule="evenodd" d="M51.7739 18.9204C49.0171 18.9204 46.7982 21.1377 46.7982 23.8925C46.7982 26.6473 49.0171 28.8646 51.7739 28.8646C54.5306 28.8646 56.7495 26.6473 56.7495 23.8925C56.7495 21.1377 54.5306 18.9204 51.7739 18.9204Z" fill="#E7EAEB"/>
<path fill-rule="evenodd" clip-rule="evenodd" d="M44.3437 22.2802L47.3358 27.2523C49.084 26.2108 50.1598 24.2959 50.1598 22.2802C50.1598 19.0887 47.5711 16.4683 44.3437 16.4683C44.2428 16.4683 44.1756 16.4683 44.0747 16.4683L44.3437 22.2802Z" fill="#FEFEFE"/>
<path fill-rule="evenodd" clip-rule="evenodd" d="M44.4107 17.3418C41.7211 17.3418 39.5023 19.5255 39.5023 22.2467C39.5023 24.9343 41.6875 27.1516 44.4107 27.1516C47.1002 27.1516 49.3191 24.9679 49.3191 22.2467C49.3191 19.5591 47.1338 17.3418 44.4107 17.3418Z" fill="#E7EAEB"/>
<path fill-rule="evenodd" clip-rule="evenodd" d="M24.374 82.0456H30.8625L13.9857 96.7938H71.5082L54.5304 81.9448H61.019L85.4938 103.345H79.0052L75.6433 100.422H9.85049L6.48857 103.345H6.10352e-05L24.374 82.0456Z" fill="#1A2F44"/>
<path fill-rule="evenodd" clip-rule="evenodd" d="M19.1624 56.0432H66.7336L71.9446 77.2081H13.4807L19.1624 56.0432Z" fill="#1A2F44"/>
<path fill-rule="evenodd" clip-rule="evenodd" d="M21.5165 58.8994H64.1793L68.6507 75.9321L42.5622 72.6398L16.7426 75.9321L21.5165 58.8994Z" fill="#D72024"/>
<path fill-rule="evenodd" clip-rule="evenodd" d="M75.2063 76.7374L76.2485 90.8809L42.8982 101.934L9.17816 90.7465L10.6574 76.7374L42.5957 72.6388L75.2063 76.7374Z" fill="#1A2F44"/>
<path d="M72.6844 78.8882L72.2474 78.8546L69.8604 78.6195L70.4992 87.4214L68.2131 88.0597L67.5407 78.4179L64.6831 78.1491L65.2882 88.9332L63.0021 89.5715L62.3297 77.9476L59.4721 77.6788L60.0436 90.4449L57.7239 91.1168L57.1524 77.4772L54.2947 77.2085L54.7318 91.9903L52.4457 92.6622L51.975 77.0069L49.151 76.7382L49.3863 93.5357L47.0666 94.2076L46.8313 76.5366L44.915 76.335L44.0073 76.2678V95.0811L42.8306 95.417L41.6875 95.0811V76.2678L40.7798 76.335L38.8635 76.5366L38.5946 94.2076L36.2748 93.5357L36.5438 76.7382L33.6862 77.0069L33.2491 92.6622L30.9294 91.9903L31.3664 77.2085L28.5424 77.4772L27.9373 91.1168L25.6512 90.4449L26.1891 77.6788L23.3314 77.9476L22.659 89.5715L20.3729 88.9332L21.0117 78.1491L18.1541 78.4179L17.4481 88.0597L15.162 87.4214L15.8007 78.6195L13.4474 78.8546L12.9767 78.8882L12.1362 89.2691L42.8306 98.1382L73.6594 89.2019L72.6844 78.8882Z" fill="#FEFEFE"/>
<path fill-rule="evenodd" clip-rule="evenodd" d="M61.7571 61.889C62.3958 61.889 62.9337 62.4266 62.9337 63.0649C62.9337 63.7032 62.3958 64.2407 61.7571 64.2407C61.1183 64.2407 60.5804 63.7032 60.5804 63.0649C60.5804 62.4266 61.1183 61.889 61.7571 61.889Z" fill="#FEFEFE"/>
<path d="M62.4631 63.468C62.4631 63.7032 62.3958 63.9047 62.295 64.1063C62.6984 63.9047 62.9337 63.5352 62.9337 63.0649C62.9337 62.4266 62.3958 61.889 61.757 61.889C61.3536 61.889 60.9838 62.0906 60.7821 62.4266C60.9502 62.3594 61.1183 62.2922 61.2864 62.2922C61.9251 62.2922 62.4631 62.8297 62.4631 63.468Z" fill="#E7EAEB"/>
<path fill-rule="evenodd" clip-rule="evenodd" d="M23.6685 61.889C24.3073 61.889 24.8452 62.4266 24.8452 63.0649C24.8452 63.7032 24.3073 64.2407 23.6685 64.2407C23.0297 64.2407 22.4918 63.7032 22.4918 63.0649C22.4918 62.4266 23.0297 61.889 23.6685 61.889Z" fill="#FEFEFE"/>
<path d="M24.3393 63.468C24.3393 63.7032 24.2721 63.9047 24.1712 64.1063C24.5746 63.9047 24.81 63.5352 24.81 63.0649C24.81 62.4266 24.2721 61.889 23.6333 61.889C23.2299 61.889 22.86 62.0906 22.6583 62.4266C22.8264 62.3594 22.9945 62.2922 23.1626 62.2922C23.8014 62.2922 24.3393 62.8297 24.3393 63.468Z" fill="#E7EAEB"/>
<path fill-rule="evenodd" clip-rule="evenodd" d="M35.2996 70.153L18.6917 72.4038L18.1874 73.7141L37.6866 71.2616C36.8797 70.9257 36.0729 70.5561 35.3332 70.1194L35.2996 70.153Z" fill="#FEFEFE"/>
<path fill-rule="evenodd" clip-rule="evenodd" d="M50.5295 70.153L67.1374 72.4038L67.6417 73.7141L48.1425 71.2616C48.9494 70.9257 49.7563 70.5561 50.4959 70.1194L50.5295 70.153Z" fill="#FEFEFE"/>
<path fill-rule="evenodd" clip-rule="evenodd" d="M33.1475 66.458L16.5396 68.7089L16.0353 70.0191L35.5345 67.5667C34.7276 67.2307 33.9208 66.8612 33.1811 66.4244L33.1475 66.458Z" fill="#1A2F44"/>
<path fill-rule="evenodd" clip-rule="evenodd" d="M52.2774 66.458L68.8853 68.7089L69.3896 70.0191L49.8905 67.5667C50.6973 67.2307 51.5042 66.8612 52.2438 66.4244L52.2774 66.458Z" fill="#1A2F44"/>
<path fill-rule="evenodd" clip-rule="evenodd" d="M32.3742 21.3059H53.0164L53.9577 31.922L52.2095 33.0978L51.9069 36.9612L33.5172 36.9948L33.2146 33.0642L31.4328 32.0227L32.3742 21.3059Z" fill="#1A2F44" stroke="#2B2A29" stroke-width="0.0762"/>
<path fill-rule="evenodd" clip-rule="evenodd" d="M34.1567 23.4563H51.1008L51.7732 30.8472L50.1258 31.8887L49.8233 35.9537H35.5351L35.2325 31.8887L33.6524 30.8472L34.1567 23.4563Z" fill="#D72024"/>
<path fill-rule="evenodd" clip-rule="evenodd" d="M42.6967 34.0723C52.8833 34.0723 61.1537 42.3367 61.1537 52.516C61.1537 62.6953 52.8833 70.9597 42.6967 70.9597C32.5101 70.9597 24.2397 62.6953 24.2397 52.516C24.2397 42.3367 32.5101 34.0723 42.6967 34.0723Z" fill="#1A2F44"/>
<path fill-rule="evenodd" clip-rule="evenodd" d="M42.6962 36.7932C51.37 36.7932 58.3964 43.8146 58.3964 52.4821C58.3964 61.1496 51.37 68.171 42.6962 68.171C34.0224 68.171 26.996 61.1496 26.996 52.4821C26.996 43.8146 34.0224 36.7932 42.6962 36.7932Z" fill="#D72024"/>
<path fill-rule="evenodd" clip-rule="evenodd" d="M42.6625 42.6051C48.1424 42.6051 52.5465 47.0397 52.5465 52.4821C52.5465 57.9581 48.1088 62.359 42.6625 62.359C37.1826 62.359 32.7784 57.9245 32.7784 52.4821C32.7784 47.0061 37.2162 42.6051 42.6625 42.6051Z" fill="#1A2F44"/>
<path fill-rule="evenodd" clip-rule="evenodd" d="M42.7287 45.4271C46.6286 45.4271 49.8224 48.5851 49.8224 52.5157C49.8224 56.4127 46.6622 59.6042 42.7287 59.6042C38.8289 59.6042 35.6351 56.4463 35.6351 52.5157C35.6351 48.6187 38.7953 45.4271 42.7287 45.4271Z" fill="#FEFEFE"/>
<path fill-rule="evenodd" clip-rule="evenodd" d="M42.7298 50.3661C43.9064 50.3661 44.8814 51.3068 44.8814 52.5162C44.8814 53.692 43.9401 54.6663 42.7298 54.6663C41.5531 54.6663 40.5781 53.7256 40.5781 52.5162C40.5781 51.3403 41.5195 50.3661 42.7298 50.3661Z" fill="#1A2F44"/>
<path fill-rule="evenodd" clip-rule="evenodd" d="M42.695 26.3787C40.2408 26.3787 38.2236 28.3944 38.2236 30.8468C38.2236 33.2992 40.2408 35.315 42.695 35.315C45.1492 35.315 47.1663 33.2992 47.1663 30.8468C47.1663 28.3944 45.1492 26.3787 42.695 26.3787Z" fill="#1A2F44"/>
<path fill-rule="evenodd" clip-rule="evenodd" d="M42.6964 28.4954C41.3852 28.4954 40.343 29.5368 40.343 30.847C40.343 32.1572 41.3852 33.1987 42.6964 33.1987C44.0075 33.1987 45.0497 32.1572 45.0497 30.847C45.0497 29.5368 44.0075 28.4954 42.6964 28.4954Z" fill="#FEFEFE"/>
<path fill-rule="evenodd" clip-rule="evenodd" d="M42.696 29.6045C43.3683 29.6045 43.9062 30.142 43.9062 30.8139C43.9062 31.4858 43.3683 32.0233 42.696 32.0233C42.0236 32.0233 41.4857 31.4858 41.4857 30.8139C41.4857 30.142 42.0236 29.6045 42.696 29.6045Z" fill="#1A2F44" stroke="#1A2F44" stroke-width="0.2"/>
<path d="M104.487 65.9329C105.12 65.9329 105.655 66.0782 106.142 66.3689C106.628 66.6596 107.018 67.0471 107.31 67.5316C107.602 68.016 107.747 68.6458 107.747 69.324C107.747 70.0022 107.602 70.5836 107.31 71.1165C107.018 71.6009 106.628 72.0369 106.142 72.2791C105.655 72.5698 105.071 72.7151 104.487 72.7151C103.66 72.7151 102.979 72.4729 102.492 71.94V74.992H100.594V66.0782H102.395V66.8533C102.881 66.272 103.563 65.9813 104.487 65.9813V65.9329ZM104.147 71.1165C104.633 71.1165 105.023 70.9711 105.363 70.632C105.655 70.2929 105.85 69.8569 105.85 69.324C105.85 68.7911 105.704 68.3551 105.363 68.016C105.071 67.6769 104.633 67.5316 104.147 67.5316C103.66 67.5316 103.271 67.6769 102.93 68.016C102.638 68.3551 102.444 68.7911 102.444 69.324C102.444 69.8569 102.59 70.3413 102.93 70.632C103.222 70.9711 103.66 71.1165 104.147 71.1165ZM118.355 66.0298L115.387 73.0058C115.095 73.7809 114.706 74.3138 114.268 74.6045C113.83 74.8951 113.295 75.0889 112.662 75.0889C112.322 75.0889 111.981 75.0405 111.64 74.9436C111.3 74.8467 111.056 74.7013 110.813 74.5076L111.494 73.1511C111.64 73.2965 111.835 73.3933 111.981 73.4418C112.176 73.5387 112.37 73.5387 112.565 73.5387C112.808 73.5387 113.051 73.4902 113.197 73.3449C113.343 73.1996 113.489 73.0058 113.635 72.7151L113.684 72.6667L110.813 66.0782H112.759L114.609 70.5351L116.458 66.0782H118.307L118.355 66.0298ZM125.119 72.6667C124.438 72.6667 123.805 72.5213 123.221 72.2307C122.686 71.94 122.248 71.5525 121.907 71.0196C121.616 70.4867 121.421 69.9053 121.421 69.2756C121.421 68.6458 121.567 68.0645 121.907 67.5316C122.199 66.9987 122.637 66.6111 123.221 66.3205C123.757 66.0298 124.389 65.8845 125.119 65.8845C125.8 65.8845 126.433 66.0298 126.919 66.3205C127.455 66.6111 127.795 66.9987 128.039 67.58L126.579 68.3551C126.238 67.7738 125.752 67.4347 125.119 67.4347C124.632 67.4347 124.195 67.58 123.903 67.9191C123.562 68.2582 123.416 68.6942 123.416 69.2271C123.416 69.8085 123.562 70.2445 123.903 70.5351C124.243 70.8742 124.632 71.0196 125.119 71.0196C125.752 71.0196 126.287 70.7289 126.579 70.0991L128.039 70.9227C127.795 71.4556 127.406 71.8431 126.919 72.1338C126.384 72.4245 125.8 72.5698 125.119 72.5698V72.6667ZM135.143 72.6667C134.462 72.6667 133.829 72.5213 133.245 72.2307C132.71 71.94 132.272 71.5525 131.931 71.0196C131.639 70.4867 131.445 69.9053 131.445 69.2756C131.445 68.6458 131.591 68.0645 131.931 67.5316C132.223 66.9987 132.661 66.6111 133.245 66.3205C133.781 66.0298 134.413 65.8845 135.143 65.8845C135.824 65.8845 136.457 66.0298 136.943 66.3205C137.479 66.6111 137.819 66.9987 138.063 67.58L136.603 68.3551C136.262 67.7738 135.776 67.4347 135.143 67.4347C134.656 67.4347 134.218 67.58 133.926 67.9191C133.586 68.2582 133.44 68.6942 133.44 69.2271C133.44 69.8085 133.586 70.2445 133.926 70.5351C134.267 70.8742 134.656 71.0196 135.143 71.0196C135.776 71.0196 136.311 70.7289 136.603 70.0991L138.063 70.9227C137.819 71.4556 137.43 71.8431 136.943 72.1338C136.408 72.4245 135.824 72.5698 135.143 72.5698V72.6667ZM145.021 70.0991H144.048V72.5698H142.15V66.0298H144.048V68.5973H145.07L146.87 66.0298H148.914L146.627 69.1787L149.108 72.5698H146.87L145.118 70.0991H145.021ZM152.855 66.0298H154.753V69.9053L157.964 66.0298H159.716V72.5698H157.818V68.6942L154.607 72.5698H152.855V66.0298ZM170.811 69.324C170.811 69.3725 170.811 69.5178 170.762 69.8569H165.799C165.896 70.2445 166.091 70.5836 166.431 70.8258C166.772 71.068 167.161 71.1649 167.696 71.1649C168.037 71.1649 168.329 71.1165 168.621 71.0196C168.864 70.9227 169.156 70.7773 169.351 70.5351L170.373 71.6493C169.74 72.376 168.864 72.7151 167.648 72.7151C166.918 72.7151 166.237 72.5698 165.653 72.2791C165.069 71.9885 164.631 71.6009 164.339 71.068C164.047 70.5351 163.852 69.9538 163.852 69.324C163.852 68.6942 163.998 68.1129 164.29 67.58C164.582 67.0471 165.02 66.6596 165.555 66.3689C166.091 66.0782 166.675 65.9329 167.356 65.9329C167.988 65.9329 168.572 66.0782 169.108 66.3689C169.643 66.6596 170.032 67.0471 170.324 67.58C170.616 68.1129 170.762 68.6942 170.762 69.3725L170.811 69.324ZM167.404 67.3378C166.967 67.3378 166.626 67.4831 166.334 67.7253C166.042 67.9676 165.847 68.3067 165.799 68.7427H169.059C169.01 68.3067 168.816 68.016 168.524 67.7253C168.232 67.4831 167.891 67.3378 167.453 67.3378H167.404ZM182.44 66.4658C183.073 66.4658 183.608 66.6111 184.095 66.8533C184.581 67.0956 184.922 67.4831 185.214 67.9191C185.457 68.4036 185.603 68.9365 185.603 69.5178C185.603 70.1476 185.457 70.6805 185.165 71.1649C184.873 71.6493 184.435 72.0369 183.9 72.2791C183.365 72.5213 182.732 72.6667 182.051 72.6667C180.883 72.6667 180.007 72.2791 179.326 71.5525C178.645 70.8258 178.353 69.76 178.353 68.3067C178.353 66.9987 178.645 65.9329 179.229 65.1578C179.813 64.3827 180.689 63.8498 181.856 63.6076L184.971 62.9778L185.214 64.6249L182.44 65.1578C181.71 65.3031 181.127 65.5453 180.786 65.8845C180.445 66.2236 180.202 66.708 180.153 67.3378C180.445 67.0471 180.786 66.8049 181.175 66.6111C181.564 66.4658 182.002 66.3689 182.489 66.3689L182.44 66.4658ZM182.002 71.2618C182.489 71.2618 182.878 71.1165 183.17 70.7773C183.462 70.4382 183.608 70.0507 183.608 69.5662C183.608 69.0818 183.462 68.6942 183.17 68.4036C182.878 68.1129 182.489 67.9676 182.002 67.9676C181.516 67.9676 181.127 68.1129 180.786 68.4036C180.494 68.6942 180.348 69.0818 180.348 69.5662C180.348 70.0507 180.494 70.4867 180.835 70.7773C181.127 71.068 181.564 71.2618 182.002 71.2618ZM192.221 65.9329C193.243 65.9329 194.021 66.1751 194.557 66.6596C195.092 67.144 195.384 67.8707 195.384 68.8396V72.5698H193.583V71.7462C193.243 72.376 192.562 72.6667 191.588 72.6667C191.102 72.6667 190.664 72.5698 190.275 72.4245C189.885 72.2307 189.642 72.0369 189.447 71.6978C189.253 71.4071 189.155 71.068 189.155 70.6805C189.155 70.0507 189.399 69.6147 189.837 69.2271C190.275 68.888 191.004 68.6942 191.978 68.6942H193.486C193.486 68.2582 193.34 67.9676 193.097 67.7253C192.854 67.4831 192.464 67.3862 191.978 67.3862C191.637 67.3862 191.296 67.4347 190.956 67.5316C190.615 67.6285 190.323 67.7738 190.08 67.9676L189.399 66.6596C189.739 66.4173 190.177 66.2236 190.713 66.0782C191.199 65.9329 191.734 65.8845 192.27 65.8845L192.221 65.9329ZM192.075 71.4071C192.416 71.4071 192.708 71.3102 192.951 71.1649C193.194 71.0196 193.389 70.7773 193.486 70.4867V69.8085H192.172C191.394 69.8085 191.004 70.0507 191.004 70.5836C191.004 70.8258 191.102 71.0196 191.296 71.1649C191.491 71.3102 191.734 71.3587 192.075 71.3587V71.4071ZM199.909 66.0298H201.807V68.5973H204.678V66.0298H206.576V72.5698H204.678V70.0991H201.807V72.5698H199.909V66.0298ZM211.296 66.0298H213.193V69.9053L216.405 66.0298H218.157V72.5698H216.259V68.6942L213.047 72.5698H211.296V66.0298Z" fill="white"/>
<path d="M117.619 36.7671V55.4218H113.327V40.2859H104.887V55.4218H100.594V36.7671H117.619ZM137.924 51.4209H129.242L127.603 55.4218H123.166L131.509 36.7671H135.753L144.097 55.4218H139.563L137.924 51.4209ZM136.573 48.1431L133.631 41.009L130.689 48.1431H136.621H136.573ZM157.698 36.7671C159.337 36.7671 160.784 37.0563 161.99 37.5865C163.196 38.1168 164.16 38.9362 164.787 39.9485C165.462 40.9608 165.752 42.1659 165.752 43.5638C165.752 44.9135 165.414 46.1185 164.787 47.1308C164.112 48.1431 163.196 48.9143 161.99 49.4928C160.784 50.023 159.337 50.3122 157.698 50.3122H153.936V55.47H149.595V36.8153H157.698V36.7671ZM157.456 46.7452C158.759 46.7452 159.723 46.456 160.398 45.9257C161.074 45.3473 161.411 44.576 161.411 43.5156C161.411 42.4551 161.074 41.6838 160.398 41.1054C159.723 40.5269 158.759 40.2859 157.456 40.2859H153.936V46.7452H157.456ZM180.847 55.711C178.918 55.711 177.182 55.2772 175.59 54.4577C174.047 53.6383 172.793 52.4814 171.925 50.9871C171.057 49.541 170.623 47.8539 170.623 46.0221C170.623 44.1904 171.057 42.5515 171.925 41.0572C172.793 39.6111 174.047 38.4542 175.59 37.5865C177.134 36.7671 178.87 36.3333 180.847 36.3333C182.777 36.3333 184.513 36.7671 186.056 37.5865C187.599 38.406 188.805 39.5629 189.722 41.0572C190.59 42.5033 191.072 44.1904 191.072 46.0221C191.072 47.8539 190.638 49.4928 189.722 50.9871C188.853 52.4332 187.599 53.5901 186.056 54.4577C184.513 55.2772 182.777 55.711 180.847 55.711ZM180.847 52.0476C181.957 52.0476 182.969 51.8065 183.838 51.2763C184.706 50.7461 185.429 50.0712 185.911 49.1554C186.442 48.2395 186.683 47.2272 186.683 46.0703C186.683 44.9135 186.442 43.9012 185.911 42.9853C185.381 42.0695 184.706 41.3946 183.838 40.8644C182.969 40.3341 181.957 40.0931 180.847 40.0931C179.738 40.0931 178.725 40.3341 177.857 40.8644C176.989 41.3946 176.266 42.0695 175.783 42.9853C175.253 43.9012 175.012 44.9135 175.012 46.0703C175.012 47.2272 175.253 48.2395 175.783 49.1554C176.314 50.0712 176.989 50.7461 177.857 51.2763C178.725 51.8065 179.738 52.0476 180.847 52.0476ZM210.363 45.6847C211.521 46.0221 212.389 46.5524 212.968 47.3236C213.595 48.0949 213.884 49.0108 213.884 50.1676C213.884 51.8065 213.257 53.108 212.003 54.0239C210.749 54.9398 208.965 55.4218 206.65 55.4218H197.438V36.7671H206.119C208.29 36.7671 209.978 37.2009 211.183 38.0204C212.389 38.8398 213.016 40.0449 213.016 41.5874C213.016 42.5033 212.775 43.3227 212.341 44.0458C211.859 44.7688 211.232 45.2991 210.412 45.7329L210.363 45.6847ZM201.731 44.4796H205.782C206.746 44.4796 207.422 44.2868 207.904 43.9012C208.386 43.5156 208.627 42.9371 208.627 42.2141C208.627 41.491 208.386 40.9126 207.904 40.5269C207.422 40.1413 206.698 39.9485 205.782 39.9485H201.731V44.4796ZM206.457 52.1922C208.483 52.1922 209.495 51.3727 209.495 49.782C209.495 48.2395 208.483 47.4682 206.457 47.4682H201.731V52.1922H206.457ZM229.221 55.711C227.292 55.711 225.556 55.2772 223.964 54.4577C222.421 53.6383 221.167 52.4814 220.299 50.9871C219.431 49.541 218.996 47.8539 218.996 46.0221C218.996 44.1904 219.431 42.5515 220.299 41.0572C221.167 39.6111 222.421 38.4542 223.964 37.5865C225.507 36.7671 227.244 36.3333 229.221 36.3333C231.15 36.3333 232.886 36.7671 234.43 37.5865C235.973 38.406 237.179 39.5629 238.095 41.0572C238.963 42.5033 239.446 44.1904 239.446 46.0221C239.446 47.8539 239.011 49.4928 238.095 50.9871C237.227 52.4332 235.973 53.5901 234.43 54.4577C232.886 55.2772 231.15 55.711 229.221 55.711ZM229.221 52.0476C230.33 52.0476 231.343 51.8065 232.211 51.2763C233.079 50.7461 233.803 50.0712 234.285 49.1554C234.816 48.2395 235.057 47.2272 235.057 46.0703C235.057 44.9135 234.816 43.9012 234.285 42.9853C233.755 42.0695 233.079 41.3946 232.211 40.8644C231.343 40.3341 230.33 40.0931 229.221 40.0931C228.112 40.0931 227.099 40.3341 226.231 40.8644C225.363 41.3946 224.639 42.0695 224.157 42.9853C223.626 43.9012 223.385 44.9135 223.385 46.0703C223.385 47.2272 223.626 48.2395 224.157 49.1554C224.687 50.0712 225.363 50.7461 226.231 51.2763C227.099 51.8065 228.112 52.0476 229.221 52.0476ZM255.892 45.6847C256.953 46.0703 257.821 46.6488 258.448 47.42C259.075 48.1913 259.364 49.1072 259.364 50.1676C259.364 51.3245 258.978 52.2886 258.255 53.108C257.531 53.9275 256.519 54.6023 255.216 55.0362C253.962 55.47 252.564 55.711 251.02 55.711C249.718 55.711 248.464 55.5664 247.21 55.229C245.956 54.8916 244.751 54.4095 243.593 53.7829L244.944 50.6979C245.764 51.1799 246.68 51.5655 247.644 51.8548C248.609 52.0958 249.574 52.2404 250.538 52.2404C251.84 52.2404 252.901 51.9994 253.721 51.5655C254.589 51.0835 254.975 50.4569 254.975 49.6374C254.975 48.9625 254.686 48.4323 254.107 48.0467C253.528 47.7093 252.757 47.5164 251.744 47.5164H247.162V44.2868H251.406C252.274 44.2868 252.95 44.094 253.432 43.7566C253.914 43.4192 254.155 42.8889 254.155 42.3105C254.155 41.5874 253.818 41.009 253.094 40.6234C252.371 40.2377 251.503 39.9967 250.393 39.9967C249.574 39.9967 248.754 40.0931 247.837 40.3341C246.969 40.5752 246.149 40.9126 245.378 41.3464L244.076 37.9722C246.053 36.9599 248.175 36.4297 250.49 36.4297C251.937 36.4297 253.287 36.6225 254.541 37.0563C255.747 37.4901 256.76 38.1168 257.483 38.9362C258.207 39.7557 258.592 40.7198 258.592 41.7802C258.592 42.6479 258.351 43.4674 257.869 44.1422C257.387 44.8171 256.711 45.3473 255.892 45.7329V45.6847Z" fill="#D72024"/>
</svg>
