<svg width="166" height="166" viewBox="0 0 166 166" fill="none" xmlns="http://www.w3.org/2000/svg">
<path fill-rule="evenodd" clip-rule="evenodd" d="M82.9493 31.0527L81.2883 58.865H81.3269L75.61 31.5935L78.1208 59.3286H78.1594L68.4251 33.2159L75.0692 60.2943H75.1078L61.5879 35.9199L72.2107 61.6849L55.2143 39.5896L69.584 63.5004L49.4587 44.1477L67.2277 65.6636H67.2663L44.437 49.517L65.2576 68.1744V68.1358L40.3038 55.5816L63.6739 70.917L37.0977 62.187L62.515 73.8914L34.9345 69.2174L61.8197 77.0203V76.9816L33.8529 76.4795L61.5879 80.1878V80.1492L33.8529 83.8188L61.8197 83.3553V83.3167L34.9345 91.0809L62.5536 86.4455H62.515L37.0977 98.0726L63.7125 89.4199L47.0637 100.274H49.111L65.2962 92.1625L56.3345 100.159H59.502L67.3049 94.6733H67.2663L62.7082 100.159H66.1847L69.6226 96.8365L67.6139 100.159H71.0905L72.2493 98.652V98.6134L71.6313 100.159H75.0692L75.1464 100.043V100.004L75.1078 100.159H90.8295L90.7908 100.004L90.8681 100.159H94.306L93.6493 98.6134L94.8468 100.159H98.3233L96.2761 96.7979L99.7526 100.159H103.19L98.6324 94.5961V94.6347L106.435 100.159H109.564L100.602 92.1239L116.517 100.159H118.642L102.186 89.3427V89.3813L128.762 98.0726L103.345 86.3683V86.4069L130.926 91.0809L104.04 83.278V83.3167L132.046 83.8188L104.272 80.1105L132.046 76.4795L104.04 76.943L130.926 69.2174L103.345 73.8141V73.8528L128.762 62.187L102.148 70.8784H102.186L125.556 55.5816L100.564 68.0972V68.1358L121.423 49.517L98.5937 65.625L116.44 44.1477L96.2374 63.4618L110.684 39.5896L93.6107 61.6463L104.311 35.9199L90.7136 60.2556L97.4349 33.2159L87.662 59.3286L90.2887 31.5935L84.4945 58.865L82.9493 31.0527Z" fill="#E7EAEB" stroke="#E7EAEB" stroke-width="0.0762"/>
<path fill-rule="evenodd" clip-rule="evenodd" d="M62.6301 40.9029C59.6557 39.7827 57.338 37.0015 57.338 33.2546C57.338 30.9755 58.2651 28.851 59.8875 27.3444C58.8445 21.5889 62.0893 15.6787 67.6904 13.5928L68.4243 13.3224C70.2398 8.68704 74.7593 5.51953 79.8582 5.51953C83.2575 5.51953 86.4637 6.91015 88.7813 9.34372C89.6312 9.0347 90.5196 8.88018 91.4467 8.88018C94.7301 8.88018 97.5886 10.6957 98.9019 13.7473C99.1723 14.3268 99.3268 14.9448 99.4427 15.5629C103.653 16.6831 106.859 19.8892 108.057 24.0997C109.293 28.5033 108.018 33.1773 104.696 36.3062L104.58 36.4221C105.237 37.9286 105.585 39.5896 105.585 41.2892C105.585 48.0492 100.099 53.573 93.3008 53.573C89.0517 53.573 85.1889 51.3712 82.9871 47.9333C76.2272 54.191 64.2138 50.8304 62.5914 40.9029H62.6301Z" fill="#93A2AB"/>
<path fill-rule="evenodd" clip-rule="evenodd" d="M64.5228 40.2851C65.8362 49.9422 78.4676 52.4144 83.4893 44.3411C84.8026 48.5515 88.7041 51.6032 93.3395 51.6032C99.0178 51.6032 103.653 46.9678 103.653 41.2895C103.653 36.8086 100.756 32.8685 96.5456 31.4779C99.2496 31.7097 101.645 32.9844 103.383 34.8772C109.293 29.2761 106.628 19.1169 98.5157 17.34C98.2066 18.8465 97.3568 20.1598 96.198 21.0483L96.4684 20.7006C99.3268 16.8764 96.8546 10.8505 91.4853 10.8505C88.8586 10.8505 86.5795 12.5115 85.6911 14.9064C85.807 13.3227 86.5023 11.932 87.5839 10.8891C85.6911 8.76453 82.9485 7.45117 79.8969 7.45117C74.9911 7.45117 70.8965 10.8891 69.8535 15.4472C69.3127 17.8808 69.8149 20.7393 70.9738 22.9411L71.1283 23.2115C69.2355 21.2028 68.1539 18.3443 68.3857 15.4086C63.364 17.2627 60.5055 22.8638 62.0893 28.0786C60.3896 29.1988 59.308 31.0916 59.308 33.2548C59.308 38.7014 65.4886 41.2122 69.39 38.0447C68.2312 39.4353 66.4543 40.2851 64.5228 40.2465V40.2851Z" fill="#FEFEFE"/>
<path fill-rule="evenodd" clip-rule="evenodd" d="M98.0911 18.6139C101.799 20.0045 104.465 23.5583 104.465 27.7688C104.465 30.0864 103.654 32.211 102.302 33.872C102.688 34.181 103.035 34.5287 103.345 34.915C109.255 29.3139 106.589 19.1547 98.4774 17.3778C98.4001 17.8027 98.2456 18.2276 98.0911 18.6525V18.6139ZM90.6359 11.6222C94.3055 11.6222 97.2799 14.5965 97.2799 18.2662C97.2799 18.6139 97.2413 18.9615 97.2026 19.3092C98.6705 15.6009 96.1983 10.8496 91.4471 10.8496C89.786 10.8496 88.2409 11.5063 87.1207 12.6265C88.125 12.0085 89.3611 11.6222 90.6359 11.6222Z" fill="#E7EAEB"/>
<path fill-rule="evenodd" clip-rule="evenodd" d="M69.6215 44.3027C68.3854 43.0666 67.4583 41.5215 67.0334 39.7832C66.2608 40.0922 65.411 40.2854 64.5226 40.2467C64.8702 42.7962 66.0291 44.8821 67.6128 46.35C68.2309 45.6161 68.9262 44.9207 69.6215 44.3027Z" fill="#E5E8EA"/>
<path fill-rule="evenodd" clip-rule="evenodd" d="M69.1969 29.8561C67.2654 30.1265 65.4499 30.1265 63.1709 29.0449C59.8488 33.6417 62.012 40.0153 69.3514 38.1225C65.4113 41.2128 59.308 38.702 59.308 33.294C59.308 30.2424 60.4283 29.0063 61.7802 26.6113C61.1236 21.8601 63.9048 17.1474 68.4243 15.4478C68.347 16.6839 68.4629 17.92 68.8106 19.0789C63.3254 20.8558 62.1279 28.1178 69.2355 29.8947L69.1969 29.8561ZM78.9312 8.95827C81.9055 8.95827 84.6095 10.3103 86.3864 12.4348C86.6954 11.8554 87.0817 11.3532 87.5839 10.8897C82.1373 4.82506 72.2871 7.22001 70.0467 14.7525C71.5532 11.3532 74.9911 8.95827 78.9698 8.95827H78.9312Z" fill="#E7EAEB"/>
<path fill-rule="evenodd" clip-rule="evenodd" d="M103.653 41.2888C103.653 37.0397 101.026 33.2155 97.1245 31.709C99.2876 33.4859 100.678 36.2285 100.678 39.2415C100.678 41.8682 99.6353 44.2631 97.9356 46.0014C98.7855 46.9285 99.5194 47.9328 100.176 49.0144C102.301 47.1216 103.653 44.379 103.653 41.2888Z" fill="#E7EAEB"/>
<path fill-rule="evenodd" clip-rule="evenodd" d="M84.5696 34.8008C86.3851 34.8008 87.853 36.2687 87.853 38.0842C87.853 39.8997 86.3851 41.3676 84.5696 41.3676C82.7541 41.3676 81.2862 39.8997 81.2862 38.0842C81.2862 36.2687 82.7541 34.8008 84.5696 34.8008Z" fill="white"/>
<path fill-rule="evenodd" clip-rule="evenodd" d="M79.0082 17.8027C80.5919 17.8027 82.0598 18.4594 83.1028 19.541C81.6349 20.2363 80.5147 21.5497 80.0898 23.1334C80.9009 21.7814 82.2916 20.8157 83.8753 20.5067C87.1201 19.8887 90.0558 22.0905 90.5966 25.1035H73.832L73.1367 33.2154C71.9778 32.7905 70.9349 31.9793 70.2009 30.7818C67.497 26.3009 71.862 20.6612 76.9995 22.4767C76.1497 21.7428 75.0681 21.2406 73.9092 21.0861C74.8363 19.1547 76.8064 17.8414 79.0468 17.8414L79.0082 17.8027ZM91.2533 25.0648C91.3306 24.1764 91.176 23.2493 90.7898 22.3995C94.4981 20.6998 98.8631 23.4038 98.8631 27.6143C98.8631 29.932 97.6269 31.6316 96.0046 32.5587L95.3479 25.1035H91.2533V25.0648Z" fill="#E7EAEB"/>
<path fill-rule="evenodd" clip-rule="evenodd" d="M75.0303 22.1309C71.9401 22.1309 69.3906 24.6417 69.3906 27.7706C69.3906 30.8608 71.9014 33.4103 75.0303 33.4103C78.1206 33.4103 80.67 30.8995 80.67 27.7706C80.67 24.6803 78.1592 22.1309 75.0303 22.1309Z" fill="#E7EAEB"/>
<path fill-rule="evenodd" clip-rule="evenodd" d="M93.302 21.7051C90.1345 21.7051 87.585 24.2545 87.585 27.422C87.585 30.5896 90.1345 33.139 93.302 33.139C96.4695 33.139 99.019 30.5896 99.019 27.422C99.019 24.2545 96.4695 21.7051 93.302 21.7051Z" fill="#E7EAEB"/>
<path fill-rule="evenodd" clip-rule="evenodd" d="M84.7648 25.5674L88.2027 31.2844C90.2114 30.0869 91.4475 27.8851 91.4475 25.5674C91.4475 21.8978 88.4731 18.8848 84.7648 18.8848C84.649 18.8848 84.5717 18.8848 84.4558 18.8848L84.7648 25.5674Z" fill="#FEFEFE"/>
<path fill-rule="evenodd" clip-rule="evenodd" d="M84.8419 19.8887C81.7517 19.8887 79.2022 22.3995 79.2022 25.5284C79.2022 28.6186 81.713 31.1681 84.8419 31.1681C87.9322 31.1681 90.4816 28.6573 90.4816 25.5284C90.4816 22.4381 87.9708 19.8887 84.8419 19.8887Z" fill="#E7EAEB"/>
<path fill-rule="evenodd" clip-rule="evenodd" d="M61.8199 94.2878H69.2752L49.8838 111.246H115.977L96.4694 94.1719H103.925L132.046 118.778H124.591L120.728 115.417H45.1325L41.2697 118.778H33.8145L61.8199 94.2878Z" fill="#1A2F44"/>
<path fill-rule="evenodd" clip-rule="evenodd" d="M55.8318 64.3887H110.491L116.478 88.7244H49.3036L55.8318 64.3887Z" fill="#1A2F44"/>
<path fill-rule="evenodd" clip-rule="evenodd" d="M58.5367 67.6719H107.556L112.693 87.2564L82.718 83.4708L53.0515 87.2564L58.5367 67.6719Z" fill="#D72024"/>
<path fill-rule="evenodd" clip-rule="evenodd" d="M120.226 88.1833L121.423 104.446L83.1041 117.154L44.36 104.291L46.0597 88.1833L82.7565 83.4707L120.226 88.1833Z" fill="#1A2F44"/>
<path d="M117.328 90.6556L116.826 90.6169L114.083 90.3465L114.817 100.467L112.191 101.201L111.418 90.1148L108.135 89.8058L108.83 102.205L106.203 102.939L105.431 89.574L102.147 89.265L102.804 103.944L100.139 104.716L99.482 89.0332L96.1986 88.7242L96.7008 105.721L94.0741 106.493L93.5333 88.4924L90.2885 88.1834L90.5589 107.497L87.8936 108.27L87.6232 87.9516L85.4214 87.7198L84.3784 87.6426V109.274L83.0264 109.661L81.7131 109.274V87.6426L80.6701 87.7198L78.4683 87.9516L78.1593 108.27L75.4939 107.497L75.803 88.1834L72.5196 88.4924L72.0174 106.493L69.3521 105.721L69.8542 88.7242L66.6095 89.0332L65.9142 104.716L63.2874 103.944L63.9055 89.265L60.6221 89.574L59.8495 102.939L57.2228 102.205L57.9567 89.8058L54.6734 90.1148L53.8622 101.201L51.2354 100.467L51.9694 90.3465L49.2654 90.6169L48.7246 90.6556L47.7589 102.592L83.0264 112.79L118.448 102.514L117.328 90.6556Z" fill="#FEFEFE"/>
<path fill-rule="evenodd" clip-rule="evenodd" d="M104.773 71.1094C105.507 71.1094 106.125 71.7274 106.125 72.4614C106.125 73.1953 105.507 73.8133 104.773 73.8133C104.039 73.8133 103.421 73.1953 103.421 72.4614C103.421 71.7274 104.039 71.1094 104.773 71.1094Z" fill="#FEFEFE"/>
<path d="M105.584 72.9249C105.584 73.1953 105.507 73.4271 105.391 73.6588C105.854 73.4271 106.125 73.0022 106.125 72.4614C106.125 71.7274 105.507 71.1094 104.773 71.1094C104.309 71.1094 103.884 71.3411 103.652 71.7274C103.846 71.6502 104.039 71.5729 104.232 71.5729C104.966 71.5729 105.584 72.191 105.584 72.9249Z" fill="#E7EAEB"/>
<path fill-rule="evenodd" clip-rule="evenodd" d="M61.0091 71.1094C61.743 71.1094 62.3611 71.7274 62.3611 72.4614C62.3611 73.1953 61.743 73.8133 61.0091 73.8133C60.2752 73.8133 59.6571 73.1953 59.6571 72.4614C59.6571 71.7274 60.2752 71.1094 61.0091 71.1094Z" fill="#FEFEFE"/>
<path d="M61.78 72.9249C61.78 73.1953 61.7027 73.4271 61.5868 73.6588C62.0504 73.4271 62.3208 73.0022 62.3208 72.4614C62.3208 71.7274 61.7027 71.1094 60.9688 71.1094C60.5053 71.1094 60.0803 71.3411 59.8486 71.7274C60.0417 71.6502 60.2349 71.5729 60.428 71.5729C61.1619 71.5729 61.78 72.191 61.78 72.9249Z" fill="#E7EAEB"/>
<path fill-rule="evenodd" clip-rule="evenodd" d="M74.3733 80.6128L55.291 83.2009L54.7116 84.7074L77.1159 81.8876C76.1888 81.5013 75.2618 81.0764 74.412 80.5742L74.3733 80.6128Z" fill="#FEFEFE"/>
<path fill-rule="evenodd" clip-rule="evenodd" d="M91.8724 80.6128L110.955 83.2009L111.534 84.7074L89.1298 81.8876C90.0568 81.5013 90.9839 81.0764 91.8337 80.5742L91.8724 80.6128Z" fill="#FEFEFE"/>
<path fill-rule="evenodd" clip-rule="evenodd" d="M71.9005 76.3648L52.8182 78.9529L52.2388 80.4594L74.6431 77.6395C73.7161 77.2532 72.789 76.8283 71.9392 76.3262L71.9005 76.3648Z" fill="#1A2F44"/>
<path fill-rule="evenodd" clip-rule="evenodd" d="M93.8808 76.3648L112.963 78.9529L113.543 80.4594L91.1382 77.6395C92.0653 77.2532 92.9924 76.8283 93.8422 76.3262L93.8808 76.3648Z" fill="#1A2F44"/>
<path fill-rule="evenodd" clip-rule="evenodd" d="M71.0121 24.4473H94.7298L95.8114 36.6538L93.8027 38.0058L93.455 42.448L72.3254 42.4866L71.9778 37.9671L69.9305 36.7697L71.0121 24.4473Z" fill="#1A2F44" stroke="#2B2A29" stroke-width="0.0762"/>
<path fill-rule="evenodd" clip-rule="evenodd" d="M73.0602 26.9199H92.5288L93.3013 35.4181L91.4086 36.6156L91.0609 41.2896H74.6439L74.2963 36.6156L72.4807 35.4181L73.0602 26.9199Z" fill="#D72024"/>
<path fill-rule="evenodd" clip-rule="evenodd" d="M82.8724 39.125C94.5767 39.125 104.079 48.6275 104.079 60.3319C104.079 72.0362 94.5767 81.5387 82.8724 81.5387C71.1681 81.5387 61.6655 72.0362 61.6655 60.3319C61.6655 48.6275 71.1681 39.125 82.8724 39.125Z" fill="#1A2F44"/>
<path fill-rule="evenodd" clip-rule="evenodd" d="M82.8719 42.2539C92.838 42.2539 100.911 50.3272 100.911 60.2933C100.911 70.2593 92.838 78.3326 82.8719 78.3326C72.9058 78.3326 64.8326 70.2593 64.8326 60.2933C64.8326 50.3272 72.9058 42.2539 82.8719 42.2539Z" fill="#D72024"/>
<path fill-rule="evenodd" clip-rule="evenodd" d="M82.8332 48.9375C89.1296 48.9375 94.1899 54.0364 94.1899 60.2942C94.1899 66.5906 89.091 71.6509 82.8332 71.6509C76.5368 71.6509 71.4765 66.5519 71.4765 60.2942C71.4765 53.9978 76.5755 48.9375 82.8332 48.9375Z" fill="#1A2F44"/>
<path fill-rule="evenodd" clip-rule="evenodd" d="M82.9093 52.1816C87.3902 52.1816 91.0599 55.8127 91.0599 60.3322C91.0599 64.8131 87.4288 68.4827 82.9093 68.4827C78.4285 68.4827 74.7588 64.8517 74.7588 60.3322C74.7588 55.8513 78.3898 52.1816 82.9093 52.1816Z" fill="#FEFEFE"/>
<path fill-rule="evenodd" clip-rule="evenodd" d="M82.9105 57.8613C84.2625 57.8613 85.3827 58.9429 85.3827 60.3335C85.3827 61.6855 84.3011 62.8057 82.9105 62.8057C81.5585 62.8057 80.4383 61.7241 80.4383 60.3335C80.4383 58.9815 81.5199 57.8613 82.9105 57.8613Z" fill="#1A2F44"/>
<path fill-rule="evenodd" clip-rule="evenodd" d="M82.8706 30.2793C80.0507 30.2793 77.733 32.597 77.733 35.4168C77.733 38.2367 80.0507 40.5544 82.8706 40.5544C85.6904 40.5544 88.0081 38.2367 88.0081 35.4168C88.0081 32.597 85.6904 30.2793 82.8706 30.2793Z" fill="#1A2F44"/>
<path fill-rule="evenodd" clip-rule="evenodd" d="M82.872 32.7129C81.3655 32.7129 80.168 33.9104 80.168 35.4169C80.168 36.9234 81.3655 38.1208 82.872 38.1208C84.3785 38.1208 85.576 36.9234 85.576 35.4169C85.576 33.9104 84.3785 32.7129 82.872 32.7129Z" fill="#FEFEFE"/>
<path fill-rule="evenodd" clip-rule="evenodd" d="M82.8715 33.9883C83.6441 33.9883 84.2622 34.6063 84.2622 35.3789C84.2622 36.1515 83.6441 36.7695 82.8715 36.7695C82.099 36.7695 81.4809 36.1515 81.4809 35.3789C81.4809 34.6063 82.099 33.9883 82.8715 33.9883Z" fill="#1A2F44" stroke="#1A2F44" stroke-width="0.2"/>
<path d="M40.4579 147.632C40.9601 147.632 41.385 147.748 41.7713 147.979C42.1575 148.211 42.4666 148.52 42.6983 148.906C42.9301 149.293 43.046 149.795 43.046 150.336C43.046 150.876 42.9301 151.34 42.6983 151.765C42.4666 152.151 42.1575 152.499 41.7713 152.692C41.385 152.924 40.9214 153.04 40.4579 153.04C39.8012 153.04 39.2604 152.847 38.8741 152.422V154.855H37.3676V147.748H38.7969V148.366C39.1832 147.902 39.724 147.67 40.4579 147.67V147.632ZM40.1875 151.765C40.5738 151.765 40.8828 151.649 41.1532 151.379C41.385 151.108 41.5395 150.761 41.5395 150.336C41.5395 149.911 41.4236 149.563 41.1532 149.293C40.9214 149.022 40.5738 148.906 40.1875 148.906C39.8012 148.906 39.4922 149.022 39.2218 149.293C38.99 149.563 38.8355 149.911 38.8355 150.336C38.8355 150.761 38.9514 151.147 39.2218 151.379C39.4536 151.649 39.8012 151.765 40.1875 151.765ZM51.4669 147.709L49.1106 153.271C48.8788 153.889 48.5698 154.314 48.2222 154.546C47.8745 154.778 47.4496 154.932 46.9474 154.932C46.677 154.932 46.4066 154.894 46.1362 154.817C45.8658 154.739 45.6727 154.623 45.4796 154.469L46.0204 153.387C46.1362 153.503 46.2908 153.58 46.4066 153.619C46.5612 153.696 46.7157 153.696 46.8702 153.696C47.0633 153.696 47.2565 153.658 47.3723 153.542C47.4882 153.426 47.6041 153.271 47.72 153.04L47.7586 153.001L45.4796 147.748H47.0247L48.4926 151.301L49.9604 147.748H51.4283L51.4669 147.709ZM56.8362 153.001C56.2955 153.001 55.7933 152.885 55.3297 152.653C54.9048 152.422 54.5572 152.113 54.2868 151.688C54.055 151.263 53.9005 150.799 53.9005 150.297C53.9005 149.795 54.0164 149.331 54.2868 148.906C54.5186 148.482 54.8662 148.173 55.3297 147.941C55.7547 147.709 56.2568 147.593 56.8362 147.593C57.377 147.593 57.8792 147.709 58.2655 147.941C58.6904 148.173 58.9608 148.482 59.1539 148.945L57.9951 149.563C57.7247 149.1 57.3384 148.829 56.8362 148.829C56.45 148.829 56.1023 148.945 55.8705 149.215C55.6001 149.486 55.4843 149.834 55.4843 150.258C55.4843 150.722 55.6001 151.07 55.8705 151.301C56.1409 151.572 56.45 151.688 56.8362 151.688C57.3384 151.688 57.7633 151.456 57.9951 150.954L59.1539 151.61C58.9608 152.035 58.6518 152.344 58.2655 152.576C57.8406 152.808 57.377 152.924 56.8362 152.924V153.001ZM64.7936 153.001C64.2529 153.001 63.7507 152.885 63.2872 152.653C62.8622 152.422 62.5146 152.113 62.2442 151.688C62.0124 151.263 61.8579 150.799 61.8579 150.297C61.8579 149.795 61.9738 149.331 62.2442 148.906C62.476 148.482 62.8236 148.173 63.2872 147.941C63.7121 147.709 64.2142 147.593 64.7936 147.593C65.3344 147.593 65.8366 147.709 66.2229 147.941C66.6478 148.173 66.9182 148.482 67.1113 148.945L65.9525 149.563C65.6821 149.1 65.2958 148.829 64.7936 148.829C64.4074 148.829 64.0597 148.945 63.8279 149.215C63.5575 149.486 63.4417 149.834 63.4417 150.258C63.4417 150.722 63.5575 151.07 63.8279 151.301C64.0983 151.572 64.4074 151.688 64.7936 151.688C65.2958 151.688 65.7207 151.456 65.9525 150.954L67.1113 151.61C66.9182 152.035 66.6092 152.344 66.2229 152.576C65.798 152.808 65.3344 152.924 64.7936 152.924V153.001ZM72.6352 150.954H71.8626V152.924H70.3561V147.709H71.8626V149.756H72.6738L74.103 147.709H75.7254L73.9099 150.22L75.8799 152.924H74.103L72.7124 150.954H72.6352ZM78.8543 147.709H80.3608V150.799L82.9103 147.709H84.3009V152.924H82.7944V149.834L80.2449 152.924H78.8543V147.709ZM93.1081 150.336C93.1081 150.374 93.1081 150.49 93.0695 150.761H89.1294C89.2067 151.07 89.3612 151.34 89.6316 151.533C89.902 151.726 90.211 151.804 90.6359 151.804C90.9063 151.804 91.1381 151.765 91.3698 151.688C91.563 151.61 91.7947 151.495 91.9493 151.301L92.7604 152.19C92.2583 152.769 91.563 153.04 90.5973 153.04C90.0178 153.04 89.4771 152.924 89.0135 152.692C88.55 152.46 88.2023 152.151 87.9706 151.726C87.7388 151.301 87.5843 150.838 87.5843 150.336C87.5843 149.834 87.7002 149.37 87.9319 148.945C88.1637 148.52 88.5113 148.211 88.9363 147.979C89.3612 147.748 89.8247 147.632 90.3655 147.632C90.8677 147.632 91.3312 147.748 91.7561 147.979C92.181 148.211 92.4901 148.52 92.7218 148.945C92.9536 149.37 93.0695 149.834 93.0695 150.374L93.1081 150.336ZM90.4041 148.752C90.0565 148.752 89.7861 148.868 89.5543 149.061C89.3225 149.254 89.168 149.524 89.1294 149.872H91.7175C91.6789 149.524 91.5243 149.293 91.2926 149.061C91.0608 148.868 90.7904 148.752 90.4428 148.752H90.4041ZM102.34 148.057C102.842 148.057 103.267 148.173 103.654 148.366C104.04 148.559 104.31 148.868 104.542 149.215C104.735 149.602 104.851 150.027 104.851 150.49C104.851 150.992 104.735 151.417 104.503 151.804C104.272 152.19 103.924 152.499 103.499 152.692C103.074 152.885 102.572 153.001 102.031 153.001C101.104 153.001 100.409 152.692 99.868 152.113C99.3272 151.533 99.0955 150.683 99.0955 149.524C99.0955 148.482 99.3272 147.632 99.7908 147.014C100.254 146.396 100.95 145.971 101.877 145.778L104.349 145.275L104.542 146.589L102.34 147.014C101.761 147.13 101.297 147.323 101.027 147.593C100.756 147.863 100.563 148.25 100.525 148.752C100.756 148.52 101.027 148.327 101.336 148.173C101.645 148.057 101.993 147.979 102.379 147.979L102.34 148.057ZM101.993 151.881C102.379 151.881 102.688 151.765 102.92 151.495C103.151 151.224 103.267 150.915 103.267 150.529C103.267 150.143 103.151 149.834 102.92 149.602C102.688 149.37 102.379 149.254 101.993 149.254C101.606 149.254 101.297 149.37 101.027 149.602C100.795 149.834 100.679 150.143 100.679 150.529C100.679 150.915 100.795 151.263 101.066 151.495C101.297 151.726 101.645 151.881 101.993 151.881ZM110.104 147.632C110.916 147.632 111.534 147.825 111.959 148.211C112.384 148.597 112.615 149.177 112.615 149.949V152.924H111.186V152.267C110.916 152.769 110.375 153.001 109.602 153.001C109.216 153.001 108.868 152.924 108.559 152.808C108.25 152.653 108.057 152.499 107.903 152.228C107.748 151.997 107.671 151.726 107.671 151.417C107.671 150.915 107.864 150.567 108.212 150.258C108.559 149.988 109.139 149.834 109.911 149.834H111.109C111.109 149.486 110.993 149.254 110.8 149.061C110.607 148.868 110.298 148.791 109.911 148.791C109.641 148.791 109.371 148.829 109.1 148.906C108.83 148.984 108.598 149.1 108.405 149.254L107.864 148.211C108.134 148.018 108.482 147.863 108.907 147.748C109.293 147.632 109.718 147.593 110.143 147.593L110.104 147.632ZM109.989 151.997C110.259 151.997 110.491 151.919 110.684 151.804C110.877 151.688 111.032 151.495 111.109 151.263V150.722H110.066C109.448 150.722 109.139 150.915 109.139 151.34C109.139 151.533 109.216 151.688 109.371 151.804C109.525 151.919 109.718 151.958 109.989 151.958V151.997ZM116.208 147.709H117.714V149.756H119.993V147.709H121.5V152.924H119.993V150.954H117.714V152.924H116.208V147.709ZM125.247 147.709H126.753V150.799L129.303 147.709H130.693V152.924H129.187V149.834L126.637 152.924H125.247V147.709Z" fill="white"/>
<path d="M33.0024 126.773V141.723H29.5645V129.593H22.8045V141.723H19.3666V126.773H33.0024ZM49.2648 138.516H42.3118L40.9984 141.723H37.4446L44.1273 126.773H47.5266L54.2092 141.723H50.5782L49.2648 138.516ZM48.1833 135.89L45.8269 130.173L43.4706 135.89H48.2219H48.1833ZM65.1024 126.773C66.4158 126.773 67.5746 127.005 68.5403 127.43C69.506 127.855 70.2786 128.512 70.7807 129.323C71.3215 130.134 71.5533 131.1 71.5533 132.22C71.5533 133.302 71.2829 134.267 70.7807 135.078C70.2399 135.89 69.506 136.508 68.5403 136.971C67.5746 137.396 66.4158 137.628 65.1024 137.628H62.0894V141.761H58.6129V126.812H65.1024V126.773ZM64.9093 134.769C65.9522 134.769 66.7248 134.538 67.2656 134.113C67.8064 133.649 68.0768 133.031 68.0768 132.181C68.0768 131.332 67.8064 130.714 67.2656 130.25C66.7248 129.786 65.9522 129.593 64.9093 129.593H62.0894V134.769H64.9093ZM83.6439 141.954C82.0988 141.954 80.7082 141.607 79.4334 140.95C78.1973 140.293 77.193 139.366 76.4977 138.169C75.8024 137.01 75.4547 135.658 75.4547 134.19C75.4547 132.722 75.8024 131.409 76.4977 130.211C77.193 129.052 78.1973 128.125 79.4334 127.43C80.6695 126.773 82.0602 126.426 83.6439 126.426C85.189 126.426 86.5797 126.773 87.8158 127.43C89.0519 128.087 90.0176 129.014 90.7515 130.211C91.4468 131.37 91.8331 132.722 91.8331 134.19C91.8331 135.658 91.4854 136.971 90.7515 138.169C90.0562 139.328 89.0519 140.255 87.8158 140.95C86.5797 141.607 85.189 141.954 83.6439 141.954ZM83.6439 139.019C84.5324 139.019 85.3436 138.825 86.0389 138.401C86.7342 137.976 87.3136 137.435 87.6999 136.701C88.1248 135.967 88.3179 135.156 88.3179 134.229C88.3179 133.302 88.1248 132.49 87.6999 131.756C87.275 131.023 86.7342 130.482 86.0389 130.057C85.3436 129.632 84.5324 129.439 83.6439 129.439C82.7555 129.439 81.9443 129.632 81.249 130.057C80.5537 130.482 79.9742 131.023 79.588 131.756C79.163 132.49 78.9699 133.302 78.9699 134.229C78.9699 135.156 79.163 135.967 79.588 136.701C80.0129 137.435 80.5537 137.976 81.249 138.401C81.9443 138.825 82.7555 139.019 83.6439 139.019ZM107.284 133.92C108.211 134.19 108.907 134.615 109.37 135.233C109.872 135.851 110.104 136.585 110.104 137.512C110.104 138.825 109.602 139.868 108.598 140.602C107.593 141.336 106.164 141.723 104.31 141.723H96.932V126.773H103.885C105.623 126.773 106.975 127.121 107.941 127.778C108.907 128.434 109.409 129.4 109.409 130.636C109.409 131.37 109.216 132.027 108.868 132.606C108.482 133.186 107.98 133.611 107.323 133.958L107.284 133.92ZM100.37 132.954H103.615C104.387 132.954 104.928 132.799 105.314 132.49C105.701 132.181 105.894 131.718 105.894 131.138C105.894 130.559 105.701 130.095 105.314 129.786C104.928 129.477 104.349 129.323 103.615 129.323H100.37V132.954ZM104.155 139.134C105.778 139.134 106.589 138.478 106.589 137.203C106.589 135.967 105.778 135.349 104.155 135.349H100.37V139.134H104.155ZM122.388 141.954C120.843 141.954 119.452 141.607 118.178 140.95C116.941 140.293 115.937 139.366 115.242 138.169C114.546 137.01 114.199 135.658 114.199 134.19C114.199 132.722 114.546 131.409 115.242 130.211C115.937 129.052 116.941 128.125 118.178 127.43C119.414 126.773 120.804 126.426 122.388 126.426C123.933 126.426 125.324 126.773 126.56 127.43C127.796 128.087 128.762 129.014 129.496 130.211C130.191 131.37 130.577 132.722 130.577 134.19C130.577 135.658 130.229 136.971 129.496 138.169C128.8 139.328 127.796 140.255 126.56 140.95C125.324 141.607 123.933 141.954 122.388 141.954ZM122.388 139.019C123.276 139.019 124.088 138.825 124.783 138.401C125.478 137.976 126.058 137.435 126.444 136.701C126.869 135.967 127.062 135.156 127.062 134.229C127.062 133.302 126.869 132.49 126.444 131.756C126.019 131.023 125.478 130.482 124.783 130.057C124.088 129.632 123.276 129.439 122.388 129.439C121.5 129.439 120.688 129.632 119.993 130.057C119.298 130.482 118.718 131.023 118.332 131.756C117.907 132.49 117.714 133.302 117.714 134.229C117.714 135.156 117.907 135.967 118.332 136.701C118.757 137.435 119.298 137.976 119.993 138.401C120.688 138.825 121.5 139.019 122.388 139.019ZM143.749 133.92C144.599 134.229 145.294 134.692 145.797 135.31C146.299 135.928 146.531 136.662 146.531 137.512C146.531 138.439 146.222 139.212 145.642 139.868C145.063 140.525 144.252 141.066 143.209 141.414C142.204 141.761 141.084 141.954 139.848 141.954C138.805 141.954 137.801 141.838 136.796 141.568C135.792 141.298 134.826 140.911 133.899 140.409L134.981 137.937C135.637 138.323 136.371 138.632 137.144 138.864C137.916 139.057 138.689 139.173 139.462 139.173C140.505 139.173 141.354 138.98 142.011 138.632C142.706 138.246 143.015 137.744 143.015 137.087C143.015 136.546 142.784 136.121 142.32 135.812C141.857 135.542 141.239 135.388 140.427 135.388H136.758V132.799H140.157C140.852 132.799 141.393 132.645 141.779 132.375C142.166 132.104 142.359 131.679 142.359 131.216C142.359 130.636 142.088 130.173 141.509 129.864C140.929 129.555 140.234 129.362 139.346 129.362C138.689 129.362 138.032 129.439 137.298 129.632C136.603 129.825 135.946 130.095 135.328 130.443L134.285 127.739C135.869 126.928 137.569 126.503 139.423 126.503C140.582 126.503 141.663 126.658 142.668 127.005C143.633 127.353 144.445 127.855 145.024 128.512C145.604 129.168 145.913 129.941 145.913 130.791C145.913 131.486 145.719 132.143 145.333 132.684C144.947 133.224 144.406 133.649 143.749 133.958V133.92Z" fill="#D72024"/>
</svg>
