<svg width="20" height="20" viewBox="0 0 20 20" fill="none" xmlns="http://www.w3.org/2000/svg">
<path d="M10 1.66663C6.77502 1.66663 4.16669 4.27496 4.16669 7.49996C4.16669 10.4749 6.86397 14.4132 8.59026 16.6291C9.31839 17.5638 10.6816 17.5638 11.4098 16.6291C13.1361 14.4132 15.8334 10.4749 15.8334 7.49996C15.8334 4.27496 13.225 1.66663 10 1.66663ZM10 9.58329C8.85002 9.58329 7.91669 8.64996 7.91669 7.49996C7.91669 6.34996 8.85002 5.41663 10 5.41663C11.15 5.41663 12.0834 6.34996 12.0834 7.49996C12.0834 8.64996 11.15 9.58329 10 9.58329Z" fill="white"/>
</svg>
