<svg width="20" height="20" viewBox="0 0 20 20" fill="none" xmlns="http://www.w3.org/2000/svg">
<path fill-rule="evenodd" clip-rule="evenodd" d="M9.30712 0.0208017L8.89225 0.105699C8.89225 0.105699 8.86459 0.105699 8.86459 0.133998C8.75396 0.218896 8.69865 0.190597 8.58802 0.275494C8.42207 0.360391 8.20081 0.501887 8.09018 0.615084L7.86892 0.813178C7.8136 0.926374 7.64765 1.06787 7.45405 1.46406C7.12216 2.22814 7.20513 3.13371 7.67531 3.81289L7.75828 3.95438C7.78594 3.98268 7.78594 3.95438 7.8136 4.01098C7.84126 4.06758 7.8136 4.01098 7.84126 4.06758C7.89657 4.06758 7.89657 4.09588 7.95189 4.15248C7.97955 4.18078 8.0072 4.20908 8.06252 4.26567C8.31144 4.52037 8.78162 4.69016 8.83694 4.74676C8.91991 4.74676 9.44541 4.88826 9.47306 4.88826L9.91559 4.85996C10.1092 4.83166 10.2751 4.77506 10.4687 4.74676C10.5794 4.63356 11.0496 4.57696 11.575 3.89778C11.6304 3.81289 11.7687 3.5582 11.824 3.5016C11.8793 3.3035 11.9623 3.10541 12.0176 2.85072C12.0452 2.59602 12.0729 2.34133 12.0176 2.08664C11.9069 1.29426 11.3814 0.558486 10.6623 0.218896C10.2475 0.0208017 9.83261 -0.0357966 9.30712 0.0208017ZM8.36675 5.87873L7.78594 6.13342H7.75828C7.73063 6.16172 7.75828 6.16172 7.70297 6.19002L7.26045 6.5862C7.23279 6.6428 7.17747 6.6711 7.12216 6.7277C7.06684 6.7843 7.03918 6.8126 6.98387 6.8692L3.91386 9.78401C3.47134 10.2368 3.11179 10.35 3.00116 11.0009C2.9735 11.7084 3.44368 12.2177 4.13512 12.1611C4.4117 12.1328 4.60531 11.9913 4.74359 11.8498C4.85423 11.7366 4.88188 11.7084 4.99251 11.6235L6.1818 10.5198C6.26477 10.4066 6.40306 10.3217 6.51369 10.2085C6.62432 10.0953 6.67963 10.0387 6.81792 9.9255C6.84558 10.1802 6.81792 12.3592 6.81792 12.7837C6.81792 13.2082 6.76261 13.6893 6.73495 14.1421C6.70729 14.3685 6.67963 15.3306 6.62432 15.4438C6.65198 15.557 6.62432 15.7551 6.62432 15.8966C6.62432 16.0947 6.62432 16.5475 6.54135 16.6607C6.569 16.7739 6.54135 16.8871 6.54135 17.0003L6.45837 17.7644C6.48603 17.8493 6.48603 17.8776 6.45837 17.9625C6.43071 18.4152 6.34774 18.9246 6.54135 19.3208C6.62432 19.5189 6.73495 19.6038 6.87324 19.717C7.01153 19.8302 7.26045 19.9151 7.31576 19.9717L7.73063 20C7.8136 19.9434 7.95189 19.9434 8.06252 19.8868C8.17315 19.8302 8.22847 19.7736 8.3391 19.717H8.36675L8.5327 19.4906C8.97522 18.8963 8.7263 17.7078 8.89225 17.3965C8.86459 17.2833 8.89225 17.1135 8.89225 17.0003C8.89225 16.8305 8.91991 16.2362 8.97522 16.1513V16.0098L9.00288 15.3872L9.0582 14.6232C9.30712 14.6232 10.0539 14.5949 10.2475 14.6515L10.3028 15.3872L10.3305 15.9532V16.1513C10.3858 16.2362 10.3858 16.8588 10.4134 17.0286C10.4134 17.1418 10.4411 17.2833 10.4134 17.3965C10.4687 17.5097 10.4964 18.5001 10.5241 18.7265C10.5517 19.1227 10.607 19.3491 10.8836 19.6321C10.9389 19.6887 10.9113 19.6604 10.9666 19.717H10.9942C11.1049 19.7736 11.1602 19.8302 11.2708 19.8868C11.3538 19.9151 11.5197 19.9434 11.6027 20L12.0452 19.9717C12.1559 19.8868 12.3495 19.8585 12.4878 19.717C12.5984 19.6038 12.709 19.5189 12.792 19.3208C12.9579 18.9812 12.9026 18.5284 12.875 18.104L12.7367 15.8966C12.709 15.7834 12.6814 15.557 12.7367 15.4155V15.3872L12.709 15.1042C12.709 14.9911 12.6814 14.8779 12.6814 14.7647C12.6537 14.6232 12.6537 14.4534 12.6537 14.3119C12.5984 14.1987 12.5984 13.8874 12.5984 13.7176V13.5478C12.5154 13.4063 12.4878 10.2651 12.5431 9.9255C12.5984 9.9538 12.5707 9.9255 12.5984 9.9821C12.6814 10.0104 13.0962 10.4349 13.0962 10.4349C13.1515 10.4632 13.1239 10.4349 13.1515 10.5198C13.3175 10.5764 13.4834 10.8311 13.6494 10.9443L14.3685 11.6235C14.6451 11.8781 14.6727 12.0196 15.1982 12.1328C15.8897 12.1611 16.3598 11.6801 16.3322 10.9726L16.3045 10.7179L16.1386 10.4632L14.8663 9.24632C14.7833 9.16143 14.5068 8.90673 14.4515 8.82184C14.3961 8.79354 14.4238 8.82184 14.3685 8.76524L12.709 7.20879C12.5984 7.12389 12.5154 7.01069 12.4324 6.92579C12.3495 6.8409 12.2388 6.7277 12.1559 6.6711C12.1282 6.6428 12.1005 6.6428 12.1005 6.6145C12.0452 6.55791 12.0729 6.5862 12.0729 6.55791L11.575 6.10512L11.5474 6.07682L11.0219 5.85043C10.9666 5.82213 10.9942 5.85043 10.9666 5.82213C10.8559 5.82213 10.5241 5.76553 10.3305 5.76553H8.97522C8.80928 5.76553 8.47739 5.82213 8.36675 5.82213V5.87873Z" fill="#839097"/>
</svg>
