<svg width="20" height="20" viewBox="0 0 20 20" fill="none" xmlns="http://www.w3.org/2000/svg">
<path d="M6.0001 5L6.62543 5.78036L6.0001 5ZM9.3176 5.76671L8.43129 6.2298C8.63336 6.61655 9.06287 6.82762 9.4925 6.7513C9.92213 6.67498 10.2527 6.3289 10.3092 5.89622L9.3176 5.76671ZM10.9214 2.18503L10.6174 1.23235L10.9214 2.18503ZM18.406 2.18493L17.8085 2.98684L18.406 2.18493ZM16.2675 7.30163L15.5761 6.5792C15.281 6.86162 15.1874 7.29511 15.3395 7.67417C15.4917 8.05322 15.8591 8.30163 16.2675 8.30163V7.30163ZM18.9406 7.8133L19.9081 7.56057L18.9406 7.8133ZM14.6637 11.395L14.1258 10.552C13.7924 10.7647 13.6157 11.1539 13.675 11.5449C13.7343 11.9359 14.0185 12.2553 14.3999 12.3596L14.6637 11.395ZM17 14L16.1679 13.4453L17 14ZM11.456 16V17H11.5353L11.6136 16.9876L11.456 16ZM5.87097 12.0089C5.46627 11.2911 5.24159 10.0252 5.37352 8.71044C5.50672 7.38311 5.97115 6.30465 6.62543 5.78036L5.37478 4.21964C4.11347 5.23035 3.54029 6.94851 3.38352 8.51074C3.22548 10.0856 3.45848 11.8022 4.12878 12.9911L5.87097 12.0089ZM6.62543 5.78036C6.96922 5.50487 7.31063 5.50116 7.67038 5.64423C8.09271 5.81221 8.37875 6.12923 8.43129 6.2298L10.2039 5.30362C9.9 4.72196 9.21363 4.10564 8.40951 3.78582C7.54279 3.44111 6.40367 3.39515 5.37478 4.21964L6.62543 5.78036ZM10.3092 5.89622C10.3918 5.26391 10.5514 4.52392 10.7793 3.93221C10.8935 3.63562 11.0108 3.41384 11.1181 3.26832C11.231 3.11516 11.2767 3.12133 11.2254 3.1377L10.6174 1.23235C10.1125 1.39347 9.75326 1.74917 9.50824 2.08153C9.25759 2.42152 9.06399 2.82123 8.91297 3.21331C8.61034 3.99896 8.42165 4.90506 8.32602 5.63721L10.3092 5.89622ZM11.2254 3.1377C11.5341 3.0392 11.9672 3.16296 12.3685 3.54697C12.5568 3.72724 12.6613 3.89804 12.6968 3.98882C12.7657 4.16473 12.5669 3.83095 12.9031 3.50918L14.2859 4.95406C14.8894 4.37646 14.6905 3.59496 14.559 3.2592C14.3941 2.83831 14.0976 2.43349 13.7513 2.10209C13.0833 1.46278 11.9126 0.819077 10.6174 1.23235L11.2254 3.1377ZM12.9031 3.50918C12.8937 3.51809 12.9052 3.50643 12.9295 3.48692C12.9384 3.47973 12.976 3.44951 13.031 3.41656C13.0568 3.40114 13.1166 3.36665 13.1995 3.33656C13.2463 3.31954 13.483 3.23162 13.7827 3.30699C13.9617 3.35202 14.1548 3.4544 14.3063 3.63618C14.451 3.8098 14.5064 3.99416 14.5264 4.12511C14.5613 4.35436 14.5053 4.53132 14.492 4.57334C14.4556 4.68895 14.4057 4.76935 14.4006 4.7779C14.3852 4.80349 14.3729 4.82117 14.3686 4.82718C14.3632 4.83476 14.3599 4.83904 14.3598 4.8392C14.3597 4.83936 14.3644 4.83324 14.3757 4.81987C14.3863 4.80713 14.4008 4.79038 14.419 4.76975C14.4557 4.72842 14.5044 4.67539 14.5642 4.61305C14.8071 4.36001 15.1984 3.98973 15.6548 3.65059C16.1217 3.30377 16.5971 3.03447 17.013 2.91881C17.4108 2.80819 17.6415 2.86241 17.8085 2.98684L19.0034 1.38303C18.1821 0.771085 17.2504 0.776919 16.4772 0.991927C15.7221 1.2019 15.0179 1.63226 14.4621 2.04516C13.896 2.46574 13.4216 2.91525 13.1213 3.22811C12.9761 3.37936 12.8514 3.51976 12.7735 3.62115C12.7564 3.6435 12.7199 3.69158 12.6848 3.75015C12.675 3.76657 12.622 3.85308 12.5843 3.97296C12.5704 4.01713 12.5141 4.19576 12.5492 4.42622C12.5692 4.55778 12.6249 4.74262 12.7699 4.91661C12.9217 5.09877 13.1152 5.2014 13.2948 5.24656C13.5954 5.3222 13.8336 5.23406 13.8824 5.21634C13.9672 5.18555 14.0294 5.14987 14.058 5.13276C14.1187 5.09645 14.1636 5.06087 14.1818 5.04626C14.2246 5.0119 14.2618 4.97713 14.2859 4.95406L12.9031 3.50918ZM17.8085 2.98684C17.7156 2.91759 17.7729 2.85054 17.7607 3.05247C17.7478 3.268 17.6552 3.60476 17.4462 4.04215C17.0334 4.90598 16.3014 5.88506 15.5761 6.5792L16.959 8.02407C17.8376 7.18319 18.7218 6.01146 19.2507 4.90446C19.5126 4.35644 19.7223 3.75278 19.7571 3.17236C19.7928 2.57835 19.6434 1.85981 19.0034 1.38303L17.8085 2.98684ZM16.2675 8.30163C16.7481 8.30163 17.3063 8.29076 17.7766 8.34117C18.0144 8.36665 18.1554 8.40138 18.2186 8.42635C18.3174 8.46542 18.0603 8.39995 17.9731 8.06603L19.9081 7.56057C19.7476 6.94586 19.231 6.67603 18.9541 6.5665C18.6415 6.44289 18.2905 6.38479 17.9898 6.35256C17.383 6.28753 16.678 6.30163 16.2675 6.30163V8.30163ZM17.9731 8.06603C18.0306 8.28628 17.9906 8.39768 17.9089 8.51227C17.7901 8.67904 17.5481 8.87872 17.1242 9.11055C16.7074 9.33854 16.2258 9.54063 15.687 9.77353C15.1783 9.99342 14.6046 10.2465 14.1258 10.552L15.2016 12.238C15.5248 12.0318 15.9535 11.8372 16.4805 11.6094C16.9775 11.3946 17.5652 11.1489 18.0839 10.8653C18.5956 10.5854 19.1555 10.2095 19.5379 9.67269C19.9574 9.08373 20.1179 8.36367 19.9081 7.56057L17.9731 8.06603ZM14.3999 12.3596C15.0196 12.529 15.6841 12.7657 16.0689 13.0586C16.2526 13.1984 16.268 13.2734 16.2643 13.2593C16.2506 13.2066 16.3013 13.2452 16.1679 13.4453L17.832 14.5547C18.1987 14.0048 18.3632 13.3854 18.2002 12.757C18.0471 12.1671 17.6498 11.7485 17.2804 11.4673C16.5589 10.918 15.5552 10.6021 14.9275 10.4304L14.3999 12.3596ZM16.1679 13.4453C16.0994 13.5481 15.7818 13.8299 14.8925 14.1582C14.0552 14.4673 12.8672 14.7623 11.2985 15.0125L11.6136 16.9876C13.2526 16.7261 14.5803 16.4054 15.5851 16.0345C16.5377 15.6828 17.3882 15.2204 17.832 14.5547L16.1679 13.4453ZM11.456 15C9.1102 15 6.75276 13.5729 5.87097 12.0089L4.12878 12.9911C5.39701 15.2406 8.45579 17 11.456 17V15Z" fill="#839097"/>
<path d="M12.5 8.5C10 10 4 16.2 2 19" stroke="#839097" stroke-width="2"/>
</svg>
