<svg width="20" height="20" viewBox="0 0 20 20" fill="none" xmlns="http://www.w3.org/2000/svg">
<path d="M15.9368 10.7343C15.6458 10.3843 15.729 10.2286 15.9368 9.91571C15.9405 9.91214 18.3428 6.75071 18.5904 5.67857L18.5919 5.67786C18.7149 5.28714 18.5919 5 17.9971 5H16.029C15.528 5 15.297 5.24643 15.1732 5.52214C15.1732 5.52214 14.1712 7.80643 12.7537 9.28714C12.2961 9.715 12.0846 9.85214 11.8349 9.85214C11.7119 9.85214 11.5206 9.715 11.5206 9.32429V5.67786C11.5206 5.20929 11.3804 5 10.9656 5H7.87099C7.55673 5 7.36997 5.21857 7.36997 5.42214C7.36997 5.86643 8.07875 5.96857 8.15225 7.21857V9.93071C8.15225 10.525 8.03899 10.6343 7.78774 10.6343C7.11871 10.6343 5.49491 8.34071 4.53262 5.71571C4.33837 5.20643 4.14861 5.00071 3.64384 5.00071H1.67502C1.11325 5.00071 1 5.24714 1 5.52286C1 6.01 1.66902 8.43214 4.11111 11.6321C5.73866 13.8164 8.03074 15 10.1158 15C11.3691 15 11.5221 14.7371 11.5221 14.285C11.5221 12.1979 11.4089 12.0007 12.0366 12.0007C12.3276 12.0007 12.8287 12.1379 13.9987 13.1914C15.336 14.4407 15.5558 15 16.3043 15H18.2723C18.8334 15 19.1176 14.7371 18.9541 14.2186C18.5799 13.1279 16.0508 10.8843 15.9368 10.7343Z" fill="white"/>
</svg>
