<svg width="44" height="44" viewBox="0 0 44 44" fill="none" xmlns="http://www.w3.org/2000/svg">
<path fill-rule="evenodd" clip-rule="evenodd" d="M22 44C34.1503 44 44 34.1503 44 22C44 9.84974 34.1503 0 22 0C9.84974 0 0 9.84974 0 22C0 34.1503 9.84974 44 22 44ZM11.88 22C11.88 16.4199 16.4199 11.88 22 11.88C27.5801 11.88 32.12 16.4199 32.12 22C32.12 27.5801 27.5801 32.12 22 32.12C20.3324 32.12 18.6837 31.7055 17.2198 30.9197L12.4256 32.1072C12.3908 32.1156 12.3552 32.12 12.32 32.12C12.2025 32.12 12.0881 32.0729 12.0041 31.9862C11.895 31.874 11.854 31.7121 11.8963 31.5612L13.1837 26.9676C12.3301 25.4558 11.88 23.7424 11.88 22ZM25.337 26.7907C25.8359 26.7172 26.8743 26.1703 27.0908 25.571C27.3073 24.9722 27.3073 24.4583 27.2422 24.3518C27.1898 24.2659 27.0676 24.2075 26.8869 24.1212C26.8427 24.1002 26.7951 24.0774 26.7441 24.0522C26.4845 23.9237 25.2072 23.3033 24.9687 23.2179C24.7302 23.1321 24.5568 23.0899 24.3839 23.3464C24.211 23.6029 23.7129 24.1806 23.5616 24.3522C23.4102 24.5234 23.2584 24.545 22.9988 24.4165C22.9563 24.3954 22.8983 24.3706 22.8266 24.3399C22.4608 24.183 21.7394 23.8738 20.9097 23.1431C20.137 22.4629 19.6156 21.6229 19.4643 21.366C19.3129 21.109 19.448 20.9704 19.5782 20.8424C19.6559 20.7659 19.7447 20.6591 19.8337 20.5521C19.8789 20.4977 19.9242 20.4432 19.9681 20.3927C20.0791 20.2648 20.1268 20.1682 20.1919 20.0364C20.2032 20.0136 20.215 19.9898 20.2277 19.9646C20.3139 19.7934 20.2708 19.6434 20.2057 19.5149C20.1631 19.4294 19.92 18.845 19.6981 18.3113C19.5854 18.0405 19.4782 17.7827 19.4053 17.6097C19.2193 17.1678 19.0306 17.169 18.8791 17.1699C18.8589 17.17 18.8393 17.1702 18.8206 17.1692C18.6688 17.1622 18.4958 17.16 18.3225 17.16C18.1491 17.16 17.868 17.2242 17.6295 17.4812C17.6143 17.4975 17.5974 17.5154 17.579 17.5347C17.3083 17.8197 16.72 18.4393 16.72 19.6214C16.72 20.8761 17.6398 22.0886 17.7784 22.2713L17.7808 22.2746C17.7895 22.2859 17.8051 22.308 17.8275 22.3397C18.1415 22.784 19.7864 25.1108 22.2191 26.1483C22.8391 26.4128 23.3231 26.5703 23.7002 26.6891C24.3223 26.8844 24.889 26.8563 25.337 26.7907Z" fill="none"/>
</svg>
