<svg width="22" height="22" viewBox="0 0 22 22" fill="none" xmlns="http://www.w3.org/2000/svg">
<path d="M11 0.880859C5.41993 0.880859 0.880009 5.42078 0.880009 11.0009C0.880009 12.7433 1.33013 14.4566 2.18373 15.9685L0.896289 20.5621C0.854049 20.713 0.894969 20.8749 1.00409 20.9871C1.08813 21.0738 1.20253 21.1209 1.32001 21.1209C1.35521 21.1209 1.39085 21.1165 1.42561 21.1081L6.21985 19.9205C7.68373 20.7064 9.33241 21.1209 11 21.1209C16.5801 21.1209 21.12 16.5809 21.12 11.0009C21.12 5.42078 16.5801 0.880859 11 0.880859ZM16.0908 14.5719C15.8743 15.1712 14.8359 15.7181 14.337 15.7916C13.889 15.8571 13.3223 15.8853 12.7002 15.6899C12.3231 15.5711 11.8391 15.4136 11.2191 15.1492C8.61301 14.0377 6.91109 11.4466 6.78085 11.2754C6.65105 11.1043 5.72001 9.88458 5.72001 8.62222C5.72001 7.35986 6.39101 6.73902 6.62949 6.48206C6.86797 6.2251 7.14913 6.16086 7.32249 6.16086C7.49585 6.16086 7.66877 6.16306 7.82057 6.1701C7.98029 6.17802 8.19457 6.10982 8.40533 6.61054C8.62181 7.12446 9.14145 8.38682 9.20569 8.51574C9.27081 8.64422 9.31393 8.79426 9.22769 8.96542C9.14145 9.13658 9.09833 9.2435 8.96809 9.39354C8.83785 9.54358 8.69529 9.72794 8.57825 9.84322C8.44801 9.97126 8.31293 10.1099 8.46429 10.3668C8.61565 10.6238 9.13705 11.4637 9.90969 12.144C10.9019 13.0178 11.7392 13.2889 11.9988 13.4173C12.2584 13.5458 12.4102 13.5243 12.5616 13.3531C12.7129 13.1815 13.211 12.6038 13.3839 12.3473C13.5568 12.0907 13.7302 12.133 13.9687 12.2188C14.2072 12.3041 15.4845 12.9245 15.7441 13.053C16.0037 13.1815 16.177 13.2457 16.2422 13.3527C16.3073 13.4591 16.3073 13.9731 16.0908 14.5719Z" fill="#1A2F44"/>
</svg>
