<svg width="44" height="44" viewBox="0 0 44 44" fill="none" xmlns="http://www.w3.org/2000/svg">
<rect width="44" height="44" rx="22" fill="white"/>
<path d="M22 11.8809C16.4199 11.8809 11.88 16.4208 11.88 22.0009C11.88 23.7433 12.3301 25.4566 13.1837 26.9685L11.8963 31.5621C11.854 31.713 11.895 31.8749 12.0041 31.9871C12.0881 32.0738 12.2025 32.1209 12.32 32.1209C12.3552 32.1209 12.3908 32.1165 12.4256 32.1081L17.2198 30.9205C18.6837 31.7064 20.3324 32.1209 22 32.1209C27.5801 32.1209 32.12 27.5809 32.12 22.0009C32.12 16.4208 27.5801 11.8809 22 11.8809ZM27.0908 25.5719C26.8743 26.1712 25.8359 26.7181 25.337 26.7916C24.889 26.8571 24.3223 26.8853 23.7002 26.6899C23.3231 26.5711 22.8391 26.4136 22.2191 26.1492C19.613 25.0377 17.9111 22.4466 17.7808 22.2754C17.651 22.1043 16.72 20.8846 16.72 19.6222C16.72 18.3599 17.391 17.739 17.6295 17.4821C17.868 17.2251 18.1491 17.1609 18.3225 17.1609C18.4958 17.1609 18.6688 17.1631 18.8206 17.1701C18.9803 17.178 19.1946 17.1098 19.4053 17.6105C19.6218 18.1245 20.1414 19.3868 20.2057 19.5157C20.2708 19.6442 20.3139 19.7943 20.2277 19.9654C20.1414 20.1366 20.0983 20.2435 19.9681 20.3935C19.8378 20.5436 19.6953 20.7279 19.5782 20.8432C19.448 20.9713 19.3129 21.1099 19.4643 21.3668C19.6156 21.6238 20.137 22.4637 20.9097 23.144C21.9019 24.0178 22.7392 24.2889 22.9988 24.4173C23.2584 24.5458 23.4102 24.5243 23.5616 24.3531C23.7129 24.1815 24.211 23.6038 24.3839 23.3473C24.5568 23.0907 24.7302 23.133 24.9687 23.2188C25.2072 23.3041 26.4845 23.9245 26.7441 24.053C27.0037 24.1815 27.177 24.2457 27.2422 24.3527C27.3073 24.4591 27.3073 24.9731 27.0908 25.5719Z" fill="#1A2F44"/>
</svg>
