<svg width="20" height="20" fill="none" xmlns="http://www.w3.org/2000/svg"><path fill-rule="evenodd" clip-rule="evenodd" d="M9.307.02l-.415.086s-.027 0-.027.028c-.111.085-.166.057-.277.141a2.226 2.226 0 00-.498.34l-.22.198c-.055.113-.221.255-.415.651a2.452 2.452 0 00.221 2.349l.083.141c.028.029.028 0 .056.057l.027.057c.056 0 .056.028.11.084l.112.114c.248.254.719.424.774.48.083 0 .608.142.636.142l.443-.028c.193-.028.36-.085.553-.113.11-.113.58-.17 1.106-.85.055-.084.194-.339.249-.395.055-.198.138-.397.194-.651.027-.255.055-.51 0-.764-.111-.793-.637-1.529-1.356-1.868-.415-.198-.83-.255-1.355-.198zm-.94 5.859l-.581.254h-.028c-.027.029 0 .029-.055.057l-.443.396c-.027.057-.083.085-.138.142l-.138.141-3.07 2.915c-.443.453-.802.566-.913 1.217-.027.707.443 1.217 1.134 1.16a.976.976 0 00.609-.311c.11-.113.138-.142.249-.226l1.189-1.104c.083-.113.221-.198.332-.311.11-.114.166-.17.304-.284.028.255 0 2.434 0 2.859 0 .424-.055.905-.083 1.358-.028.226-.055 1.189-.11 1.302.027.113 0 .311 0 .453 0 .198 0 .65-.084.764.028.113 0 .226 0 .34l-.083.763a.247.247 0 010 .198c-.027.453-.11.963.083 1.359.083.198.194.283.332.396.139.113.387.198.443.255L7.73 20c.083-.057.22-.057.332-.113.11-.057.165-.113.276-.17h.028l.166-.226c.442-.595.193-1.783.36-2.095-.028-.113 0-.283 0-.396 0-.17.027-.764.082-.849v-.141l.028-.623.055-.764c.25 0 .996-.028 1.19.029l.055.735.027.566v.198c.056.085.056.708.083.878 0 .113.028.254 0 .367.056.114.083 1.104.111 1.33.028.397.083.623.36.906l.083.085h.027c.11.057.166.113.277.17.083.028.249.056.332.113l.442-.028c.11-.085.305-.114.443-.255.11-.113.221-.198.304-.396.166-.34.11-.793.083-1.217l-.138-2.207c-.028-.114-.056-.34 0-.482v-.028l-.028-.283c0-.113-.028-.226-.028-.34-.027-.14-.027-.31-.027-.452-.056-.113-.056-.425-.056-.594v-.17c-.083-.142-.11-3.283-.055-3.623.055.029.028 0 .055.057.083.028.498.453.498.453.056.028.028 0 .056.085.166.056.331.311.497.424l.72.68c.276.254.304.396.83.509.69.028 1.16-.453 1.133-1.16l-.027-.255-.166-.255-1.273-1.217c-.083-.085-.36-.34-.415-.424-.055-.028-.027 0-.083-.057L12.71 7.21c-.11-.085-.194-.198-.277-.283a2.264 2.264 0 00-.276-.255c-.028-.028-.056-.028-.056-.057-.055-.056-.027-.028-.027-.056l-.498-.453-.028-.028-.525-.227c-.055-.028-.028 0-.055-.028-.111 0-.443-.056-.636-.056H8.975c-.166 0-.498.056-.608.056v.057z" fill="#839097"/></svg>