<svg width="20" height="20" fill="none" xmlns="http://www.w3.org/2000/svg"><path d="M6 5l.625.78L6 5zm3.318.767l-.887.463a1 1 0 001.878-.334l-.991-.13zm1.603-3.582l-.304-.953.304.953zm7.485 0l-.598.802.598-.802zm-2.139 5.117l-.69-.723a1 1 0 00.69 1.723v-1zm2.674.511l.967-.252-.967.252zm-4.277 3.582l-.538-.843a1 1 0 00.274 1.808l.264-.965zM17 14l-.832-.555L17 14zm-5.544 2v1h.08l.078-.012-.158-.988zm-5.585-3.991c-.405-.718-.63-1.984-.497-3.299.133-1.327.597-2.405 1.251-2.93l-1.25-1.56C4.113 5.23 3.54 6.949 3.384 8.51c-.159 1.576.074 3.292.745 4.481l1.742-.982zm.754-6.229c.344-.275.686-.279 1.045-.136.423.168.709.485.761.586l1.773-.926c-.304-.582-.99-1.198-1.794-1.518-.867-.345-2.006-.39-3.035.434l1.25 1.56zm3.684.116c.083-.632.242-1.372.47-1.964a2.9 2.9 0 01.34-.664c.112-.153.158-.147.106-.13l-.608-1.906c-.505.161-.864.517-1.109.85-.25.34-.444.74-.595 1.131-.303.786-.491 1.692-.587 2.424l1.983.26zm.916-2.758c.31-.099.742.025 1.143.409a1.4 1.4 0 01.329.442c.069.176-.13-.158.206-.48l1.383 1.445c.603-.578.405-1.359.273-1.695-.165-.42-.461-.826-.808-1.157-.668-.64-1.838-1.283-3.134-.87l.608 1.906zm1.678.371c-.01.01.002-.003.027-.022a.898.898 0 01.27-.15c.046-.017.283-.105.583-.03a.999.999 0 01.709 1.266c-.036.116-.086.196-.091.205a.78.78 0 01-.032.05l-.01.011.017-.02.043-.05c.037-.04.085-.094.145-.156a9.093 9.093 0 011.09-.962c.468-.347.943-.617 1.359-.732.398-.11.628-.057.795.068l1.195-1.604c-.82-.612-1.753-.606-2.526-.391-.755.21-1.46.64-2.015 1.053-.566.42-1.04.87-1.34 1.183a5.22 5.22 0 00-.348.393c-.018.022-.054.07-.09.13-.009.016-.062.102-.1.222a1.001 1.001 0 00.71 1.274c.301.075.54-.013.588-.03a1.02 1.02 0 00.3-.17c.043-.035.08-.07.104-.093L12.903 3.51zm4.905-.522c-.092-.07-.035-.136-.047.065-.013.216-.106.553-.315.99-.413.864-1.145 1.843-1.87 2.537l1.383 1.445c.879-.84 1.763-2.013 2.292-3.12.262-.548.471-1.151.506-1.732.036-.594-.114-1.312-.754-1.789l-1.195 1.604zm-1.54 5.315c.48 0 1.038-.011 1.509.04.237.025.378.06.442.084.098.04-.159-.026-.246-.36l1.935-.505c-.16-.615-.677-.885-.954-.995a3.768 3.768 0 00-.964-.213c-.607-.065-1.312-.051-1.723-.051v2zm1.705-.236c.058.22.018.332-.064.446-.119.167-.36.367-.785.599-.417.228-.898.43-1.437.663-.509.22-1.082.473-1.561.778l1.076 1.686c.323-.206.752-.4 1.278-.629.497-.214 1.085-.46 1.604-.744.512-.28 1.072-.655 1.454-1.192.42-.59.58-1.31.37-2.112l-1.935.505zM14.4 12.36c.62.169 1.284.406 1.669.699.184.14.199.214.195.2-.013-.052.037-.014-.096.186l1.664 1.11c.367-.55.531-1.17.368-1.798-.153-.59-.55-1.008-.92-1.29-.721-.549-1.725-.865-2.353-1.037l-.527 1.93zm1.768 1.085c-.069.103-.386.385-1.275.713-.838.31-2.026.604-3.595.854l.316 1.976c1.639-.262 2.966-.583 3.971-.953.953-.352 1.803-.815 2.247-1.48l-1.664-1.11zM11.456 15c-2.346 0-4.703-1.427-5.585-2.991l-1.742.982C5.397 15.241 8.456 17 11.456 17v-2z" fill="#839097"/><path d="M12.5 8.5C10 10 4 16.2 2 19" stroke="#839097" stroke-width="2"/></svg>