<svg width="18" height="10" fill="none" xmlns="http://www.w3.org/2000/svg"><path d="M14.937 5.734c-.291-.35-.208-.505 0-.818.004-.004 2.406-3.165 2.653-4.237l.002-.001c.123-.39 0-.678-.595-.678H15.03c-.501 0-.732.246-.856.522 0 0-1.002 2.284-2.42 3.765-.457.428-.668.565-.918.565-.123 0-.314-.137-.314-.528V.678c0-.469-.14-.678-.555-.678H6.87c-.314 0-.501.219-.501.422 0 .444.709.547.782 1.797V4.93c0 .594-.113.703-.364.703-.67 0-2.293-2.293-3.255-4.918C3.338.206 3.149 0 2.643 0H.676C.113 0 0 .247 0 .523c0 .487.669 2.91 3.111 6.11C4.74 8.815 7.031 10 9.116 10c1.253 0 1.406-.263 1.406-.715 0-2.087-.113-2.284.515-2.284.29 0 .792.137 1.962 1.19C14.336 9.441 14.556 10 15.304 10h1.968c.561 0 .846-.263.682-.781-.374-1.091-2.903-3.335-3.017-3.485z" fill="#1A2F44"/></svg>