<svg width="44" height="44" fill="none" xmlns="http://www.w3.org/2000/svg"><rect width="44" height="44" rx="22" fill="#fff"/><path d="M22 11.88c-5.58 0-10.12 4.54-10.12 10.12 0 1.743.45 3.457 1.304 4.968l-1.288 4.594a.44.44 0 00.53.546l4.794-1.187c1.464.785 3.112 1.2 4.78 1.2 5.58 0 10.12-4.54 10.12-10.12 0-5.58-4.54-10.12-10.12-10.12zm5.09 13.692c-.216.6-1.254 1.146-1.753 1.22-.448.065-1.015.093-1.637-.102a15.236 15.236 0 01-1.48-.54c-2.607-1.112-4.309-3.703-4.44-3.875-.129-.17-1.06-1.39-1.06-2.653 0-1.262.671-1.883.91-2.14a.96.96 0 01.693-.321c.173 0 .346.002.498.01.16.007.374-.061.584.44.217.514.736 1.776.8 1.905.066.128.109.278.023.45-.087.17-.13.277-.26.427-.13.15-.273.335-.39.45-.13.128-.265.267-.114.524.152.257.673 1.097 1.446 1.777.992.874 1.83 1.145 2.089 1.273.26.129.411.107.563-.064.15-.172.649-.75.822-1.006.173-.256.346-.214.585-.128.238.085 1.515.705 1.775.834.26.128.433.193.498.3.065.106.065.62-.151 1.219z" fill="#1A2F44"/></svg>