<svg width="48" height="48" fill="none" xmlns="http://www.w3.org/2000/svg"><path d="M17.72 18.369l-.003.003-.004.003.008-.006zm17.697-.312a2.192 2.192 0 00-.41-.292 1.883 1.883 0 00-1.402-.163 1.79 1.79 0 00-.636.319c-.187.146-.34.327-.45.531a9.784 9.784 0 01-2.484 2.973c.157-.834.236-1.679.237-2.525a13.92 13.92 0 00-2.093-7.334c-1.375-2.228-3.352-4.073-5.73-5.348a1.868 1.868 0 00-1.722-.016 1.74 1.74 0 00-.652.568 1.606 1.606 0 00-.277.795 11.2 11.2 0 01-1.296 4.558 11.876 11.876 0 01-3.097 3.71l-.41.313a14.806 14.806 0 00-3.533 3.115 14.652 14.652 0 00-3.121 6.254c-.51 2.285-.447 4.65.184 6.907a14.762 14.762 0 003.45 6.1 15.994 15.994 0 005.985 4.003 1.88 1.88 0 001.663-.16c.242-.153.44-.36.578-.602a1.594 1.594 0 00.12-1.31 11.002 11.002 0 01-.338-4.317c1.682 2.985 4.382 5.352 7.666 6.719a1.88 1.88 0 001.272.063c2.595-.788 4.932-2.187 6.79-4.064 1.859-1.878 3.176-4.17 3.827-6.662.65-2.491.614-5.098-.108-7.572-.72-2.474-2.103-4.733-4.013-6.563zm-6.942 21.462a12.272 12.272 0 01-4.012-3.045 11.413 11.413 0 01-2.347-4.319 14.116 14.116 0 01-.32-1.612 1.635 1.635 0 00-.469-.92 1.848 1.848 0 00-1.292-.523c-.312 0-.619.077-.89.224-.27.147-.494.358-.65.613a14.296 14.296 0 00-2.143 7.891 11.92 11.92 0 01-3.19-3.477 11.212 11.212 0 01-1.52-4.365 11.02 11.02 0 01.388-4.579 11.45 11.45 0 012.232-4.085 11.403 11.403 0 012.777-2.438c.046-.028.09-.059.132-.092 0 0 .527-.41.546-.42 2.532-2.016 4.334-4.724 5.153-7.749 1.937 1.685 3.228 3.924 3.674 6.37.446 2.447.02 4.963-1.21 7.158a1.588 1.588 0 00.211 1.847c.225.253.525.439.862.532.337.094.696.091 1.031-.007 2.724-.803 5.12-2.372 6.867-4.495a11.311 11.311 0 012.008 4.866 11.048 11.048 0 01-.439 5.203 11.575 11.575 0 01-2.798 4.507 12.515 12.515 0 01-4.601 2.915z" fill="#fff"/></svg>