<svg width="48" height="48" fill="none" xmlns="http://www.w3.org/2000/svg"><path d="M25.36 25.142l-.59.512.711.322a16.207 16.207 0 019.522 14.748 1.589 1.589 0 01-3.177 0 13.03 13.03 0 00-26.06 0 1.588 1.588 0 01-3.178 0 16.207 16.207 0 019.522-14.748l.712-.322-.59-.512a9.775 9.775 0 01-3.378-7.39 9.942 9.942 0 0119.884 0 9.775 9.775 0 01-3.378 7.39zm13.403-.789l-.393.442.502.314a18.295 18.295 0 018.599 15.612v.003a1.588 1.588 0 01-3.177.002 15.119 15.119 0 00-8.628-13.772l-.24-.13-.794-.53h-.003a1.588 1.588 0 01-.492-2.137c.14-.234.336-.428.572-.563h0a6.766 6.766 0 003.382-5.841v-.002a6.766 6.766 0 00-6.765-6.765 1.588 1.588 0 010-3.177h0a9.942 9.942 0 017.437 16.544zm-23.726-.977a6.765 6.765 0 107.517-11.249 6.765 6.765 0 00-7.517 11.25z" fill="#fff" stroke="#fff"/></svg>