<svg width="48" height="48" fill="none" xmlns="http://www.w3.org/2000/svg"><path d="M42.182 23.493h-30.91v-9.786a3.36 3.36 0 01.5-1.793 3.535 3.535 0 011.392-1.286 3.746 3.746 0 012.086-.404 5.895 5.895 0 00-.15 3.318 6.054 6.054 0 001.673 2.904l1.929 1.857c.168.162.369.291.59.38a1.878 1.878 0 001.98-.38l6.428-6.189a1.74 1.74 0 00.395-.568 1.694 1.694 0 000-1.34 1.747 1.747 0 00-.395-.567l-1.928-1.857a6.463 6.463 0 00-4.003-1.765 6.53 6.53 0 00-4.233 1.165 7.518 7.518 0 00-3.466-.433c-1.175.13-2.3.533-3.275 1.176A7.085 7.085 0 008.47 10.44a6.782 6.782 0 00-.835 3.268v9.786H5.818c-.482 0-.944.185-1.285.513A1.718 1.718 0 004 25.244c0 .464.192.91.533 1.238.34.328.803.513 1.285.513h1.818v5.252a5.111 5.111 0 001.006 3.02 5.43 5.43 0 002.63 1.909v2.073c0 .465.192.91.533 1.238.341.329.804.513 1.286.513s.945-.184 1.286-.513a1.72 1.72 0 00.532-1.238V37.5h18.182v1.75c0 .465.191.91.532 1.238.341.329.804.513 1.286.513s.945-.184 1.286-.513a1.72 1.72 0 00.532-1.238v-2.073a5.43 5.43 0 002.63-1.91 5.111 5.111 0 001.007-3.02v-5.251h1.818c.482 0 .944-.185 1.285-.513.341-.328.533-.774.533-1.238 0-.464-.192-.91-.532-1.238a1.855 1.855 0 00-1.286-.513zM19.344 10.257a2.785 2.785 0 011.929-.767c.723 0 1.416.276 1.928.767l.643.62-3.857 3.713-.642-.62a2.58 2.58 0 01-.798-1.856c0-.696.287-1.364.797-1.857zm17.383 21.99c0 .464-.192.909-.533 1.237-.34.328-.803.513-1.285.513H13.091a1.85 1.85 0 01-1.285-.513 1.72 1.72 0 01-.533-1.237v-5.252h25.454v5.252z" fill="#fff"/></svg>