<svg width="48" height="48" fill="none" xmlns="http://www.w3.org/2000/svg"><path d="M12.518 15.663l1.254 1.558-1.254-1.558zm7.014 1.627l-1.774.923a2 2 0 003.757-.665l-1.983-.258zm3.39-7.6l-.61-1.904.61 1.905zm15.822 0l-1.197 1.603 1.197-1.602zm-4.52 10.856l-1.386-1.442a2 2 0 001.386 3.442v-2zm5.65 1.085l1.936-.503-1.936.503zm-9.04 7.6l-1.08-1.685a2 2 0 00.55 3.613l.53-1.929zm4.938 5.526l-1.666-1.107 1.666 1.107zM24.052 39v2h.16l.156-.025L24.052 39zm-11.904-8.405c-.873-1.552-1.348-4.267-1.068-7.073.284-2.832 1.273-5.16 2.692-6.3l-2.507-3.118c-2.63 2.116-3.835 5.722-4.165 9.02-.332 3.324.16 6.937 1.56 9.43l3.488-1.959zm1.624-13.373c.765-.616 1.53-.62 2.317-.306.914.364 1.542 1.054 1.669 1.297l3.547-1.847c-.627-1.204-2.054-2.495-3.733-3.165-1.805-.72-4.17-.815-6.307.903l2.507 3.117zm7.743.326c.175-1.348.514-2.929 1.001-4.196.244-.636.496-1.117.732-1.438.247-.336.362-.343.284-.318l-1.22-3.81c-1.037.332-1.778 1.066-2.288 1.76-.52.71-.925 1.547-1.242 2.372-.636 1.655-1.032 3.567-1.234 5.114l3.967.516zm2.017-5.952c.705-.226 1.66.064 2.525.894.408.391.64.768.723.981.15.384-.246-.253.407-.88l2.771 2.884c1.219-1.17.822-2.757.549-3.459-.341-.872-.956-1.716-1.679-2.41-1.396-1.341-3.83-2.68-6.516-1.82l1.22 3.81zm3.655.994c-.02.02.001-.002.049-.04a1.958 1.958 0 01.539-.3 1.998 1.998 0 012.656 1.577c.069.456-.043.809-.069.892-.072.23-.171.39-.181.408-.03.05-.055.085-.063.096l-.012.017a.094.094 0 00.006-.007l.027-.033.094-.109c.078-.089.183-.202.31-.336.517-.54 1.349-1.33 2.32-2.055.992-.74 2.01-1.32 2.908-1.57.86-.24 1.386-.129 1.776.162l2.395-3.203c-1.7-1.271-3.632-1.262-5.246-.812-1.578.44-3.054 1.345-4.224 2.217a23.329 23.329 0 00-2.82 2.497c-.306.32-.566.614-.726.823-.036.047-.11.145-.18.262-.02.034-.126.207-.2.447a2.004 2.004 0 001.42 2.545c.603.152 1.081-.025 1.179-.061a2.05 2.05 0 00.6-.343c.087-.07.163-.14.213-.189l-2.77-2.885zm10.36-1.297c-.154-.115-.026-.209-.053.246-.029.48-.232 1.212-.677 2.147-.88 1.848-2.437 3.936-3.979 5.418l2.771 2.884c1.848-1.775 3.708-4.25 4.82-6.583.55-1.155.985-2.42 1.058-3.627.074-1.234-.235-2.71-1.545-3.69l-2.395 3.205zm-3.323 11.253c1.012 0 2.2-.023 3.201.085.506.054.816.129.963.187.217.086-.28-.034-.45-.683l3.872-1.007c-.324-1.245-1.37-1.799-1.947-2.028-.647-.257-1.377-.379-2.01-.447-1.275-.137-2.758-.107-3.63-.107v4zm3.715-.41c.131.504.039.78-.155 1.052-.267.376-.797.81-1.697 1.304-.887.486-1.911.918-3.048 1.41-1.076.468-2.281 1.002-3.284 1.644l2.157 3.369c.691-.444 1.606-.86 2.719-1.343 1.053-.456 2.29-.975 3.38-1.574 1.078-.59 2.242-1.378 3.035-2.495.867-1.22 1.198-2.71.764-4.375l-3.871 1.007zm-7.635 9.023c1.31.36 2.734.866 3.566 1.502.399.304.455.484.457.492v.007c0 .003 0 .019-.006.05-.014.061-.06.207-.215.44l3.332 2.214c.76-1.146 1.095-2.423.761-3.712-.313-1.213-1.13-2.08-1.9-2.67-1.507-1.15-3.61-1.816-4.937-2.18l-1.058 3.857zm3.802 2.491c-.167.252-.87.86-2.752 1.557-1.779.66-4.298 1.287-7.618 1.818l.632 3.95c3.461-.554 6.26-1.233 8.376-2.017 2.01-.745 3.778-1.716 4.694-3.094l-3.332-2.214zM24.052 37c-4.993 0-10.017-3.045-11.904-6.405l-3.488 1.96C11.318 37.284 17.743 41 24.052 41v-4z" fill="#fff"/><path d="M28 21c-4.524 2.714-15.381 13.933-19 19" stroke="#fff" stroke-width="4" stroke-linecap="round"/></svg>