<svg width="48" height="48" fill="none" xmlns="http://www.w3.org/2000/svg"><path fill-rule="evenodd" clip-rule="evenodd" d="M14.51 14.057a1.825 1.825 0 011.77-1.41h15.44a1.815 1.815 0 011.77 1.41l.946 4.06H13.564l.945-4.06zm-8.692 7.708h1.818a9.092 9.092 0 00-1.818 5.47v1.824a5.475 5.475 0 003.637 5.16v3.957c0 .484.191.948.532 1.29.341.342.803.534 1.286.534h1.818a1.817 1.817 0 001.818-1.824V34.53h18.182v3.647a1.817 1.817 0 001.818 1.824h1.818c.483 0 .945-.192 1.286-.534a1.83 1.83 0 00.532-1.29V34.22a5.459 5.459 0 002.636-2 5.476 5.476 0 001-3.16v-1.824a9.095 9.095 0 00-1.817-5.47h1.818c.482 0 .944-.192 1.285-.534a1.827 1.827 0 000-2.58 1.816 1.816 0 00-1.285-.533h-1.818c-.452 0-.888.169-1.222.474a1.825 1.825 0 00-.588 1.174l-.056-.239-1.465-6.3a5.472 5.472 0 00-1.922-3.042A5.444 5.444 0 0031.72 9H16.28a5.444 5.444 0 00-3.39 1.185 5.472 5.472 0 00-1.923 3.042l-1.465 6.3-.055.24a1.816 1.816 0 00-1.81-1.649h-1.82c-.482 0-.944.192-1.285.534a1.826 1.826 0 001.285 3.113zm9.091 0a5.447 5.447 0 00-3.857 1.602 5.479 5.479 0 00-1.597 3.868v1.824a1.816 1.816 0 001.818 1.824h25.454a1.826 1.826 0 001.818-1.824v-1.824c0-1.45-.574-2.842-1.597-3.868a5.447 5.447 0 00-3.857-1.602H14.909zm-1.818 4.558c0-.725.287-1.42.799-1.934a2.723 2.723 0 013.857 0 2.74 2.74 0 010 3.869 2.724 2.724 0 01-3.857 0 2.74 2.74 0 01-.8-1.934zm19.09-2.735c-.722 0-1.416.288-1.928.801a2.74 2.74 0 000 3.869 2.724 2.724 0 003.857 0 2.74 2.74 0 000-3.869 2.723 2.723 0 00-1.928-.8z" fill="#fff"/></svg>