<svg width="48" height="48" fill="none" xmlns="http://www.w3.org/2000/svg"><path d="M36.167 11.806h-6.98l4.471-4.464A1.96 1.96 0 0032.278 4a1.95 1.95 0 00-1.38.573L24.5 10.91l-2.275-3.9a1.956 1.956 0 00-1.943-.965 1.948 1.948 0 00-1.632 1.43 1.96 1.96 0 00.192 1.485l1.77 2.846h-7.779c-1.547 0-3.03.617-4.124 1.714A5.857 5.857 0 007 17.654v15.597c0 1.551.615 3.039 1.709 4.136a5.825 5.825 0 004.124 1.713v1.95c0 .517.205 1.012.57 1.378a1.942 1.942 0 003.32-1.379V39.1h15.555v1.95c0 .518.205 1.013.57 1.379a1.942 1.942 0 003.319-1.379V39.1c1.547 0 3.03-.615 4.124-1.712A5.857 5.857 0 0042 33.252V17.655a5.857 5.857 0 00-1.709-4.136 5.825 5.825 0 00-4.124-1.713zm1.944 21.446c0 .517-.205 1.013-.57 1.379-.364.365-.859.57-1.374.57H12.833c-.515 0-1.01-.205-1.375-.57a1.952 1.952 0 01-.57-1.379V17.655c0-.517.206-1.013.57-1.378.365-.366.86-.571 1.375-.571h23.334a1.945 1.945 0 011.945 1.95v15.596z" fill="#fff"/></svg>