<svg width="18" height="18" fill="none" xmlns="http://www.w3.org/2000/svg"><path d="M.4 9.2a1 1 0 001.2 1.6L.4 9.2zM9 4l.6-.8a1 1 0 00-1.2 0L9 4zm7.4 6.8a1 1 0 001.2-1.6l-1.2 1.6zm-14.8 0l8-6-1.2-1.6-8 6 1.2 1.6zm6.8-6l8 6 1.2-1.6-8-6-1.2 1.6z" fill="#fff"/><path d="M3 3c0-2 4-1 4-2" stroke="#fff" stroke-width="2" stroke-linecap="round"/><path d="M15.5 9a1 1 0 10-2 0h2zm-1 8v1a1 1 0 001-1h-1zm-11 0h-1a1 1 0 001 1v-1zm1-11a1 1 0 00-2 0h2zm9 3v8h2V9h-2zm1 7h-11v2h11v-2zm-10 1V6h-2v11h2z" fill="#fff"/></svg>