<svg width="17" height="17" fill="none" xmlns="http://www.w3.org/2000/svg"><g clip-path="url(#clip0_336_37469)"><path d="M4.25 8.623v1.753h8.5V8.623c0-.967.762-1.753 1.7-1.753h.85c0-1.452-1.142-2.63-2.55-2.63h-8.5c-1.408 0-2.55 1.178-2.55 2.63h.85c.938 0 1.7.786 1.7 1.753zm11.05-.876h-.85c-.47 0-.85.391-.85.876v2.63H3.4v-2.63a.863.863 0 00-.85-.876H1.7C.762 7.747 0 8.533 0 9.5c0 .646.345 1.205.85 1.51v3.31c0 .242.191.44.425.44h1.7a.433.433 0 00.425-.44v-.437h10.2v.438c0 .241.191.438.425.438h1.7a.433.433 0 00.425-.438v-3.312c.505-.304.85-.863.85-1.51 0-.966-.762-1.752-1.7-1.752z" fill="#606A70"/></g><defs><clipPath id="clip0_336_37469"><path fill="#fff" d="M0 0h17v17H0z"/></clipPath></defs></svg>