<svg width="69" height="18" fill="none" xmlns="http://www.w3.org/2000/svg"><path d="M18.857 18c-1.047 0-1.632-.35-2.056-.604-.349-.208-.566-.34-1.084-.34-.528 0-.736.122-1.084.34-.434.255-1.01.604-2.056.604s-1.63-.35-2.055-.604c-.349-.208-.566-.34-1.084-.34-.528 0-.736.122-1.085.34C7.92 17.65 7.335 18 6.29 18c-1.047 0-1.631-.35-2.056-.604-.349-.218-.565-.34-1.084-.34-.519 0-.735.122-1.084.34C1.63 17.65 1.047 18 0 18v-1.889c.528 0 .735-.123 1.084-.34.434-.255 1.018-.604 2.065-.604s1.631.35 2.055.604c.35.217.557.34 1.085.34.528 0 .735-.123 1.084-.34.434-.255 1.018-.604 2.065-.604 1.046 0 1.63.35 2.055.604.349.208.566.34 1.084.34.519 0 .736-.123 1.085-.34.424-.255 1.008-.604 2.055-.604 1.046 0 1.631.35 2.055.604.35.217.557.34 1.085.34V18zm0-4.25c-1.047 0-1.632-.35-2.056-.604-.349-.208-.566-.34-1.084-.34-.528 0-.736.122-1.084.34-.425.255-1.01.604-2.056.604s-1.63-.35-2.055-.604c-.349-.208-.566-.34-1.084-.34-.528 0-.736.122-1.085.34-.424.255-1.008.604-2.055.604-1.046 0-1.631-.35-2.055-.604-.35-.208-.566-.34-1.085-.34-.518 0-.735.122-1.084.34-.443.255-1.027.604-2.074.604v-1.889c.528 0 .735-.123 1.084-.34.425-.255 1.01-.604 2.056-.604s1.63.35 2.055.604c.349.208.566.34 1.084.34.528 0 .736-.123 1.084-.34.425-.255 1.01-.604 2.056-.604s1.63.35 2.055.604c.349.208.566.34 1.085.34.518 0 .735-.123 1.084-.34.424-.255 1.008-.604 2.055-.604 1.047 0 1.631.35 2.055.604.35.208.566.34 1.085.34v1.889h.018zM6.289 9.5c.528 0 .735-.123 1.084-.34.434-.255 1.018-.604 2.065-.604 1.046 0 1.63.35 2.055.604.349.208.566.34 1.084.34.519 0 .736-.123 1.085-.34.113-.066.245-.142.386-.217L7.995 2.889C6.534 1.425 5.185.991 2.828 1v2.361c1.716-.01 2.725.369 3.772 1.417l.943.944-3.065 3.07c.293.113.528.255.726.368.35.217.557.34 1.085.34zm7.382-3.778a2.36 2.36 0 002.357-2.36A2.36 2.36 0 0013.671 1a2.36 2.36 0 00-2.357 2.361 2.36 2.36 0 002.357 2.361z" fill="#606A70"/><path d="M35.199 6.187c4.289 0 7.766-1.162 7.766-2.594S39.488 1 35.2 1c-4.29 0-7.767 1.161-7.767 2.593S30.91 6.187 35.2 6.187z" stroke="#606A70" stroke-width="1.982" stroke-miterlimit="10"/><path fill-rule="evenodd" clip-rule="evenodd" d="M36.477 8.174v9.783a16.457 16.457 0 002.62-.385V7.914a24.08 24.08 0 01-2.62.26zm4.603-.686v9.44c1.521-.666 2.46-1.58 2.46-2.57V6.343c-.521.445-1.374.837-2.46 1.146zm-6.585.706a24.715 24.715 0 01-3.196-.28v9.672c.967.22 2.047.36 3.196.402V8.194zm-5.178-.707c-1.087-.308-1.94-.7-2.46-1.145v8.017c0 1.025.938 1.94 2.46 2.596V7.487zM35.198 18h-.04.08-.04z" fill="#606A70"/><path d="M64.658 1.041c-.041.37-.082.698-.287 1.027a1.19 1.19 0 000 1.273c.287.533.328 1.067.164 1.642-.041.123-.123.246-.164.37a8.23 8.23 0 01-.287.657h-.943c0-.288.04-.575.164-.822.04-.123.123-.205.164-.328a1.133 1.133 0 000-1.027c-.164-.287-.287-.575-.328-.903-.041-.452 0-.862.246-1.232.123-.205.246-.41.205-.698.369.041.738.041 1.066.041zm-7.953-.001c0 .412-.123.781-.328 1.11-.205.37-.205.698 0 1.067.451.74.451 1.52 0 2.259l-.123.246c-.04.082-.04.164-.04.288h-.985c0-.288.041-.534.164-.78.041-.083.082-.206.123-.288.205-.37.205-.74 0-1.109-.328-.575-.369-1.15-.205-1.766.041-.164.164-.328.246-.533l.123-.493h1.025zm3.935 0c0 .37-.081.699-.245 1.027-.287.452-.246.863 0 1.314.368.657.368 1.356 0 2.013-.083.205-.164.41-.246.657h-.943a1.529 1.529 0 01.205-.945c.082-.164.164-.287.205-.452a.97.97 0 00-.123-.82c-.328-.535-.37-1.068-.246-1.684.04-.206.164-.37.246-.534.082-.164.123-.37.164-.534.328-.041.656-.041.984-.041zm7.666 9.98h-.901V18H52.483v-6.94h-.943c.082-.575.164-1.15.287-1.683.164-.78.82-1.273 1.599-1.314h12.79c.615 0 1.148.205 1.516.698.164.246.287.534.328.821.082.452.164.903.246 1.437zM52.73 9.992h14.389c0-.082 0-.165-.041-.247-.082-.533-.328-.739-.902-.739H53.467c-.328 0-.615.247-.697.575 0 .123 0 .288-.041.41zm9.674 4.845h-4.96v2.135h4.96v-2.135zm-7.952 2.135V11.02h-.984v5.954h.984zm10.986-5.954v5.954h.943V11.02h-.943zm-9.962 0v5.954h.943V11.02h-.943zm7.953 0v5.954h.943V11.02h-.943zm-3.976 0v2.793h.984v-2.793h-.984zm-1.025 2.793v-2.793h-.984v2.793h.984zm2.992-2.793v2.793h.984v-2.793h-.983z" fill="#606A70"/></svg>