<svg width="263" height="109" fill="none" xmlns="http://www.w3.org/2000/svg"><path fill-rule="evenodd" clip-rule="evenodd" d="M42.764 27.051L41.318 51.24h.034l-4.976-23.718 2.185 24.12h.034l-8.472-22.71 5.782 23.55h.034L24.172 31.285l9.245 22.408-14.792-19.216L31.131 55.27 13.616 38.44 29.08 57.153h.033L9.245 43.11l18.121 16.226v-.033L5.648 48.383l20.34 13.337-23.13-7.592 22.121 10.18L.975 60.242l23.399 6.786v-.033l-24.34-.437 24.138 3.225v-.033L.034 72.942l24.34-.403v-.034L.975 79.258l24.038-4.031h-.034L2.858 85.339l23.163-7.526-14.49 9.44h1.782L27.4 80.2l-7.8 6.954h2.757l6.79-4.77h-.033l-3.967 4.77h3.026l2.992-2.89-1.748 2.89h3.026l1.008-1.31v-.034l-.538 1.344h2.992l.068-.1v-.034l-.034.134h13.683l-.034-.135.068.135h2.992l-.572-1.344 1.042 1.344h3.026l-1.782-2.923 3.026 2.923h2.992l-3.967-4.838v.034l6.791 4.804h2.723l-7.8-6.988 13.852 6.988h1.849l-14.322-9.407v.034l23.13 7.559-22.121-10.18v.034l24.004 4.065-23.4-6.786v.033l24.375.437-24.172-3.225 24.172-3.158-24.374.403 23.399-6.719-24.004 3.998v.034L82.636 54.13l-23.164 7.559h.034l20.34-13.304L58.094 59.27v.034L76.248 43.11 56.38 57.119 71.912 38.44 54.329 55.237l12.573-20.761-14.86 19.183 9.313-22.375L49.521 52.45l5.85-23.516-8.506 22.71 2.286-24.121-5.043 23.718-1.344-24.189z" fill="#E7EAEB" stroke="#E7EAEB" stroke-width=".076"/><path fill-rule="evenodd" clip-rule="evenodd" d="M25.08 35.618c-2.59-.975-4.607-3.394-4.607-6.652 0-1.982.807-3.83 2.22-5.14-.909-5.006 1.916-10.146 6.79-11.96l.64-.235A10.706 10.706 0 0147.84 8.17a6.74 6.74 0 012.32-.404c2.857 0 5.345 1.58 6.488 4.233.235.504.37 1.042.47 1.58 3.665.973 6.455 3.762 7.497 7.424 1.076 3.83-.033 7.895-2.924 10.616l-.101.1a10.6 10.6 0 01.874 4.233c0 5.88-4.774 10.684-10.691 10.684a10.68 10.68 0 01-8.977-4.905c-5.883 5.442-16.338 2.52-17.75-6.114h.033z" fill="#93A2AB"/><path fill-rule="evenodd" clip-rule="evenodd" d="M26.726 35.08c1.143 8.399 12.137 10.549 16.507 3.528 1.144 3.661 4.539 6.315 8.573 6.315 4.942 0 8.977-4.031 8.977-8.97 0-3.897-2.522-7.323-6.186-8.533 2.353.202 4.438 1.31 5.95 2.957 5.144-4.872 2.824-13.707-4.236-15.252a5.459 5.459 0 01-2.017 3.225l.236-.303c2.487-3.326.336-8.566-4.337-8.566-2.286 0-4.27 1.444-5.043 3.527a5.356 5.356 0 011.647-3.494 8.921 8.921 0 00-6.69-2.99c-4.27 0-7.833 2.99-8.741 6.954-.47 2.117-.034 4.603.975 6.518l.134.235a8.95 8.95 0 01-2.387-6.786c-4.37 1.612-6.858 6.484-5.48 11.019a5.35 5.35 0 00-2.42 4.502c0 4.737 5.379 6.92 8.774 4.166a5.373 5.373 0 01-4.236 1.914v.034z" fill="#FEFEFE"/><path fill-rule="evenodd" clip-rule="evenodd" d="M55.942 16.233c3.227 1.21 5.547 4.3 5.547 7.962a8.375 8.375 0 01-1.883 5.308c.337.269.64.571.908.907 5.144-4.871 2.824-13.707-4.236-15.252-.067.37-.202.739-.336 1.108v-.033zm-6.489-6.08a5.78 5.78 0 015.783 5.777c0 .303-.034.605-.067.907 1.277-3.225-.874-7.357-5.01-7.357-1.445 0-2.79.571-3.765 1.546a5.91 5.91 0 013.06-.874z" fill="#E7EAEB"/><path fill-rule="evenodd" clip-rule="evenodd" d="M31.164 38.574c-1.076-1.075-1.883-2.418-2.253-3.93-.672.269-1.412.437-2.185.403.303 2.217 1.311 4.031 2.69 5.308a17.516 17.516 0 011.748-1.78z" fill="#E5E8EA"/><path fill-rule="evenodd" clip-rule="evenodd" d="M30.794 26.01c-1.68.235-3.26.235-5.244-.706-2.892 3.998-1.009 9.54 5.379 7.895-3.43 2.687-8.741.504-8.741-4.2 0-2.654.975-3.729 2.151-5.812-.571-4.132 1.85-8.23 5.783-9.709-.067 1.075.034 2.15.336 3.158-4.774 1.546-5.816 7.862.37 9.407l-.034-.034zm8.472-18.176a8.47 8.47 0 016.489 3.024c.269-.504.605-.94 1.042-1.344-4.74-5.274-13.313-3.191-15.263 3.36a8.507 8.507 0 017.766-5.04h-.034zm21.516 28.12c0-3.696-2.286-7.022-5.681-8.332a8.497 8.497 0 013.093 6.551 8.387 8.387 0 01-2.387 5.88 16.55 16.55 0 011.95 2.62 8.957 8.957 0 003.025-6.72z" fill="#E7EAEB"/><path fill-rule="evenodd" clip-rule="evenodd" d="M44.174 30.31a2.854 2.854 0 012.857 2.855 2.854 2.854 0 01-2.857 2.856 2.854 2.854 0 01-2.858-2.856 2.854 2.854 0 012.858-2.855z" fill="#fff"/><path fill-rule="evenodd" clip-rule="evenodd" d="M39.333 15.527c1.379 0 2.656.572 3.564 1.512a4.876 4.876 0 00-2.622 3.124c.706-1.175 1.916-2.015 3.294-2.284 2.824-.538 5.38 1.377 5.85 3.998H34.83l-.606 7.055a5.008 5.008 0 01-2.555-2.117c-2.353-3.897 1.446-8.802 5.917-7.223a5.193 5.193 0 00-2.69-1.21 4.97 4.97 0 014.472-2.821l-.034-.034zm10.658 6.316a4.652 4.652 0 00-.404-2.318c3.228-1.478 7.027.874 7.027 4.536 0 2.015-1.076 3.493-2.488 4.3l-.572-6.484h-3.563v-.034z" fill="#E7EAEB"/><path fill-rule="evenodd" clip-rule="evenodd" d="M35.871 19.291c-2.69 0-4.908 2.184-4.908 4.905A4.912 4.912 0 0035.87 29.1c2.69 0 4.909-2.184 4.909-4.905a4.912 4.912 0 00-4.909-4.905zm15.903-.371a4.963 4.963 0 00-4.976 4.972 4.963 4.963 0 004.976 4.973 4.963 4.963 0 004.975-4.973 4.963 4.963 0 00-4.975-4.972z" fill="#E7EAEB"/><path fill-rule="evenodd" clip-rule="evenodd" d="M44.344 22.28l2.992 4.972a5.821 5.821 0 002.824-4.972 5.816 5.816 0 00-5.816-5.812h-.27l.27 5.812z" fill="#FEFEFE"/><path fill-rule="evenodd" clip-rule="evenodd" d="M44.41 17.342c-2.689 0-4.908 2.184-4.908 4.905a4.912 4.912 0 004.909 4.905c2.69 0 4.908-2.184 4.908-4.905a4.912 4.912 0 00-4.908-4.905z" fill="#E7EAEB"/><path fill-rule="evenodd" clip-rule="evenodd" d="M24.374 82.046h6.489L13.986 96.794h57.522L54.53 81.944h6.489l24.475 21.401h-6.489l-3.362-2.923H9.85l-3.361 2.923H0l24.374-21.3zm-5.212-26.003h47.572l5.21 21.165H13.482l5.681-21.165z" fill="#1A2F44"/><path fill-rule="evenodd" clip-rule="evenodd" d="M21.517 58.9h42.662l4.472 17.032-26.089-3.292-25.82 3.292L21.517 58.9z" fill="#D72024"/><path fill-rule="evenodd" clip-rule="evenodd" d="M75.206 76.737l1.043 14.144-33.35 11.053-33.72-11.188 1.478-14.009 31.939-4.098 32.61 4.098z" fill="#1A2F44"/><path d="M72.684 78.888l-.437-.033-2.387-.236.64 8.802-2.287.639-.672-9.642-2.858-.269.605 10.784-2.286.638-.672-11.623-2.858-.27.572 12.767-2.32.672-.572-13.64-2.857-.269.437 14.782-2.286.672-.471-15.655-2.824-.269.235 16.798-2.32.672-.235-17.671-1.916-.202-.908-.067V95.08l-1.176.336-1.144-.336V76.268l-.907.067-1.916.202-.27 17.67-2.32-.671.27-16.798-2.858.269-.437 15.655-2.32-.672.437-14.781-2.824.268-.605 13.64-2.286-.672.538-12.766-2.858.269-.672 11.624-2.286-.639.639-10.784-2.858.269-.706 9.642-2.286-.639.639-8.802-2.354.236-.47.033-.84 10.381 30.694 8.87 30.828-8.937-.975-10.314z" fill="#FEFEFE"/><path fill-rule="evenodd" clip-rule="evenodd" d="M61.757 61.889a1.19 1.19 0 011.177 1.176 1.19 1.19 0 01-1.177 1.176 1.19 1.19 0 01-1.177-1.176 1.19 1.19 0 011.177-1.176z" fill="#FEFEFE"/><path d="M62.463 63.468c0 .235-.067.437-.168.638.403-.201.639-.57.639-1.041a1.19 1.19 0 00-1.177-1.176 1.13 1.13 0 00-.975.538c.168-.068.336-.135.504-.135a1.19 1.19 0 011.177 1.176z" fill="#E7EAEB"/><path fill-rule="evenodd" clip-rule="evenodd" d="M23.669 61.889a1.19 1.19 0 011.176 1.176 1.19 1.19 0 01-1.176 1.176 1.19 1.19 0 01-1.177-1.176 1.19 1.19 0 011.177-1.176z" fill="#FEFEFE"/><path d="M24.34 63.468c0 .235-.068.437-.169.638.404-.201.639-.57.639-1.041a1.19 1.19 0 00-1.177-1.176 1.13 1.13 0 00-.975.538c.168-.068.336-.135.505-.135a1.19 1.19 0 011.176 1.176z" fill="#E7EAEB"/><path fill-rule="evenodd" clip-rule="evenodd" d="M35.3 70.153l-16.608 2.25-.505 1.311 19.5-2.452c-.807-.336-1.614-.706-2.354-1.143l-.033.034zm15.23 0l16.607 2.25.505 1.311-19.5-2.452c.807-.336 1.614-.706 2.354-1.143l.033.034z" fill="#FEFEFE"/><path fill-rule="evenodd" clip-rule="evenodd" d="M33.148 66.458l-16.608 2.25-.505 1.311 19.5-2.452c-.807-.336-1.614-.706-2.354-1.143l-.033.034zm19.129 0l16.608 2.25.505 1.311-19.5-2.452c.807-.336 1.614-.706 2.354-1.143l.033.034z" fill="#1A2F44"/><path fill-rule="evenodd" clip-rule="evenodd" d="M32.374 21.306h20.642l.942 10.616-1.748 1.176-.303 3.863-18.39.034-.302-3.93-1.782-1.042.941-10.717z" fill="#1A2F44" stroke="#2B2A29" stroke-width=".076"/><path fill-rule="evenodd" clip-rule="evenodd" d="M34.157 23.456H51.1l.672 7.391-1.647 1.042-.303 4.065H35.535l-.302-4.065-1.58-1.042.504-7.39z" fill="#D72024"/><path fill-rule="evenodd" clip-rule="evenodd" d="M42.697 34.072c10.186 0 18.457 8.265 18.457 18.444 0 10.18-8.27 18.444-18.457 18.444-10.187 0-18.457-8.265-18.457-18.444 0-10.18 8.27-18.444 18.457-18.444z" fill="#1A2F44"/><path fill-rule="evenodd" clip-rule="evenodd" d="M42.696 36.793c8.674 0 15.7 7.022 15.7 15.69 0 8.667-7.026 15.688-15.7 15.688s-15.7-7.021-15.7-15.689c0-8.667 7.026-15.689 15.7-15.689z" fill="#D72024"/><path fill-rule="evenodd" clip-rule="evenodd" d="M42.663 42.605a9.875 9.875 0 019.884 9.877c0 5.476-4.438 9.877-9.884 9.877a9.875 9.875 0 01-9.885-9.877c0-5.476 4.438-9.877 9.885-9.877z" fill="#1A2F44"/><path fill-rule="evenodd" clip-rule="evenodd" d="M42.729 45.427c3.9 0 7.093 3.158 7.093 7.089a7.092 7.092 0 01-7.093 7.088c-3.9 0-7.094-3.158-7.094-7.088a7.093 7.093 0 017.094-7.089z" fill="#FEFEFE"/><path fill-rule="evenodd" clip-rule="evenodd" d="M42.73 50.366c1.176 0 2.151.94 2.151 2.15 0 1.176-.94 2.15-2.151 2.15a2.144 2.144 0 01-2.152-2.15c0-1.176.941-2.15 2.152-2.15zm-.035-23.987c-2.454 0-4.471 2.015-4.471 4.468 0 2.452 2.017 4.468 4.471 4.468s4.471-2.016 4.471-4.468c0-2.453-2.017-4.468-4.471-4.468z" fill="#1A2F44"/><path fill-rule="evenodd" clip-rule="evenodd" d="M42.696 28.495a2.338 2.338 0 00-2.353 2.352 2.338 2.338 0 002.353 2.352 2.338 2.338 0 002.354-2.352 2.338 2.338 0 00-2.354-2.352z" fill="#FEFEFE"/><path fill-rule="evenodd" clip-rule="evenodd" d="M42.696 29.605c.672 0 1.21.537 1.21 1.209s-.538 1.21-1.21 1.21c-.672 0-1.21-.538-1.21-1.21 0-.672.538-1.21 1.21-1.21z" fill="#1A2F44" stroke="#1A2F44" stroke-width=".2"/><path d="M104.487 65.933c.633 0 1.168.145 1.655.436.486.29.876.678 1.168 1.163.292.484.437 1.114.437 1.792 0 .678-.145 1.26-.437 1.793-.292.484-.682.92-1.168 1.162a3.25 3.25 0 01-1.655.436c-.827 0-1.508-.242-1.995-.775v3.052h-1.898v-8.914h1.801v.775c.486-.581 1.168-.872 2.092-.872v-.048zm-.34 5.183c.486 0 .876-.145 1.216-.484.292-.34.487-.775.487-1.308s-.146-.969-.487-1.308c-.292-.34-.73-.484-1.216-.484-.487 0-.876.145-1.217.484-.292.34-.486.775-.486 1.308s.146 1.017.486 1.308c.292.34.73.484 1.217.484zm14.208-5.086l-2.968 6.976c-.292.775-.681 1.308-1.119 1.599a2.86 2.86 0 01-1.606.484 3.76 3.76 0 01-1.022-.145 2.248 2.248 0 01-.827-.436l.681-1.357c.146.145.341.242.487.29.195.098.389.098.584.098.243 0 .486-.049.632-.194.146-.145.292-.34.438-.63l.049-.048-2.871-6.589h1.946l1.85 4.457 1.849-4.457h1.849l.048-.048zm6.764 6.637a4.202 4.202 0 01-1.898-.436 3.496 3.496 0 01-1.314-1.211c-.291-.533-.486-1.115-.486-1.744 0-.63.146-1.212.486-1.744.292-.533.73-.92 1.314-1.212.536-.29 1.168-.435 1.898-.435.681 0 1.314.145 1.8.435.536.291.876.679 1.12 1.26l-1.46.775c-.341-.581-.827-.92-1.46-.92-.487 0-.924.145-1.216.484-.341.34-.487.775-.487 1.308 0 .581.146 1.017.487 1.308.34.34.729.485 1.216.485.633 0 1.168-.291 1.46-.92l1.46.823c-.244.533-.633.92-1.12 1.21-.535.291-1.119.437-1.8.437v.097zm10.024 0a4.202 4.202 0 01-1.898-.436 3.496 3.496 0 01-1.314-1.211c-.292-.533-.486-1.115-.486-1.744 0-.63.146-1.212.486-1.744.292-.533.73-.92 1.314-1.212.536-.29 1.168-.435 1.898-.435.681 0 1.314.145 1.8.435.536.291.876.679 1.12 1.26l-1.46.775c-.341-.581-.827-.92-1.46-.92-.487 0-.925.145-1.217.484-.34.34-.486.775-.486 1.308 0 .581.146 1.017.486 1.308.341.34.73.485 1.217.485.633 0 1.168-.291 1.46-.92l1.46.823c-.244.533-.633.92-1.12 1.21-.535.291-1.119.437-1.8.437v.097zm9.878-2.568h-.973v2.47h-1.898v-6.54h1.898v2.568h1.022l1.8-2.567h2.044l-2.287 3.149 2.481 3.39h-2.238l-1.752-2.47h-.097zm7.834-4.07h1.898v3.876l3.211-3.875h1.752v6.54h-1.898v-3.876l-3.211 3.876h-1.752v-6.54zm17.956 3.295c0 .049 0 .194-.049.533h-4.963c.097.388.292.727.632.969.341.242.73.339 1.265.339.341 0 .633-.049.925-.145.243-.097.535-.243.73-.485l1.022 1.114c-.633.727-1.509 1.066-2.725 1.066-.73 0-1.411-.145-1.995-.436-.584-.29-1.022-.678-1.314-1.211-.292-.533-.487-1.114-.487-1.744 0-.63.146-1.211.438-1.744.292-.533.73-.92 1.265-1.211.536-.29 1.12-.436 1.801-.436.632 0 1.216.145 1.752.436.535.29.924.678 1.216 1.211.292.533.438 1.114.438 1.793l.049-.049zm-3.407-1.986c-.437 0-.778.145-1.07.387a1.494 1.494 0 00-.535 1.018h3.26c-.049-.436-.243-.727-.535-1.018a1.609 1.609 0 00-1.071-.387h-.049zm15.036-.872c.633 0 1.168.145 1.655.387.486.243.827.63 1.119 1.066.243.485.389 1.017.389 1.599 0 .63-.146 1.162-.438 1.647a2.83 2.83 0 01-1.265 1.114 4.5 4.5 0 01-1.849.388c-1.168 0-2.044-.388-2.725-1.115-.681-.726-.973-1.792-.973-3.245 0-1.308.292-2.374.876-3.15.584-.774 1.46-1.307 2.627-1.55l3.115-.63.243 1.648-2.774.533c-.73.145-1.313.387-1.654.727-.341.339-.584.823-.633 1.453.292-.29.633-.533 1.022-.727a3.729 3.729 0 011.314-.242l-.049.097zm-.438 4.796c.487 0 .876-.145 1.168-.485.292-.339.438-.726.438-1.21 0-.485-.146-.873-.438-1.163-.292-.291-.681-.436-1.168-.436-.486 0-.875.145-1.216.436-.292.29-.438.678-.438 1.162 0 .485.146.92.487 1.211a1.7 1.7 0 001.167.485zm10.219-5.33c1.022 0 1.8.243 2.336.728.535.484.827 1.21.827 2.18v3.73h-1.801v-.824c-.34.63-1.021.92-1.995.92-.486 0-.924-.096-1.313-.242-.39-.193-.633-.387-.828-.726a1.79 1.79 0 01-.292-1.017c0-.63.244-1.066.682-1.454.438-.339 1.167-.533 2.141-.533h1.508c0-.436-.146-.726-.389-.969-.243-.242-.633-.339-1.119-.339-.341 0-.682.049-1.022.146a2.469 2.469 0 00-.876.436l-.681-1.308c.34-.243.778-.436 1.314-.582.486-.145 1.021-.194 1.557-.194l-.049.049zm-.146 5.475c.341 0 .633-.097.876-.242s.438-.388.535-.678v-.678h-1.314c-.778 0-1.168.242-1.168.775 0 .242.098.436.292.58.195.146.438.195.779.195v.048zm7.834-5.377h1.898v2.567h2.871V66.03h1.898v6.54h-1.898V70.1h-2.871v2.47h-1.898v-6.54zm11.387 0h1.897v3.875l3.212-3.875h1.752v6.54h-1.898v-3.876l-3.212 3.876h-1.751v-6.54z" fill="#fff"/><path d="M117.619 36.767v18.655h-4.292V40.286h-8.44v15.136h-4.293V36.767h17.025zm20.305 14.654h-8.682l-1.639 4h-4.437l8.343-18.654h4.244l8.344 18.655h-4.534l-1.639-4.001zm-1.351-3.278l-2.942-7.134-2.942 7.134h5.932-.048zm21.125-11.376c1.639 0 3.086.29 4.292.82s2.17 1.35 2.797 2.361c.675 1.013.965 2.218.965 3.616 0 1.35-.338 2.554-.965 3.567-.675 1.012-1.591 1.783-2.797 2.362-1.206.53-2.653.82-4.292.82h-3.762v5.157h-4.341V36.815h8.103v-.048zm-.242 9.978c1.303 0 2.267-.289 2.942-.82.676-.578 1.013-1.349 1.013-2.41 0-1.06-.337-1.831-1.013-2.41-.675-.578-1.639-.82-2.942-.82h-3.52v6.46h3.52zm23.391 8.966c-1.929 0-3.665-.434-5.257-1.253-1.543-.82-2.797-1.977-3.665-3.47-.868-1.447-1.302-3.134-1.302-4.966 0-1.832.434-3.47 1.302-4.965.868-1.446 2.122-2.603 3.665-3.47 1.544-.82 3.28-1.254 5.257-1.254 1.93 0 3.666.434 5.209 1.254 1.543.819 2.749 1.976 3.666 3.47.868 1.446 1.35 3.133 1.35 4.965 0 1.832-.434 3.47-1.35 4.965-.869 1.446-2.123 2.603-3.666 3.47-1.543.82-3.279 1.254-5.209 1.254zm0-3.663c1.11 0 2.122-.242 2.991-.772.868-.53 1.591-1.205 2.073-2.12.531-.916.772-1.929.772-3.086 0-1.157-.241-2.169-.772-3.085a5.83 5.83 0 00-2.073-2.12c-.869-.53-1.881-.772-2.991-.772-1.109 0-2.122.241-2.99.771-.868.53-1.591 1.206-2.074 2.121-.53.916-.771 1.928-.771 3.085s.241 2.17.771 3.085a5.84 5.84 0 002.074 2.121c.868.53 1.881.772 2.99.772zm29.516-6.363c1.158.337 2.026.867 2.605 1.639.627.77.916 1.687.916 2.844 0 1.639-.627 2.94-1.881 3.856-1.254.916-3.038 1.398-5.353 1.398h-9.212V36.767h8.681c2.171 0 3.859.434 5.064 1.253 1.206.82 1.833 2.025 1.833 3.567a4.7 4.7 0 01-.675 2.459c-.482.723-1.109 1.253-1.929 1.687l-.049-.048zm-8.632-1.205h4.051c.964 0 1.64-.193 2.122-.579.482-.385.723-.964.723-1.687 0-.723-.241-1.301-.723-1.687-.482-.386-1.206-.578-2.122-.578h-4.051v4.53zm4.726 7.712c2.026 0 3.038-.82 3.038-2.41 0-1.542-1.012-2.314-3.038-2.314h-4.726v4.724h4.726zm22.764 3.519c-1.929 0-3.665-.434-5.257-1.253-1.543-.82-2.797-1.977-3.665-3.47-.868-1.447-1.303-3.134-1.303-4.966 0-1.832.435-3.47 1.303-4.965.868-1.446 2.122-2.603 3.665-3.47 1.543-.82 3.28-1.254 5.257-1.254 1.929 0 3.665.434 5.209 1.254 1.543.819 2.749 1.976 3.665 3.47.868 1.446 1.351 3.133 1.351 4.965 0 1.832-.435 3.47-1.351 4.965-.868 1.446-2.122 2.603-3.665 3.47-1.544.82-3.28 1.254-5.209 1.254zm0-3.663c1.109 0 2.122-.242 2.99-.772.868-.53 1.592-1.205 2.074-2.12.531-.916.772-1.929.772-3.086 0-1.157-.241-2.169-.772-3.085a5.833 5.833 0 00-2.074-2.12c-.868-.53-1.881-.772-2.99-.772-1.109 0-2.122.241-2.99.771-.868.53-1.592 1.206-2.074 2.121-.531.916-.772 1.928-.772 3.085s.241 2.17.772 3.085a5.833 5.833 0 002.074 2.121c.868.53 1.881.772 2.99.772zm26.671-6.363c1.061.385 1.929.964 2.556 1.735.627.771.916 1.687.916 2.748a4.286 4.286 0 01-1.109 2.94c-.724.82-1.736 1.494-3.039 1.928-1.254.434-2.652.675-4.196.675-1.302 0-2.556-.145-3.81-.482a16.685 16.685 0 01-3.617-1.446l1.351-3.085c.82.482 1.736.867 2.7 1.157.965.24 1.93.385 2.894.385 1.302 0 2.363-.24 3.183-.675.868-.481 1.254-1.108 1.254-1.928 0-.675-.289-1.205-.868-1.59-.579-.338-1.35-.53-2.363-.53h-4.582v-3.23h4.244c.868 0 1.544-.193 2.026-.53.482-.338.723-.868.723-1.447 0-.723-.337-1.301-1.061-1.687-.723-.385-1.591-.626-2.701-.626-.819 0-1.639.096-2.556.337a11.03 11.03 0 00-2.459 1.012l-1.302-3.374a13.84 13.84 0 016.414-1.542c1.447 0 2.797.193 4.051.626 1.206.434 2.219 1.06 2.942 1.88.724.82 1.109 1.784 1.109 2.844 0 .868-.241 1.687-.723 2.362s-1.158 1.205-1.977 1.59v-.047z" fill="#D72024"/></svg>