<svg width="166" height="166" fill="none" xmlns="http://www.w3.org/2000/svg"><path fill-rule="evenodd" clip-rule="evenodd" d="M82.95 31.053l-1.662 27.812h.039L75.61 31.593l2.51 27.736h.04l-9.735-26.113 6.644 27.078h.039L61.588 35.92 72.21 61.685 55.214 39.59l14.37 23.91-20.125-19.352 17.769 21.516h.038L44.437 49.517l20.82 18.657v-.038L40.305 55.582l23.37 15.335-26.576-8.73 25.417 11.704-27.58-4.674L61.82 77.02v-.038l-27.967-.502 27.735 3.708v-.039l-27.735 3.67 27.967-.464v-.038L34.934 91.08l27.62-4.636h-.039L37.098 98.073l26.614-8.653-16.648 10.854h2.047l16.185-8.112-8.962 7.997h3.168l7.803-5.486h-.039l-4.558 5.486h3.477l3.438-3.323-2.01 3.323h3.478l1.158-1.507v-.039l-.618 1.546h3.438l.077-.116v-.039l-.038.155h15.721l-.038-.155.077.155h3.438l-.657-1.546 1.198 1.546h3.476l-2.047-3.361 3.477 3.361h3.437l-4.558-5.563v.039l7.803 5.524h3.129l-8.962-8.035 15.915 8.035h2.125l-16.456-10.816v.038l26.576 8.692-25.417-11.705v.039l27.581 4.674-26.886-7.803v.039l28.006.502-27.774-3.709 27.774-3.63-28.006.463 26.886-7.726-27.581 4.597v.039l25.417-11.666-26.614 8.691h.038l23.37-15.296-24.992 12.515v.039l20.859-18.619-22.83 16.108 17.847-21.477-20.203 19.314 14.447-23.872-17.073 22.056 10.7-25.726-13.597 24.336 6.72-27.04-9.772 26.113 2.627-27.736-5.794 27.272-1.546-27.812z" fill="#E7EAEB" stroke="#E7EAEB" stroke-width=".076"/><path fill-rule="evenodd" clip-rule="evenodd" d="M62.63 40.903c-2.974-1.12-5.292-3.901-5.292-7.648 0-2.28.927-4.404 2.55-5.91-1.044-5.756 2.201-11.666 7.802-13.752l.734-.27C70.24 8.686 74.76 5.52 79.858 5.52c3.4 0 6.606 1.39 8.923 3.824a7.74 7.74 0 012.666-.464c3.283 0 6.142 1.816 7.455 4.867.27.58.425 1.198.54 1.816 4.211 1.12 7.417 4.326 8.615 8.537 1.236 4.403-.039 9.077-3.361 12.206l-.116.116a12.19 12.19 0 011.005 4.867c0 6.76-5.486 12.284-12.284 12.284-4.25 0-8.112-2.202-10.314-5.64-6.76 6.258-18.773 2.897-20.396-7.03h.04z" fill="#93A2AB"/><path fill-rule="evenodd" clip-rule="evenodd" d="M64.523 40.285c1.313 9.657 13.945 12.13 18.966 4.056 1.314 4.21 5.215 7.262 9.85 7.262 5.679 0 10.314-4.635 10.314-10.314 0-4.48-2.897-8.42-7.107-9.811 2.704.232 5.099 1.506 6.837 3.4 5.91-5.602 3.245-15.761-4.867-17.538a6.278 6.278 0 01-2.318 3.708l.27-.347c2.859-3.825.387-9.85-4.983-9.85-2.626 0-4.906 1.66-5.794 4.055a6.16 6.16 0 011.893-4.017 10.247 10.247 0 00-7.687-3.438c-4.906 0-9 3.438-10.044 7.996-.54 2.434-.038 5.292 1.12 7.494l.155.27a10.295 10.295 0 01-2.742-7.802c-5.022 1.854-7.88 7.455-6.297 12.67a6.153 6.153 0 00-2.781 5.176c0 5.446 6.18 7.957 10.082 4.79a6.172 6.172 0 01-4.867 2.201v.04z" fill="#FEFEFE"/><path fill-rule="evenodd" clip-rule="evenodd" d="M98.091 18.614c3.708 1.39 6.374 4.944 6.374 9.155a9.633 9.633 0 01-2.163 6.103 6.71 6.71 0 011.043 1.043c5.91-5.601 3.244-15.76-4.868-17.537-.077.425-.231.85-.386 1.274v-.038zm-7.455-6.992a6.644 6.644 0 016.644 6.644c0 .348-.039.696-.077 1.043 1.468-3.708-1.005-8.46-5.756-8.46a6.104 6.104 0 00-4.326 1.777 6.787 6.787 0 013.515-1.004z" fill="#E7EAEB"/><path fill-rule="evenodd" clip-rule="evenodd" d="M69.621 44.303c-1.236-1.236-2.163-2.781-2.588-4.52-.772.31-1.622.502-2.51.464.347 2.55 1.506 4.635 3.09 6.103a20.146 20.146 0 012.008-2.047z" fill="#E5E8EA"/><path fill-rule="evenodd" clip-rule="evenodd" d="M69.197 29.856c-1.932.27-3.747.27-6.026-.811-3.322 4.597-1.159 10.97 6.18 9.078-3.94 3.09-10.043.579-10.043-4.829 0-3.052 1.12-4.288 2.472-6.683-.656-4.75 2.125-9.464 6.644-11.163-.077 1.236.039 2.472.387 3.63-5.486 1.778-6.683 9.04.424 10.817l-.038-.039zM78.93 8.958a9.73 9.73 0 017.455 3.477 5.735 5.735 0 011.198-1.545c-5.447-6.065-15.297-3.67-17.537 3.862a9.775 9.775 0 018.923-5.794h-.039zm24.723 32.331c0-4.25-2.627-8.074-6.529-9.58a9.772 9.772 0 013.554 7.533 9.647 9.647 0 01-2.742 6.76c.85.926 1.583 1.93 2.24 3.012 2.125-1.892 3.477-4.635 3.477-7.725z" fill="#E7EAEB"/><path fill-rule="evenodd" clip-rule="evenodd" d="M84.57 34.8a3.28 3.28 0 013.283 3.284 3.28 3.28 0 01-3.283 3.284 3.28 3.28 0 01-3.284-3.284 3.28 3.28 0 013.284-3.283z" fill="#fff"/><path fill-rule="evenodd" clip-rule="evenodd" d="M79.008 17.803a5.69 5.69 0 014.095 1.738 5.606 5.606 0 00-3.013 3.592c.81-1.352 2.202-2.317 3.785-2.626 3.245-.618 6.18 1.583 6.722 4.596H73.832l-.695 8.112c-1.16-.425-2.202-1.236-2.936-2.433-2.704-4.481 1.661-10.12 6.799-8.305a5.965 5.965 0 00-3.09-1.39 5.71 5.71 0 015.137-3.246l-.039-.038zm12.245 7.262a5.352 5.352 0 00-.463-2.666c3.708-1.7 8.073 1.005 8.073 5.215 0 2.318-1.236 4.018-2.858 4.945l-.657-7.455h-4.095v-.04z" fill="#E7EAEB"/><path fill-rule="evenodd" clip-rule="evenodd" d="M75.03 22.13c-3.09 0-5.64 2.512-5.64 5.64 0 3.09 2.511 5.64 5.64 5.64 3.09 0 5.64-2.51 5.64-5.64 0-3.09-2.51-5.64-5.64-5.64zm18.272-.425a5.704 5.704 0 00-5.717 5.717 5.704 5.704 0 005.717 5.717 5.704 5.704 0 005.717-5.717 5.704 5.704 0 00-5.717-5.717z" fill="#E7EAEB"/><path fill-rule="evenodd" clip-rule="evenodd" d="M84.765 25.567l3.438 5.717a6.694 6.694 0 003.245-5.717 6.685 6.685 0 00-6.683-6.682h-.31l.31 6.682z" fill="#FEFEFE"/><path fill-rule="evenodd" clip-rule="evenodd" d="M84.842 19.889c-3.09 0-5.64 2.51-5.64 5.64 0 3.09 2.511 5.64 5.64 5.64 3.09 0 5.64-2.512 5.64-5.64 0-3.09-2.511-5.64-5.64-5.64z" fill="#E7EAEB"/><path fill-rule="evenodd" clip-rule="evenodd" d="M61.82 94.288h7.455l-19.391 16.958h66.093L96.469 94.172h7.456l28.121 24.606h-7.455l-3.863-3.361H45.133l-3.863 3.361h-7.456l28.006-24.49zm-5.988-29.899h54.659l5.987 24.335H49.304l6.528-24.335z" fill="#1A2F44"/><path fill-rule="evenodd" clip-rule="evenodd" d="M58.537 67.672h49.019l5.137 19.584-29.975-3.785-29.667 3.785 5.486-19.584z" fill="#D72024"/><path fill-rule="evenodd" clip-rule="evenodd" d="M120.226 88.183l1.197 16.263-38.319 12.708-38.744-12.863 1.7-16.108 36.697-4.712 37.469 4.712z" fill="#1A2F44"/><path d="M117.328 90.656l-.502-.04-2.743-.27.734 10.121-2.626.734-.773-11.086-3.283-.31.695 12.4-2.627.734-.772-13.365-3.284-.309.657 14.679-2.665.772-.657-15.683-3.283-.309.502 16.997-2.627.772-.54-18-3.246-.31.27 19.314-2.664.773-.27-20.318-2.203-.232-1.043-.077v21.631l-1.352.387-1.313-.387V87.643l-1.043.077-2.202.232-.309 20.318-2.665-.773.309-19.314-3.283.31-.503 18-2.665-.772.502-16.997-3.245.31-.695 15.682-2.627-.772.619-14.679-3.284.309-.773 13.365-2.626-.734.734-12.4-3.284.31-.81 11.086-2.628-.734.734-10.12-2.704.27-.54.039-.966 11.936 35.267 10.198 35.422-10.276-1.12-11.858z" fill="#FEFEFE"/><path fill-rule="evenodd" clip-rule="evenodd" d="M104.773 71.11c.734 0 1.352.617 1.352 1.351s-.618 1.352-1.352 1.352a1.369 1.369 0 01-1.352-1.352c0-.734.618-1.352 1.352-1.352z" fill="#FEFEFE"/><path d="M105.584 72.925c0 .27-.077.502-.193.734.463-.232.734-.657.734-1.198 0-.734-.618-1.352-1.352-1.352-.464 0-.889.232-1.121.618.194-.077.387-.154.58-.154.734 0 1.352.618 1.352 1.352z" fill="#E7EAEB"/><path fill-rule="evenodd" clip-rule="evenodd" d="M61.01 71.11c.733 0 1.351.617 1.351 1.351s-.618 1.352-1.352 1.352a1.369 1.369 0 01-1.352-1.352c0-.734.618-1.352 1.352-1.352z" fill="#FEFEFE"/><path d="M61.78 72.925c0 .27-.077.502-.193.734.463-.232.734-.657.734-1.198 0-.734-.618-1.352-1.352-1.352-.464 0-.889.232-1.12.618.193-.077.386-.154.579-.154.734 0 1.352.618 1.352 1.352z" fill="#E7EAEB"/><path fill-rule="evenodd" clip-rule="evenodd" d="M74.373 80.613L55.291 83.2l-.58 1.506 22.405-2.82c-.927-.386-1.854-.81-2.704-1.313l-.039.039zm17.499 0l19.083 2.588.579 1.506-22.404-2.82c.927-.386 1.854-.81 2.704-1.313l.038.039z" fill="#FEFEFE"/><path fill-rule="evenodd" clip-rule="evenodd" d="M71.9 76.365l-19.082 2.588-.58 1.506 22.405-2.82c-.927-.386-1.854-.81-2.704-1.313l-.038.039zm21.98 0l19.083 2.588.58 1.506-22.405-2.82c.927-.386 1.854-.81 2.704-1.313l.039.039z" fill="#1A2F44"/><path fill-rule="evenodd" clip-rule="evenodd" d="M71.012 24.447H94.73l1.081 12.207-2.008 1.352-.348 4.442-21.13.039-.347-4.52-2.047-1.197 1.081-12.323z" fill="#1A2F44" stroke="#2B2A29" stroke-width=".076"/><path fill-rule="evenodd" clip-rule="evenodd" d="M73.06 26.92h19.47l.772 8.498-1.892 1.198-.348 4.674H74.644l-.348-4.674-1.815-1.198.58-8.498z" fill="#D72024"/><path fill-rule="evenodd" clip-rule="evenodd" d="M82.872 39.125c11.705 0 21.207 9.502 21.207 21.207 0 11.704-9.502 21.207-21.207 21.207-11.704 0-21.206-9.503-21.206-21.207 0-11.705 9.502-21.207 21.206-21.207z" fill="#1A2F44"/><path fill-rule="evenodd" clip-rule="evenodd" d="M82.872 42.254c9.966 0 18.039 8.073 18.039 18.04 0 9.965-8.073 18.039-18.04 18.039-9.965 0-18.038-8.074-18.038-18.04s8.073-18.04 18.039-18.04z" fill="#D72024"/><path fill-rule="evenodd" clip-rule="evenodd" d="M82.833 48.938c6.297 0 11.357 5.098 11.357 11.356 0 6.297-5.099 11.357-11.357 11.357-6.296 0-11.356-5.1-11.356-11.357 0-6.296 5.099-11.356 11.356-11.356z" fill="#1A2F44"/><path fill-rule="evenodd" clip-rule="evenodd" d="M82.91 52.182c4.48 0 8.15 3.63 8.15 8.15 0 4.481-3.631 8.15-8.15 8.15-4.481 0-8.151-3.63-8.151-8.15 0-4.48 3.63-8.15 8.15-8.15z" fill="#FEFEFE"/><path fill-rule="evenodd" clip-rule="evenodd" d="M82.91 57.861a2.465 2.465 0 012.473 2.473 2.465 2.465 0 01-2.472 2.472 2.465 2.465 0 01-2.473-2.472 2.465 2.465 0 012.472-2.473zm-.04-27.581c-2.82 0-5.137 2.317-5.137 5.137 0 2.82 2.318 5.137 5.138 5.137s5.137-2.317 5.137-5.137c0-2.82-2.318-5.138-5.137-5.138z" fill="#1A2F44"/><path fill-rule="evenodd" clip-rule="evenodd" d="M82.872 32.713a2.687 2.687 0 00-2.704 2.704 2.687 2.687 0 002.704 2.704 2.687 2.687 0 002.704-2.704 2.687 2.687 0 00-2.704-2.704z" fill="#FEFEFE"/><path fill-rule="evenodd" clip-rule="evenodd" d="M82.871 33.988c.773 0 1.391.618 1.391 1.39 0 .773-.618 1.392-1.39 1.392a1.386 1.386 0 01-1.391-1.391c0-.773.618-1.39 1.39-1.39z" fill="#1A2F44" stroke="#1A2F44" stroke-width=".2"/><path d="M40.458 147.632c.502 0 .927.116 1.313.347.386.232.696.541.927.927.232.387.348.889.348 1.43a2.9 2.9 0 01-.348 1.429c-.231.386-.54.734-.927.927-.386.232-.85.348-1.313.348-.657 0-1.198-.193-1.584-.618v2.433h-1.506v-7.107h1.429v.618c.386-.464.927-.696 1.66-.696v-.038zm-.27 4.133c.386 0 .695-.116.965-.386a1.57 1.57 0 00.386-1.043c0-.425-.115-.773-.386-1.043-.232-.271-.58-.387-.965-.387-.387 0-.696.116-.966.387-.232.27-.386.618-.386 1.043 0 .425.115.811.386 1.043.232.27.58.386.965.386zm11.279-4.056l-2.356 5.562c-.232.618-.541 1.043-.889 1.275a2.262 2.262 0 01-1.275.386c-.27 0-.54-.038-.81-.115a1.799 1.799 0 01-.657-.348l.54-1.082c.116.116.27.193.387.232.154.077.309.077.463.077.193 0 .387-.038.502-.154.116-.116.232-.271.348-.502l.039-.039-2.28-5.253h1.546l1.468 3.553 1.467-3.553h1.468l.039-.039zm5.37 5.292a3.32 3.32 0 01-1.507-.348 2.767 2.767 0 01-1.043-.965c-.232-.425-.386-.889-.386-1.391s.115-.966.386-1.391c.232-.424.58-.733 1.043-.965.425-.232.927-.348 1.506-.348.541 0 1.043.116 1.43.348.424.232.695.541.888 1.004l-1.159.618c-.27-.463-.657-.734-1.159-.734-.386 0-.734.116-.965.386-.27.271-.387.619-.387 1.043 0 .464.116.812.386 1.043.27.271.58.387.966.387.502 0 .927-.232 1.16-.734l1.158.656c-.193.425-.502.734-.889.966a2.898 2.898 0 01-1.429.348v.077zm7.957 0a3.322 3.322 0 01-1.507-.348 2.767 2.767 0 01-1.043-.965c-.232-.425-.386-.889-.386-1.391s.116-.966.386-1.391c.232-.424.58-.733 1.043-.965.425-.232.927-.348 1.507-.348.54 0 1.043.116 1.429.348.425.232.695.541.888 1.004l-1.159.618c-.27-.463-.656-.734-1.158-.734-.387 0-.734.116-.966.386-.27.271-.386.619-.386 1.043 0 .464.115.812.386 1.043.27.271.58.387.966.387.502 0 .927-.232 1.159-.734l1.158.656c-.193.425-.502.734-.888.966a2.898 2.898 0 01-1.43.348v.077zm7.841-2.047h-.772v1.97h-1.507v-5.215h1.507v2.047h.81l1.43-2.047h1.622l-1.815 2.511 1.97 2.704h-1.777l-1.39-1.97h-.078zm6.22-3.245h1.506v3.09l2.55-3.09h1.39v5.215h-1.507v-3.09l-2.55 3.09h-1.39v-5.215zm14.253 2.627c0 .038 0 .154-.038.425h-3.94c.077.309.231.579.502.772.27.193.579.271 1.004.271.27 0 .502-.039.734-.116.193-.078.425-.193.58-.387l.81.889c-.502.579-1.197.85-2.163.85a3.53 3.53 0 01-1.584-.348c-.463-.232-.81-.541-1.042-.966-.232-.425-.387-.888-.387-1.39 0-.502.116-.966.348-1.391.232-.425.58-.734 1.004-.966a2.908 2.908 0 011.43-.347c.502 0 .965.116 1.39.347.425.232.734.541.966.966a2.9 2.9 0 01.348 1.429l.038-.038zm-2.704-1.584c-.347 0-.618.116-.85.309a1.194 1.194 0 00-.425.811h2.588c-.038-.348-.193-.579-.424-.811a1.273 1.273 0 00-.85-.309h-.039zm11.936-.695c.502 0 .927.116 1.314.309.386.193.656.502.888.849.193.387.309.812.309 1.275 0 .502-.116.927-.348 1.314a2.244 2.244 0 01-1.004.888 3.561 3.561 0 01-1.468.309c-.927 0-1.622-.309-2.163-.888-.54-.58-.772-1.43-.772-2.589 0-1.042.231-1.892.695-2.51.463-.618 1.159-1.043 2.086-1.236l2.472-.503.193 1.314-2.202.425c-.579.116-1.043.309-1.313.579-.271.27-.464.657-.502 1.159.231-.232.502-.425.811-.579a2.948 2.948 0 011.043-.194l-.039.078zm-.347 3.824c.386 0 .695-.116.927-.386.231-.271.347-.58.347-.966s-.116-.695-.347-.927c-.232-.232-.541-.348-.927-.348a1.41 1.41 0 00-.966.348c-.232.232-.348.541-.348.927s.116.734.387.966c.231.231.579.386.927.386zm8.111-4.249c.812 0 1.43.193 1.855.579.425.386.656.966.656 1.738v2.975h-1.429v-.657c-.27.502-.811.734-1.584.734-.386 0-.734-.077-1.043-.193-.309-.155-.502-.309-.656-.58a1.422 1.422 0 01-.232-.811c0-.502.193-.85.541-1.159.347-.27.927-.424 1.699-.424h1.198c0-.348-.116-.58-.309-.773-.193-.193-.502-.27-.889-.27-.27 0-.54.038-.811.115-.27.078-.502.194-.695.348l-.541-1.043c.27-.193.618-.348 1.043-.463.386-.116.811-.155 1.236-.155l-.039.039zm-.115 4.365c.27 0 .502-.078.695-.193a.999.999 0 00.425-.541v-.541h-1.043c-.618 0-.927.193-.927.618a.55.55 0 00.232.464c.154.115.347.154.618.154v.039zm6.219-4.288h1.506v2.047h2.279v-2.047h1.507v5.215h-1.507v-1.97h-2.279v1.97h-1.506v-5.215zm9.039 0h1.506v3.09l2.55-3.09h1.39v5.215h-1.506v-3.09l-2.55 3.09h-1.39v-5.215z" fill="#fff"/><path d="M33.002 126.773v14.95h-3.438v-12.13h-6.76v12.13h-3.437v-14.95h13.635zm16.263 11.743h-6.953l-1.314 3.207h-3.553l6.682-14.95h3.4l6.682 14.95h-3.63l-1.314-3.207zm-1.082-2.626l-2.356-5.717-2.356 5.717h4.75-.038zm16.92-9.117c1.313 0 2.472.232 3.437.657.966.425 1.739 1.082 2.24 1.893.541.811.773 1.777.773 2.897 0 1.082-.27 2.047-.772 2.858-.541.812-1.275 1.43-2.24 1.893-.966.425-2.125.657-3.439.657H62.09v4.133h-3.476v-14.949h6.49v-.039zm-.194 7.996c1.043 0 1.816-.231 2.357-.656.54-.464.81-1.082.81-1.932 0-.849-.27-1.467-.81-1.931-.541-.464-1.314-.657-2.357-.657h-2.82v5.176h2.82zm18.735 7.185c-1.545 0-2.936-.347-4.21-1.004-1.237-.657-2.241-1.584-2.936-2.781-.696-1.159-1.043-2.511-1.043-3.979s.347-2.781 1.043-3.979c.695-1.159 1.7-2.086 2.935-2.781 1.236-.657 2.627-1.004 4.21-1.004 1.546 0 2.937.347 4.173 1.004 1.236.657 2.202 1.584 2.935 2.781a7.674 7.674 0 011.082 3.979c0 1.468-.348 2.781-1.082 3.979-.695 1.159-1.7 2.086-2.935 2.781-1.236.657-2.627 1.004-4.172 1.004zm0-2.935c.888 0 1.7-.194 2.395-.618.695-.425 1.275-.966 1.66-1.7.426-.734.619-1.545.619-2.472s-.193-1.739-.618-2.473a4.681 4.681 0 00-1.661-1.699c-.695-.425-1.507-.618-2.395-.618-.889 0-1.7.193-2.395.618-.695.425-1.275.966-1.661 1.699-.425.734-.618 1.546-.618 2.473 0 .927.193 1.738.618 2.472a4.676 4.676 0 001.661 1.7c.695.424 1.507.618 2.395.618zm23.64-5.099c.927.27 1.623.695 2.086 1.313.502.618.734 1.352.734 2.279 0 1.313-.502 2.356-1.506 3.09-1.005.734-2.434 1.121-4.288 1.121h-7.378v-14.95h6.953c1.738 0 3.09.348 4.056 1.005.966.656 1.468 1.622 1.468 2.858 0 .734-.193 1.391-.541 1.97-.386.58-.888 1.005-1.545 1.352l-.039-.038zm-6.914-.966h3.245c.772 0 1.313-.155 1.699-.464.387-.309.58-.772.58-1.352 0-.579-.193-1.043-.58-1.352-.386-.309-.965-.463-1.699-.463h-3.245v3.631zm3.785 6.18c1.623 0 2.434-.656 2.434-1.931 0-1.236-.811-1.854-2.434-1.854h-3.785v3.785h3.785zm18.233 2.82c-1.545 0-2.936-.347-4.21-1.004-1.237-.657-2.241-1.584-2.936-2.781-.696-1.159-1.043-2.511-1.043-3.979s.347-2.781 1.043-3.979c.695-1.159 1.699-2.086 2.936-2.781 1.236-.657 2.626-1.004 4.21-1.004 1.545 0 2.936.347 4.172 1.004 1.236.657 2.202 1.584 2.936 2.781a7.677 7.677 0 011.081 3.979c0 1.468-.348 2.781-1.081 3.979-.696 1.159-1.7 2.086-2.936 2.781-1.236.657-2.627 1.004-4.172 1.004zm0-2.935c.888 0 1.7-.194 2.395-.618.695-.425 1.275-.966 1.661-1.7.425-.734.618-1.545.618-2.472s-.193-1.739-.618-2.473a4.684 4.684 0 00-1.661-1.699c-.695-.425-1.507-.618-2.395-.618-.888 0-1.7.193-2.395.618-.695.425-1.275.966-1.661 1.699-.425.734-.618 1.546-.618 2.473 0 .927.193 1.738.618 2.472a4.68 4.68 0 001.661 1.7c.695.424 1.507.618 2.395.618zm21.361-5.099c.85.309 1.545.772 2.048 1.39.502.618.734 1.352.734 2.202 0 .927-.309 1.7-.889 2.356-.579.657-1.39 1.198-2.433 1.546-1.005.347-2.125.54-3.361.54-1.043 0-2.047-.116-3.052-.386a13.346 13.346 0 01-2.897-1.159l1.082-2.472c.656.386 1.39.695 2.163.927a9.557 9.557 0 002.318.309c1.043 0 1.892-.193 2.549-.541.695-.386 1.004-.888 1.004-1.545 0-.541-.231-.966-.695-1.275-.463-.27-1.081-.424-1.893-.424h-3.669v-2.589h3.399c.695 0 1.236-.154 1.622-.424.387-.271.58-.696.58-1.159 0-.58-.271-1.043-.85-1.352-.58-.309-1.275-.502-2.163-.502a7.87 7.87 0 00-2.048.27 8.795 8.795 0 00-1.97.811l-1.043-2.704a11.089 11.089 0 015.138-1.236c1.159 0 2.24.155 3.245.502.965.348 1.777.85 2.356 1.507.58.656.889 1.429.889 2.279 0 .695-.194 1.352-.58 1.893-.386.54-.927.965-1.584 1.274v-.038z" fill="#D72024"/></svg>