<svg width="71" height="82" fill="none" xmlns="http://www.w3.org/2000/svg"><path fill-rule="evenodd" clip-rule="evenodd" d="M35.284 18.336l-1.193 19.972h.028l-4.105-19.584 1.803 19.917h.027l-6.99-18.752 4.771 19.445h.028l-9.708-17.503 7.628 18.502-12.206-15.867 10.32 17.17L11.233 27.74l12.76 15.451h.028L7.628 31.595 22.58 44.993v-.028L4.66 35.95l16.782 11.013-19.084-6.27L20.61 49.1.805 45.742l19.306 5.603v-.027l-20.083-.36 19.917 2.662v-.028L.027 56.228l20.083-.333v-.028L.805 61.442l19.833-3.328h-.028l-18.252 8.35L21.47 60.25 9.515 68.044h1.47l11.622-5.825-6.435 5.742h2.275l5.603-3.939h-.028l-3.273 3.94h2.496l2.47-2.386-1.443 2.385h2.496l.832-1.082v-.028l-.443 1.11h2.468l.056-.083v-.028l-.028.111h11.29l-.028-.11.056.11h2.468l-.471-1.11.86 1.11h2.496l-1.47-2.413 2.497 2.413h2.468l-3.273-3.994v.027l5.604 3.967h2.246l-6.435-5.77 11.428 5.77h1.526l-11.817-7.767v.028l19.085 6.241-18.253-8.405v.028l19.806 3.356L50.43 55.84v.028l20.11.36-19.944-2.662 19.944-2.608-20.11.333 19.306-5.548-19.806 3.301v.028l18.253-8.377-19.113 6.24h.028L65.88 35.95l-17.947 8.988v.027l14.98-13.37-16.394 11.567L59.334 27.74 44.826 41.608l10.375-17.143-12.26 15.84 7.683-18.475-9.764 17.476 4.826-19.418-7.018 18.752 1.887-19.917-4.161 19.584-1.11-19.972z" fill="#E7EAEB" stroke="#E7EAEB" stroke-width=".076"/><path fill-rule="evenodd" clip-rule="evenodd" d="M20.693 25.409c-2.136-.804-3.8-2.802-3.8-5.492 0-1.637.665-3.163 1.83-4.244-.749-4.134 1.582-8.378 5.604-9.876l.527-.194A8.84 8.84 0 0133.064 0a8.83 8.83 0 016.408 2.746 5.556 5.556 0 011.914-.333c2.358 0 4.41 1.304 5.354 3.495.194.416.305.86.388 1.304 3.024.805 5.326 3.107 6.186 6.13.888 3.163-.028 6.52-2.413 8.766l-.084.083a8.757 8.757 0 01.722 3.495c0 4.855-3.94 8.821-8.821 8.821a8.81 8.81 0 01-7.407-4.05c-4.854 4.494-13.48 2.08-14.646-5.048h.028z" fill="#93A2AB"/><path fill-rule="evenodd" clip-rule="evenodd" d="M22.052 24.965c.943 6.935 10.014 8.71 13.62 2.913.943 3.023 3.745 5.215 7.073 5.215 4.078 0 7.407-3.33 7.407-7.407a7.43 7.43 0 00-5.104-7.046c1.941.167 3.661 1.082 4.91 2.441 4.244-4.022 2.33-11.317-3.496-12.593a4.507 4.507 0 01-1.664 2.663l.194-.25c2.053-2.746.278-7.073-3.578-7.073a4.445 4.445 0 00-4.161 2.912 4.424 4.424 0 011.36-2.885 7.359 7.359 0 00-5.521-2.468c-3.523 0-6.463 2.468-7.212 5.742-.389 1.747-.028 3.8.804 5.381l.111.194a7.393 7.393 0 01-1.97-5.603c-3.605 1.331-5.658 5.354-4.52 9.098a4.419 4.419 0 00-1.998 3.717c0 3.912 4.438 5.715 7.24 3.44a4.432 4.432 0 01-3.495 1.581v.028z" fill="#FEFEFE"/><path fill-rule="evenodd" clip-rule="evenodd" d="M46.157 9.403c2.663.999 4.577 3.55 4.577 6.574 0 1.665-.582 3.19-1.553 4.383.277.222.527.472.749.75 4.244-4.023 2.33-11.318-3.495-12.594-.056.305-.167.61-.278.915v-.028zm-5.353-5.02a4.77 4.77 0 014.77 4.77c0 .25-.027.5-.055.75 1.054-2.663-.721-6.075-4.133-6.075a4.384 4.384 0 00-3.107 1.276 4.874 4.874 0 012.525-.722z" fill="#E7EAEB"/><path fill-rule="evenodd" clip-rule="evenodd" d="M25.713 27.85c-.887-.887-1.553-1.997-1.858-3.245a4.347 4.347 0 01-1.803.333c.25 1.83 1.082 3.329 2.219 4.383.444-.527.943-1.027 1.442-1.47z" fill="#E5E8EA"/><path fill-rule="evenodd" clip-rule="evenodd" d="M25.408 17.476c-1.387.194-2.69.194-4.327-.583-2.386 3.3-.832 7.878 4.438 6.519-2.83 2.219-7.212.416-7.212-3.468 0-2.191.805-3.079 1.775-4.799-.471-3.412 1.526-6.796 4.771-8.016a7.471 7.471 0 00.278 2.607c-3.939 1.276-4.799 6.491.305 7.767l-.028-.027zm6.99-15.007c2.136 0 4.078.97 5.354 2.496.222-.416.5-.776.86-1.11C34.701-.498 27.627 1.22 26.02 6.63a7.02 7.02 0 016.407-4.161H32.4zm17.753 23.217c0-3.05-1.886-5.797-4.688-6.879a7.018 7.018 0 012.552 5.41 6.928 6.928 0 01-1.97 4.854 13.62 13.62 0 011.61 2.163 7.398 7.398 0 002.496-5.548z" fill="#E7EAEB"/><path fill-rule="evenodd" clip-rule="evenodd" d="M36.448 21.026a2.356 2.356 0 012.358 2.358 2.356 2.356 0 01-2.358 2.358 2.356 2.356 0 01-2.358-2.358 2.356 2.356 0 012.358-2.358z" fill="#fff"/><path fill-rule="evenodd" clip-rule="evenodd" d="M32.454 8.82c1.137 0 2.191.472 2.94 1.249a4.026 4.026 0 00-2.164 2.58 4.092 4.092 0 012.719-1.887c2.33-.444 4.438 1.138 4.827 3.301h-12.04l-.499 5.825a4.132 4.132 0 01-2.108-1.747c-1.942-3.218 1.193-7.268 4.882-5.964a4.282 4.282 0 00-2.219-.999 4.1 4.1 0 013.69-2.33l-.028-.027zm8.793 5.216a3.844 3.844 0 00-.333-1.915c2.663-1.22 5.798.722 5.798 3.745 0 1.665-.888 2.885-2.053 3.55l-.472-5.353h-2.94v-.027z" fill="#E7EAEB"/><path fill-rule="evenodd" clip-rule="evenodd" d="M29.597 11.928a4.055 4.055 0 00-4.05 4.05c0 2.22 1.803 4.05 4.05 4.05 2.22 0 4.05-1.803 4.05-4.05a4.055 4.055 0 00-4.05-4.05zm13.121-.306a4.096 4.096 0 00-4.105 4.106 4.096 4.096 0 004.105 4.105 4.096 4.096 0 004.106-4.105 4.096 4.096 0 00-4.106-4.106z" fill="#E7EAEB"/><path fill-rule="evenodd" clip-rule="evenodd" d="M36.588 14.396l2.468 4.106a4.807 4.807 0 002.33-4.105 4.8 4.8 0 00-4.798-4.8h-.222l.222 4.8z" fill="#FEFEFE"/><path fill-rule="evenodd" clip-rule="evenodd" d="M36.643 10.319a4.055 4.055 0 00-4.05 4.05 4.055 4.055 0 004.05 4.05c2.22 0 4.05-1.803 4.05-4.05 0-2.22-1.803-4.05-4.05-4.05z" fill="#E7EAEB"/><path fill-rule="evenodd" clip-rule="evenodd" d="M20.11 63.744h5.355L11.539 75.921h47.462l-14.008-12.26h5.353L70.54 81.33h-5.353l-2.774-2.414H8.128L5.354 81.33H0l20.11-17.587zm-4.3-21.47h39.252l4.3 17.476h-48.24l4.688-17.476z" fill="#1A2F44"/><path fill-rule="evenodd" clip-rule="evenodd" d="M17.753 44.633h35.2l3.69 14.063-21.525-2.718-21.304 2.718 3.939-14.063z" fill="#D72024"/><path fill-rule="evenodd" clip-rule="evenodd" d="M62.052 59.361l.86 11.678-27.517 9.126-27.822-9.237 1.22-11.567 26.352-3.384 26.907 3.384z" fill="#1A2F44"/><path d="M59.972 61.137l-.36-.028-1.97-.194.527 7.268-1.887.527-.554-7.961-2.358-.222.5 8.904-1.887.527-.555-9.598-2.358-.222.472 10.541-1.914.555-.472-11.262-2.358-.222.361 12.205-1.886.555-.389-12.926-2.33-.222.194 13.87-1.913.554-.195-14.59-1.58-.167-.75-.056v15.534l-.97.278-.944-.278V58.973l-.749.056-1.58.166-.223 14.591-1.914-.555.222-13.87-2.358.223-.36 12.926-1.914-.555.36-12.205-2.33.222-.499 11.262-1.886-.555.444-10.54-2.358.221-.555 9.598-1.886-.527.527-8.904-2.358.222-.583 7.96-1.886-.526.527-7.268-1.942.194-.388.028-.693 8.571 25.325 7.323 25.437-7.378-.804-8.516z" fill="#FEFEFE"/><path fill-rule="evenodd" clip-rule="evenodd" d="M50.955 47.101c.527 0 .971.444.971.97a.983.983 0 01-.97.972.983.983 0 01-.972-.971c0-.527.444-.97.971-.97z" fill="#FEFEFE"/><path d="M51.538 48.405c0 .194-.056.36-.139.527a.923.923 0 00.527-.86.983.983 0 00-.97-.97.93.93 0 00-.805.443c.139-.056.277-.111.416-.111.527 0 .97.444.97.97z" fill="#E7EAEB"/><path fill-rule="evenodd" clip-rule="evenodd" d="M19.529 47.101c.526 0 .97.444.97.97a.983.983 0 01-.97.972.983.983 0 01-.971-.971c0-.527.443-.97.97-.97z" fill="#FEFEFE"/><path d="M20.082 48.405c0 .194-.055.36-.138.527a.923.923 0 00.527-.86.983.983 0 00-.971-.97.93.93 0 00-.805.443c.139-.056.278-.111.416-.111.527 0 .971.444.971.97z" fill="#E7EAEB"/><path fill-rule="evenodd" clip-rule="evenodd" d="M29.125 53.925l-13.703 1.858-.416 1.082 16.089-2.025a15.694 15.694 0 01-1.942-.943l-.027.028zm12.567 0l13.703 1.858.416 1.082-16.089-2.025a15.7 15.7 0 001.942-.943l.028.028z" fill="#FEFEFE"/><path fill-rule="evenodd" clip-rule="evenodd" d="M27.35 50.874l-13.703 1.858-.417 1.082 16.09-2.025a15.68 15.68 0 01-1.943-.943l-.027.028zm15.784 0l13.703 1.858.416 1.082-16.088-2.025a15.687 15.687 0 001.941-.943l.028.028z" fill="#1A2F44"/><path fill-rule="evenodd" clip-rule="evenodd" d="M26.712 13.592h17.031l.777 8.766-1.442.97-.25 3.19-15.173.028-.25-3.245-1.47-.86.777-8.849z" fill="#1A2F44" stroke="#2B2A29" stroke-width=".076"/><path fill-rule="evenodd" clip-rule="evenodd" d="M28.183 15.367h13.98l.555 6.103-1.36.86-.249 3.356H29.32l-.25-3.356-1.303-.86.416-6.103z" fill="#D72024"/><path fill-rule="evenodd" clip-rule="evenodd" d="M35.229 24.133c8.405 0 15.229 6.824 15.229 15.229S43.634 54.59 35.228 54.59C26.825 54.59 20 47.767 20 39.362s6.824-15.229 15.229-15.229z" fill="#1A2F44"/><path fill-rule="evenodd" clip-rule="evenodd" d="M35.229 26.38c7.156 0 12.954 5.797 12.954 12.954 0 7.156-5.798 12.954-12.954 12.954-7.157 0-12.955-5.797-12.955-12.954 0-7.157 5.798-12.954 12.955-12.954z" fill="#D72024"/><path fill-rule="evenodd" clip-rule="evenodd" d="M35.2 31.178a8.15 8.15 0 018.156 8.156 8.15 8.15 0 01-8.155 8.155 8.15 8.15 0 01-8.156-8.155 8.15 8.15 0 018.156-8.156z" fill="#1A2F44"/><path fill-rule="evenodd" clip-rule="evenodd" d="M35.255 33.508a5.854 5.854 0 010 11.706 5.854 5.854 0 010-11.706z" fill="#FEFEFE"/><path fill-rule="evenodd" clip-rule="evenodd" d="M35.256 37.587a1.77 1.77 0 011.776 1.775 1.77 1.77 0 01-1.776 1.775 1.77 1.77 0 01-1.775-1.775c0-.97.777-1.775 1.775-1.775zm-.029-19.807a3.706 3.706 0 00-3.689 3.69 3.705 3.705 0 003.69 3.69 3.706 3.706 0 003.689-3.69 3.706 3.706 0 00-3.69-3.69z" fill="#1A2F44"/><path fill-rule="evenodd" clip-rule="evenodd" d="M35.228 19.528a1.93 1.93 0 00-1.941 1.942 1.93 1.93 0 001.941 1.942 1.93 1.93 0 001.942-1.942 1.93 1.93 0 00-1.942-1.942z" fill="#FEFEFE"/><path fill-rule="evenodd" clip-rule="evenodd" d="M35.228 20.444c.555 0 .999.444.999.999a.994.994 0 01-.999.998.994.994 0 01-.998-.998c0-.555.443-.999.998-.999z" fill="#1A2F44" stroke="#1A2F44" stroke-width=".2"/></svg>