<svg width="40" height="40" fill="none" xmlns="http://www.w3.org/2000/svg"><g filter="url(#filter0_b_27_5242)"><rect width="40" height="40" rx="12" fill="url(#paint0_radial_27_5242)" fill-opacity=".3"/><rect x="1" y="1" width="38" height="38" rx="11" stroke="url(#paint1_linear_27_5242)" stroke-width="2"/></g><path d="M14.8 13.5l.626.78-.626-.78zm4.313.997l-.886.463a1 1 0 001.878-.334l-.992-.13zm2.085-4.657l-.304-.952.304.952zm9.73 0l-.598.802.598-.802zm-2.78 6.652l-.692-.722a1 1 0 00.692 1.722v-1zm3.475.665l.967-.253-.967.253zm-5.56 4.656l-.538-.843a1 1 0 00.274 1.808l.264-.965zM29.1 25.2l-.832-.555.832.555zm-7.207 2.6v1h.08l.078-.012-.158-.988zm-7.522-5.041c-.566-1.004-.86-2.717-.684-4.465.177-1.761.797-3.26 1.739-4.014l-1.251-1.56c-1.549 1.24-2.277 3.378-2.478 5.374-.201 2.008.1 4.172.932 5.647l1.742-.982zm1.055-8.479c.55-.44 1.113-.438 1.656-.221.607.24 1.039.698 1.145.9l1.772-.925c-.357-.684-1.19-1.44-2.177-1.834-1.051-.418-2.412-.47-3.647.52l1.25 1.56zm4.679.346c.109-.837.32-1.824.628-2.622.154-.4.318-.715.48-.933.166-.226.272-.272.289-.278l-.608-1.905c-.573.183-.993.59-1.292.996-.304.413-.544.906-.735 1.401-.382.992-.623 2.145-.745 3.082l1.983.26zm1.397-3.833c.55-.175 1.223.064 1.785.601.268.257.433.514.498.682.1.253-.1-.014.197-.297l1.382 1.444c.644-.616.445-1.464.284-1.877-.195-.497-.552-.989-.979-1.397-.828-.792-2.24-1.551-3.775-1.061l.608 1.905zm2.48.986l.014-.012c.008-.006.044-.036.099-.068a.975.975 0 01.167-.08 1 1 0 011.326.788c.035.23-.021.406-.034.448-.037.115-.086.195-.09.202-.025.04-.043.062-.034.051a4.79 4.79 0 01.287-.319c.325-.338.846-.831 1.456-1.284.62-.46 1.272-.835 1.864-1 .573-.16.978-.098 1.294.137l1.194-1.604c-.97-.722-2.075-.723-3.024-.46-.93.26-1.812.795-2.521 1.321a14.114 14.114 0 00-1.706 1.505 6.51 6.51 0 00-.43.486c-.02.027-.06.078-.096.14-.01.017-.064.104-.102.225a1.001 1.001 0 00.71 1.275c.301.075.54-.013.589-.03a1.033 1.033 0 00.304-.174 1.84 1.84 0 00.115-.103l-1.382-1.444zm6.349-1.137c.01.009.02.016.032.049a.765.765 0 01.026.295c-.02.335-.159.813-.438 1.398-.554 1.16-1.529 2.461-2.495 3.386l1.383 1.445c1.12-1.072 2.246-2.566 2.916-3.969.333-.696.588-1.44.63-2.14.043-.713-.138-1.53-.86-2.068l-1.194 1.604zm-2.183 6.85c.614 0 1.362-.015 1.994.053.318.034.533.083.653.13.155.062-.063.027-.14-.265l1.935-.506c-.171-.656-.727-.957-1.06-1.089-.369-.146-.794-.218-1.175-.258-.768-.083-1.663-.065-2.207-.065v2zm2.507-.082c.098.374.028.61-.129.83-.194.272-.556.558-1.12.867-.558.305-1.2.574-1.894.874-.664.287-1.388.607-1.987.99l1.076 1.685c.443-.282 1.022-.544 1.705-.84.652-.281 1.4-.594 2.06-.954.651-.357 1.332-.82 1.79-1.462.494-.694.684-1.539.434-2.495l-1.935.505zM25.8 22.778c.807.22 1.722.54 2.272.96.267.202.344.351.363.424.009.033.043.17-.166.483l1.664 1.11c.442-.663.623-1.38.438-2.096-.175-.676-.635-1.168-1.087-1.513-.888-.676-2.141-1.074-2.956-1.297l-.528 1.929zm2.47 1.867c-.146.218-.64.612-1.805 1.042-1.113.411-2.679.798-4.729 1.125l.316 1.976c2.12-.339 3.825-.752 5.106-1.225 1.229-.453 2.255-1.027 2.775-1.808l-1.664-1.11zM21.892 26.8c-3.148 0-6.318-1.905-7.522-4.041l-1.742.982c1.59 2.822 5.462 5.059 9.264 5.059v-2z" fill="#D42515"/><path d="M23.25 18.05C20 20 12.2 28.06 9.6 31.7" stroke="#D42515" stroke-width="2"/><defs><radialGradient id="paint0_radial_27_5242" cx="0" cy="0" r="1" gradientUnits="userSpaceOnUse" gradientTransform="rotate(175.111 18.991 10.074) scale(54.5563 43.5884)"><stop stop-color="#D42515"/><stop offset="1" stop-color="#FF9F96" stop-opacity="0"/></radialGradient><linearGradient id="paint1_linear_27_5242" x1="-8.974" y1="-9.405" x2="19.742" y2="13.971" gradientUnits="userSpaceOnUse"><stop stop-color="#FF3C3C"/><stop offset="1" stop-color="#FF3131" stop-opacity="0"/></linearGradient><filter id="filter0_b_27_5242" x="-31.609" y="-31.609" width="103.218" height="103.218" filterUnits="userSpaceOnUse" color-interpolation-filters="sRGB"><feFlood flood-opacity="0" result="BackgroundImageFix"/><feGaussianBlur in="BackgroundImage" stdDeviation="15.805"/><feComposite in2="SourceAlpha" operator="in" result="effect1_backgroundBlur_27_5242"/><feBlend in="SourceGraphic" in2="effect1_backgroundBlur_27_5242" result="shape"/></filter></defs></svg>