<svg width="41" height="40" fill="none" xmlns="http://www.w3.org/2000/svg"><g clip-path="url(#clip0_27_5256)"><g filter="url(#filter0_b_27_5256)"><rect x=".333" width="40" height="40" rx="12" fill="url(#paint0_radial_27_5256)" fill-opacity=".3"/><rect x="1.333" y="1" width="38" height="38" rx="11" stroke="url(#paint1_linear_27_5256)" stroke-width="2"/></g><path fill-rule="evenodd" clip-rule="evenodd" d="M19.033 12.2a7.8 7.8 0 104.019 14.486l1.342 2.227a10.358 10.358 0 01-5.361 1.487c-5.744 0-10.4-4.656-10.4-10.4 0-5.744 4.656-10.4 10.4-10.4 5.744 0 10.4 4.656 10.4 10.4h2.6l-3.9 5.2-3.9-5.2h2.6a7.8 7.8 0 00-7.8-7.8zm1.3 7.406V14.8h-2.6v5.594l2.818 4.227 2.164-1.442-2.382-3.573z" fill="#D42515"/></g><defs><radialGradient id="paint0_radial_27_5256" cx="0" cy="0" r="1" gradientUnits="userSpaceOnUse" gradientTransform="rotate(175.111 19.158 10.082) scale(54.5563 43.5884)"><stop stop-color="#D42515"/><stop offset="1" stop-color="#FF9F96" stop-opacity="0"/></radialGradient><linearGradient id="paint1_linear_27_5256" x1="-8.641" y1="-9.405" x2="20.075" y2="13.971" gradientUnits="userSpaceOnUse"><stop stop-color="#FF3C3C"/><stop offset="1" stop-color="#FF3131" stop-opacity="0"/></linearGradient><clipPath id="clip0_27_5256"><path fill="#fff" transform="translate(.333)" d="M0 0h40v40H0z"/></clipPath><filter id="filter0_b_27_5256" x="-31.276" y="-31.609" width="103.218" height="103.218" filterUnits="userSpaceOnUse" color-interpolation-filters="sRGB"><feFlood flood-opacity="0" result="BackgroundImageFix"/><feGaussianBlur in="BackgroundImage" stdDeviation="15.805"/><feComposite in2="SourceAlpha" operator="in" result="effect1_backgroundBlur_27_5256"/><feBlend in="SourceGraphic" in2="effect1_backgroundBlur_27_5256" result="shape"/></filter></defs></svg>