<svg width="41" height="40" fill="none" xmlns="http://www.w3.org/2000/svg"><g clip-path="url(#clip0_27_5249)"><g filter="url(#filter0_b_27_5249)"><rect x=".667" width="40" height="40" rx="12" fill="url(#paint0_radial_27_5249)" fill-opacity=".3"/><rect x="1.667" y="1" width="38" height="38" rx="11" stroke="url(#paint1_linear_27_5249)" stroke-width="2"/></g><path fill-rule="evenodd" clip-rule="evenodd" d="M19.697 6.03l-.58.118s-.04 0-.04.04c-.154.118-.232.079-.387.198-.232.119-.542.317-.697.475l-.31.277c-.077.159-.31.357-.58.912a3.432 3.432 0 00.31 3.288l.116.198c.038.04.038 0 .077.08l.039.079c.077 0 .077.04.155.118l.155.159c.348.357 1.007.594 1.084.674.116 0 .852.198.89.198l.62-.04c.271-.04.503-.119.774-.159.155-.158.814-.237 1.55-1.188.077-.119.27-.476.348-.555.077-.277.193-.554.27-.911.04-.357.078-.713 0-1.07-.154-1.109-.89-2.14-1.896-2.615-.581-.277-1.162-.356-1.898-.277zm-1.316 8.2l-.814.357h-.038c-.039.04 0 .04-.078.079l-.62.555c-.038.079-.115.118-.193.198l-.193.198-4.298 4.08c-.62.634-1.123.793-1.278 1.704-.039.99.62 1.704 1.587 1.625.388-.04.659-.238.852-.436.155-.159.194-.198.349-.317l1.665-1.545c.116-.159.31-.278.464-.436a4.28 4.28 0 01.426-.396c.039.356 0 3.407 0 4.001 0 .595-.077 1.268-.116 1.902-.039.317-.077 1.664-.155 1.822.039.159 0 .436 0 .634 0 .278 0 .912-.116 1.07.039.159 0 .317 0 .475l-.116 1.07a.346.346 0 010 .277c-.039.634-.155 1.348.116 1.902.116.278.271.396.465.555.193.158.542.277.62.356l.58.04c.116-.08.31-.08.465-.158.155-.08.232-.159.387-.238h.039l.232-.317c.62-.832.271-2.496.503-2.932-.038-.158 0-.396 0-.555 0-.237.04-1.07.117-1.188v-.198l.038-.872.078-1.07c.348 0 1.394-.04 1.665.04l.077 1.03.039.792v.278c.077.119.077.99.116 1.228 0 .159.039.357 0 .515.077.159.116 1.545.155 1.862.039.555.116.872.503 1.268l.116.119h.04c.154.08.231.158.386.238.116.04.349.079.465.158l.62-.04c.154-.118.425-.158.619-.356.155-.159.31-.277.426-.555.232-.475.155-1.11.116-1.703l-.194-3.09c-.038-.16-.077-.476 0-.674v-.04l-.038-.396c0-.159-.039-.317-.039-.476-.039-.198-.039-.435-.039-.633-.077-.159-.077-.595-.077-.832v-.238c-.116-.198-.155-4.596-.078-5.071.078.04.04 0 .078.079.116.04.697.634.697.634.077.04.039 0 .077.119.233.079.465.435.697.594l1.007.95c.387.357.426.556 1.162.714.968.04 1.626-.634 1.587-1.624l-.038-.357-.233-.357-1.781-1.703c-.116-.119-.503-.476-.58-.594-.078-.04-.04 0-.117-.08l-2.323-2.179c-.155-.119-.271-.277-.387-.396-.117-.119-.271-.277-.388-.357-.038-.04-.077-.04-.077-.079-.078-.079-.039-.04-.039-.079l-.697-.634-.038-.04-.736-.316c-.078-.04-.039 0-.078-.04-.154 0-.62-.08-.89-.08h-1.897c-.233 0-.698.08-.852.08v.08z" fill="#D42515"/></g><defs><radialGradient id="paint0_radial_27_5249" cx="0" cy="0" r="1" gradientUnits="userSpaceOnUse" gradientTransform="rotate(175.111 19.325 10.089) scale(54.5563 43.5884)"><stop stop-color="#D42515"/><stop offset="1" stop-color="#FF9F96" stop-opacity="0"/></radialGradient><linearGradient id="paint1_linear_27_5249" x1="-8.307" y1="-9.405" x2="20.409" y2="13.971" gradientUnits="userSpaceOnUse"><stop stop-color="#FF3C3C"/><stop offset="1" stop-color="#FF3131" stop-opacity="0"/></linearGradient><clipPath id="clip0_27_5249"><path fill="#fff" transform="translate(.667)" d="M0 0h40v40H0z"/></clipPath><filter id="filter0_b_27_5249" x="-30.942" y="-31.609" width="103.218" height="103.218" filterUnits="userSpaceOnUse" color-interpolation-filters="sRGB"><feFlood flood-opacity="0" result="BackgroundImageFix"/><feGaussianBlur in="BackgroundImage" stdDeviation="15.805"/><feComposite in2="SourceAlpha" operator="in" result="effect1_backgroundBlur_27_5249"/><feBlend in="SourceGraphic" in2="effect1_backgroundBlur_27_5249" result="shape"/></filter></defs></svg>