<svg width="22" height="22" fill="none" xmlns="http://www.w3.org/2000/svg"><path d="M11 .88C5.42.88.88 5.42.88 11c0 1.743.45 3.457 1.304 4.969L.896 20.562a.44.44 0 00.53.546L6.22 19.92c1.464.786 3.112 1.2 4.78 1.2 5.58 0 10.12-4.54 10.12-10.12C21.12 5.42 16.58.88 11 .88zm5.09 13.692c-.216.6-1.254 1.146-1.753 1.22-.448.065-1.015.093-1.637-.102a15.236 15.236 0 01-1.48-.54c-2.607-1.112-4.309-3.703-4.44-3.875-.129-.17-1.06-1.39-1.06-2.653 0-1.262.671-1.883.91-2.14a.96.96 0 01.692-.321c.174 0 .347.002.499.01.16.007.374-.061.584.44.217.513.736 1.776.8 1.905.066.128.109.278.023.45-.087.17-.13.277-.26.428-.13.15-.273.334-.39.45-.13.127-.265.266-.114.523.152.257.673 1.097 1.446 1.777.992.874 1.83 1.145 2.089 1.273.26.129.411.107.563-.064.15-.171.649-.75.822-1.006.173-.256.346-.214.585-.128.238.085 1.516.706 1.775.834.26.128.433.193.498.3.065.106.065.62-.151 1.219z" fill="#1A2F44"/></svg>