<svg width="44" height="44" fill="none" xmlns="http://www.w3.org/2000/svg"><path clip-rule="evenodd" d="M22 44c12.15 0 22-9.85 22-22S34.15 0 22 0 0 9.85 0 22s9.85 22 22 22zM11.88 22c0-5.58 4.54-10.12 10.12-10.12 5.58 0 10.12 4.54 10.12 10.12 0 5.58-4.54 10.12-10.12 10.12-1.668 0-3.316-.414-4.78-1.2l-4.794 1.187a.44.44 0 01-.53-.546l1.288-4.593A10.11 10.11 0 0111.88 22zm13.457 4.79c.499-.073 1.537-.62 1.754-1.219.216-.599.216-1.113.151-1.22-.052-.085-.174-.143-.355-.23a10.17 10.17 0 01-.143-.069c-.26-.128-1.537-.749-1.775-.834-.239-.086-.412-.128-.585.128-.173.257-.671.835-.822 1.006-.152.171-.304.193-.563.064l-.172-.076c-.366-.157-1.088-.466-1.917-1.197-.773-.68-1.294-1.52-1.446-1.777-.151-.257-.016-.396.114-.524.078-.076.167-.183.256-.29l.134-.16c.111-.127.159-.224.224-.356l.036-.071c.086-.172.043-.322-.022-.45-.043-.086-.286-.67-.508-1.204l-.293-.701c-.186-.442-.374-.441-.526-.44h-.058a9.814 9.814 0 00-.498-.01.96.96 0 00-.694.321 6.724 6.724 0 01-.05.054c-.27.285-.859.904-.859 2.086 0 1.255.92 2.468 1.058 2.65l.003.004c.009.01.024.033.047.065.314.444 1.958 2.77 4.391 3.808.62.265 1.104.422 1.481.541.622.195 1.189.167 1.637.102z"/></svg>